<svg width="5238" height="2302" viewBox="0 0 5238 2302" fill="none" xmlns="http://www.w3.org/2000/svg">
<rect width="5238" height="2302" fill="white"/>
<rect x="2.89778" width="1349" height="1565.5" rx="18.5" transform="matrix(0.965926 -0.258819 0.965926 0.258819 714.099 1813.75)" fill="white" stroke="black" stroke-width="3"/>
<path d="M2014.58 1903.8L1852.37 1860.34L1901.33 1847.22C1913.36 1843.99 1925.31 1841.59 1937.18 1840C1949.22 1838.36 1961.25 1837.83 1973.28 1838.41C1985.32 1838.89 1997.27 1840.73 2009.14 1843.91C2020.51 1846.95 2027.36 1850.16 2029.66 1853.51C2032.14 1856.83 2030.65 1860.18 2025.21 1863.58C2019.77 1866.99 2011.12 1870.28 1999.25 1873.46L1970.81 1881.08L2035.1 1898.3L2014.58 1903.8ZM1954 1876.57L1979.96 1869.61C1994.14 1865.82 2001.97 1862.3 2003.45 1859.08C2004.94 1855.77 1999.91 1852.56 1988.37 1849.47C1976.66 1846.34 1965.12 1845.1 1953.75 1845.76C1942.21 1846.38 1929.43 1848.57 1915.42 1852.32L1889.46 1859.28L1954 1876.57ZM2159.14 1865.07L1996.93 1821.6L2036.98 1810.87C2061.38 1804.33 2087.02 1801.22 2113.89 1801.53C2140.59 1801.79 2166.81 1805.37 2192.52 1812.26C2218.4 1819.2 2232.09 1826.31 2233.57 1833.6C2235.22 1840.84 2224.09 1847.66 2200.19 1854.07L2159.14 1865.07ZM2162.85 1855.06L2180.9 1850.23C2199.53 1845.23 2207.69 1840 2205.38 1834.52C2203.07 1828.96 2191.7 1823.44 2171.26 1817.96C2150.81 1812.48 2130.54 1809.52 2110.43 1809.08C2090.31 1808.55 2070.94 1810.78 2052.32 1815.77L2034.26 1820.61L2162.85 1855.06ZM2318.78 1822.29L2156.57 1778.83L2256.22 1752.12L2273.53 1756.76L2194.65 1777.9L2249.55 1792.61L2316.31 1774.72L2333.62 1779.36L2266.86 1797.25L2339.56 1816.73L2318.78 1822.29Z" fill="black"/>
<path d="M3615.8 1887V1803.03H3641.91C3647.63 1803.03 3652.66 1803.8 3657.02 1805.34C3661.45 1806.79 3664.91 1809.26 3667.38 1812.76C3669.94 1816.17 3671.22 1820.78 3671.22 1826.58C3671.22 1833.07 3669.52 1838.32 3666.1 1842.33C3662.69 1846.25 3658.13 1848.94 3652.41 1850.39L3673.78 1887H3661.62L3641.4 1851.54H3626.42V1887H3615.8ZM3626.42 1842.84H3640.38C3646.95 1842.84 3651.94 1841.52 3655.35 1838.87C3658.85 1836.14 3660.6 1832.05 3660.6 1826.58C3660.6 1821.04 3658.85 1817.15 3655.35 1814.94C3651.94 1812.72 3646.95 1811.61 3640.38 1811.61H3626.42V1842.84ZM3711.24 1888.54C3707.4 1888.54 3703.86 1887.85 3700.61 1886.49C3697.46 1885.04 3694.9 1882.99 3692.93 1880.34C3691.06 1877.7 3690.12 1874.54 3690.12 1870.87C3690.12 1866.18 3691.61 1862.3 3694.6 1859.22C3697.67 1856.07 3702.53 1853.55 3709.19 1851.67C3715.85 1849.79 3724.51 1848.43 3735.17 1847.58C3735.09 1844.76 3734.49 1842.2 3733.38 1839.9C3732.36 1837.51 3730.65 1835.59 3728.26 1834.14C3725.87 1832.69 3722.67 1831.96 3718.66 1831.96C3714.65 1831.96 3710.73 1832.77 3706.89 1834.39C3703.13 1835.93 3699.8 1837.59 3696.9 1839.38L3692.81 1832.22C3695.96 1830.17 3699.97 1828.16 3704.84 1826.2C3709.79 1824.24 3714.99 1823.26 3720.45 1823.26C3728.99 1823.26 3735.3 1825.6 3739.4 1830.3C3743.58 1834.9 3745.67 1841.09 3745.67 1848.86V1887H3737.09L3736.2 1878.55H3735.81C3732.4 1881.2 3728.56 1883.54 3724.29 1885.59C3720.03 1887.55 3715.68 1888.54 3711.24 1888.54ZM3714.05 1880.09C3717.55 1880.09 3721.05 1879.28 3724.55 1877.66C3728.13 1876.03 3731.68 1873.77 3735.17 1870.87V1854.49C3726.3 1855.17 3719.3 1856.24 3714.18 1857.69C3709.15 1859.05 3705.56 1860.8 3703.43 1862.94C3701.38 1864.98 3700.36 1867.37 3700.36 1870.1C3700.36 1873.6 3701.72 1876.16 3704.45 1877.78C3707.27 1879.32 3710.47 1880.09 3714.05 1880.09ZM3771.09 1887L3757.52 1824.79H3768.02L3775.44 1860.89C3776.04 1863.79 3776.55 1866.65 3776.98 1869.46C3777.49 1872.19 3777.92 1875.05 3778.26 1878.04H3778.77C3779.2 1875.05 3779.71 1872.19 3780.31 1869.46C3780.99 1866.65 3781.67 1863.79 3782.36 1860.89L3790.04 1828.63H3800.53L3807.96 1860.89C3808.64 1863.79 3809.36 1866.65 3810.13 1869.46C3810.9 1872.19 3811.45 1875.05 3811.8 1878.04H3812.31C3812.82 1875.05 3813.25 1872.19 3813.59 1869.46C3814.01 1866.65 3814.53 1863.79 3815.12 1860.89L3822.55 1824.79H3832.28L3818.96 1887H3805.4L3798.23 1857.3C3797.2 1852.95 3796.18 1846.81 3795.16 1838.87H3794.64C3793.62 1846.81 3792.6 1852.95 3791.57 1857.3L3784.66 1887H3771.09ZM3923.06 1887V1803.03H3948.4C3954.63 1803.03 3960.05 1803.8 3964.66 1805.34C3969.35 1806.87 3972.98 1809.47 3975.54 1813.14C3978.18 1816.73 3979.5 1821.59 3979.5 1827.74C3979.5 1833.62 3978.18 1838.49 3975.54 1842.33C3972.98 1846.17 3969.35 1849.03 3964.66 1850.9C3959.96 1852.78 3954.54 1853.72 3948.4 1853.72H3933.68V1887H3923.06ZM3933.68 1845.02H3947.12C3954.46 1845.02 3959.88 1843.65 3963.38 1840.92C3966.96 1838.1 3968.75 1833.71 3968.75 1827.74C3968.75 1821.68 3966.96 1817.5 3963.38 1815.19C3959.79 1812.8 3954.37 1811.61 3947.12 1811.61H3933.68V1845.02ZM3997.89 1887V1803.03H4018.62C4031.25 1803.03 4040.89 1806.66 4047.55 1813.91C4054.21 1821.08 4057.53 1831.32 4057.53 1844.63C4057.53 1858.03 4054.21 1868.44 4047.55 1875.86C4040.98 1883.29 4031.51 1887 4019.13 1887H3997.89ZM4008.51 1878.3H4017.85C4027.5 1878.3 4034.66 1875.35 4039.36 1869.46C4044.14 1863.49 4046.53 1855.21 4046.53 1844.63C4046.53 1834.05 4044.14 1825.94 4039.36 1820.31C4034.66 1814.59 4027.5 1811.74 4017.85 1811.74H4008.51V1878.3ZM4080.52 1887V1803.03H4132.11V1811.99H4091.28V1840.41H4125.84V1849.37H4091.28V1887H4080.52ZM4234.02 1887V1803.03H4285.61V1811.99H4244.78V1840.41H4279.34V1849.37H4244.78V1887H4234.02ZM4334.2 1887V1833.37H4305.27V1824.79H4344.69V1887H4334.2ZM4338.29 1811.74C4335.9 1811.74 4333.9 1811.01 4332.28 1809.56C4330.66 1808.02 4329.85 1806.02 4329.85 1803.54C4329.85 1801.07 4330.66 1799.11 4332.28 1797.66C4333.9 1796.12 4335.9 1795.35 4338.29 1795.35C4340.68 1795.35 4342.69 1796.12 4344.31 1797.66C4345.93 1799.11 4346.74 1801.07 4346.74 1803.54C4346.74 1806.02 4345.93 1808.02 4344.31 1809.56C4342.69 1811.01 4340.68 1811.74 4338.29 1811.74ZM4422.6 1888.54C4416.03 1888.54 4410.95 1886.66 4407.36 1882.9C4403.87 1879.06 4402.12 1873.47 4402.12 1866.14V1804.44H4379.97V1795.86H4412.61V1866.9C4412.61 1871.43 4413.72 1874.71 4415.94 1876.76C4418.24 1878.81 4421.23 1879.83 4424.9 1879.83C4428.57 1879.83 4432.45 1878.89 4436.55 1877.02L4439.24 1884.82C4436.33 1886.02 4433.69 1886.91 4431.3 1887.51C4428.91 1888.19 4426.01 1888.54 4422.6 1888.54ZM4487.95 1831.58C4482.83 1831.58 4478.27 1833.24 4474.26 1836.57C4470.25 1839.81 4467.77 1844.5 4466.83 1850.65H4506.51C4506.09 1844.25 4504.21 1839.47 4500.88 1836.31C4497.55 1833.15 4493.24 1831.58 4487.95 1831.58ZM4489.49 1888.54C4483.26 1888.54 4477.59 1887.26 4472.47 1884.7C4467.43 1882.14 4463.42 1878.42 4460.43 1873.56C4457.45 1868.61 4455.95 1862.68 4455.95 1855.77C4455.95 1849.03 4457.45 1843.22 4460.43 1838.36C4463.42 1833.5 4467.3 1829.78 4472.08 1827.22C4476.95 1824.58 4482.15 1823.26 4487.7 1823.26C4496.66 1823.26 4503.61 1825.94 4508.56 1831.32C4513.6 1836.61 4516.11 1843.65 4516.11 1852.44C4516.11 1853.63 4516.07 1854.79 4515.99 1855.9C4515.9 1857.01 4515.77 1857.99 4515.6 1858.84H4466.58C4467.26 1865.84 4469.82 1871.13 4474.26 1874.71C4478.78 1878.3 4484.28 1880.09 4490.77 1880.09C4494.52 1880.09 4497.9 1879.58 4500.88 1878.55C4503.95 1877.44 4506.9 1875.99 4509.71 1874.2L4513.55 1881.11C4510.48 1883.16 4506.94 1884.91 4502.93 1886.36C4499 1887.81 4494.52 1888.54 4489.49 1888.54Z" fill="black"/>
<path d="M1630.23 1642.64L1694.54 1734.25L1698.18 1739.43L1704.42 1738.35L1874.09 1709.12L1772.57 1794.69L1763.73 1802.13L1772.37 1809.81L1818.91 1851.16L1660.28 1817.88L1657.02 1817.2L1654.01 1818.6L1502.21 1889.27L1546.25 1807.05L1552.56 1795.29L1539.49 1792.54L1403.89 1764.1L1621.4 1738.43L1630.23 1737.39V1728.5V1642.64Z" stroke="#4C89FF" stroke-width="20"/>
<path d="M1592.93 1785.07C1596.83 1788.98 1603.17 1788.98 1607.07 1785.07L1670.71 1721.43C1674.62 1717.53 1674.62 1711.19 1670.71 1707.29C1666.81 1703.38 1660.47 1703.38 1656.57 1707.29L1600 1763.86L1543.43 1707.29C1539.53 1703.38 1533.19 1703.38 1529.29 1707.29C1525.38 1711.19 1525.38 1717.53 1529.29 1721.43L1592.93 1785.07ZM1590 1318V1778H1610V1318H1590Z" fill="black"/>
<path d="M459.591 1566.68C459.227 1563.02 457.667 1560.17 454.909 1558.14C452.152 1556.11 448.409 1555.09 443.682 1555.09C440.47 1555.09 437.758 1555.55 435.545 1556.45C433.333 1557.33 431.636 1558.56 430.455 1560.14C429.303 1561.71 428.727 1563.5 428.727 1565.5C428.667 1567.17 429.015 1568.62 429.773 1569.86C430.561 1571.11 431.636 1572.18 433 1573.09C434.364 1573.97 435.939 1574.74 437.727 1575.41C439.515 1576.05 441.424 1576.59 443.455 1577.05L451.818 1579.05C455.879 1579.95 459.606 1581.17 463 1582.68C466.394 1584.2 469.333 1586.06 471.818 1588.27C474.303 1590.48 476.227 1593.09 477.591 1596.09C478.985 1599.09 479.697 1602.53 479.727 1606.41C479.697 1612.11 478.242 1617.05 475.364 1621.23C472.515 1625.38 468.394 1628.61 463 1630.91C457.636 1633.18 451.167 1634.32 443.591 1634.32C436.076 1634.32 429.53 1633.17 423.955 1630.86C418.409 1628.56 414.076 1625.15 410.955 1620.64C407.864 1616.09 406.242 1610.47 406.091 1603.77H425.136C425.348 1606.89 426.242 1609.5 427.818 1611.59C429.424 1613.65 431.561 1615.21 434.227 1616.27C436.924 1617.3 439.97 1617.82 443.364 1617.82C446.697 1617.82 449.591 1617.33 452.045 1616.36C454.53 1615.39 456.455 1614.05 457.818 1612.32C459.182 1610.59 459.864 1608.61 459.864 1606.36C459.864 1604.27 459.242 1602.52 458 1601.09C456.788 1599.67 455 1598.45 452.636 1597.45C450.303 1596.45 447.439 1595.55 444.045 1594.73L433.909 1592.18C426.061 1590.27 419.864 1587.29 415.318 1583.23C410.773 1579.17 408.515 1573.7 408.545 1566.82C408.515 1561.18 410.015 1556.26 413.045 1552.05C416.106 1547.83 420.303 1544.55 425.636 1542.18C430.97 1539.82 437.03 1538.64 443.818 1538.64C450.727 1538.64 456.758 1539.82 461.909 1542.18C467.091 1544.55 471.121 1547.83 474 1552.05C476.879 1556.26 478.364 1561.14 478.455 1566.68H459.591ZM512.511 1634.32C508.057 1634.32 504.087 1633.55 500.602 1632C497.117 1630.42 494.36 1628.11 492.33 1625.05C490.33 1621.95 489.33 1618.11 489.33 1613.5C489.33 1609.62 490.042 1606.36 491.466 1603.73C492.89 1601.09 494.83 1598.97 497.284 1597.36C499.739 1595.76 502.527 1594.55 505.648 1593.73C508.799 1592.91 512.102 1592.33 515.557 1592C519.617 1591.58 522.89 1591.18 525.375 1590.82C527.86 1590.42 529.663 1589.85 530.784 1589.09C531.905 1588.33 532.466 1587.21 532.466 1585.73V1585.45C532.466 1582.58 531.557 1580.35 529.739 1578.77C527.951 1577.2 525.405 1576.41 522.102 1576.41C518.617 1576.41 515.845 1577.18 513.784 1578.73C511.723 1580.24 510.36 1582.15 509.693 1584.45L491.784 1583C492.693 1578.76 494.481 1575.09 497.148 1572C499.814 1568.88 503.254 1566.48 507.466 1564.82C511.708 1563.12 516.617 1562.27 522.193 1562.27C526.072 1562.27 529.784 1562.73 533.33 1563.64C536.905 1564.55 540.072 1565.95 542.83 1567.86C545.617 1569.77 547.814 1572.23 549.42 1575.23C551.027 1578.2 551.83 1581.76 551.83 1585.91V1633H533.466V1623.32H532.92C531.799 1625.5 530.299 1627.42 528.42 1629.09C526.542 1630.73 524.284 1632.02 521.648 1632.95C519.011 1633.86 515.966 1634.32 512.511 1634.32ZM518.057 1620.95C520.905 1620.95 523.42 1620.39 525.602 1619.27C527.784 1618.12 529.496 1616.58 530.739 1614.64C531.981 1612.7 532.602 1610.5 532.602 1608.05V1600.64C531.996 1601.03 531.163 1601.39 530.102 1601.73C529.072 1602.03 527.905 1602.32 526.602 1602.59C525.299 1602.83 523.996 1603.06 522.693 1603.27C521.39 1603.45 520.208 1603.62 519.148 1603.77C516.875 1604.11 514.89 1604.64 513.193 1605.36C511.496 1606.09 510.178 1607.08 509.239 1608.32C508.299 1609.53 507.83 1611.05 507.83 1612.86C507.83 1615.5 508.784 1617.52 510.693 1618.91C512.633 1620.27 515.087 1620.95 518.057 1620.95ZM629.443 1563.18L605.034 1633H583.216L558.807 1563.18H579.261L593.761 1613.14H594.489L608.943 1563.18H629.443ZM668.92 1634.36C661.739 1634.36 655.557 1632.91 650.375 1630C645.223 1627.06 641.254 1622.91 638.466 1617.55C635.678 1612.15 634.284 1605.77 634.284 1598.41C634.284 1591.23 635.678 1584.92 638.466 1579.5C641.254 1574.08 645.178 1569.85 650.239 1566.82C655.33 1563.79 661.299 1562.27 668.148 1562.27C672.754 1562.27 677.042 1563.02 681.011 1564.5C685.011 1565.95 688.496 1568.15 691.466 1571.09C694.466 1574.03 696.799 1577.73 698.466 1582.18C700.133 1586.61 700.966 1591.79 700.966 1597.73V1603.05H642.011V1591.05H682.739C682.739 1588.26 682.133 1585.79 680.92 1583.64C679.708 1581.48 678.027 1579.8 675.875 1578.59C673.754 1577.35 671.284 1576.73 668.466 1576.73C665.527 1576.73 662.92 1577.41 660.648 1578.77C658.405 1580.11 656.648 1581.91 655.375 1584.18C654.102 1586.42 653.451 1588.92 653.42 1591.68V1603.09C653.42 1606.55 654.057 1609.53 655.33 1612.05C656.633 1614.56 658.466 1616.5 660.83 1617.86C663.193 1619.23 665.996 1619.91 669.239 1619.91C671.39 1619.91 673.36 1619.61 675.148 1619C676.936 1618.39 678.466 1617.48 679.739 1616.27C681.011 1615.06 681.981 1613.58 682.648 1611.82L700.557 1613C699.648 1617.3 697.784 1621.06 694.966 1624.27C692.178 1627.45 688.572 1629.94 684.148 1631.73C679.754 1633.48 674.678 1634.36 668.92 1634.36ZM763.136 1634.32C758.682 1634.32 754.712 1633.55 751.227 1632C747.742 1630.42 744.985 1628.11 742.955 1625.05C740.955 1621.95 739.955 1618.11 739.955 1613.5C739.955 1609.62 740.667 1606.36 742.091 1603.73C743.515 1601.09 745.455 1598.97 747.909 1597.36C750.364 1595.76 753.152 1594.55 756.273 1593.73C759.424 1592.91 762.727 1592.33 766.182 1592C770.242 1591.58 773.515 1591.18 776 1590.82C778.485 1590.42 780.288 1589.85 781.409 1589.09C782.53 1588.33 783.091 1587.21 783.091 1585.73V1585.45C783.091 1582.58 782.182 1580.35 780.364 1578.77C778.576 1577.2 776.03 1576.41 772.727 1576.41C769.242 1576.41 766.47 1577.18 764.409 1578.73C762.348 1580.24 760.985 1582.15 760.318 1584.45L742.409 1583C743.318 1578.76 745.106 1575.09 747.773 1572C750.439 1568.88 753.879 1566.48 758.091 1564.82C762.333 1563.12 767.242 1562.27 772.818 1562.27C776.697 1562.27 780.409 1562.73 783.955 1563.64C787.53 1564.55 790.697 1565.95 793.455 1567.86C796.242 1569.77 798.439 1572.23 800.045 1575.23C801.652 1578.2 802.455 1581.76 802.455 1585.91V1633H784.091V1623.32H783.545C782.424 1625.5 780.924 1627.42 779.045 1629.09C777.167 1630.73 774.909 1632.02 772.273 1632.95C769.636 1633.86 766.591 1634.32 763.136 1634.32ZM768.682 1620.95C771.53 1620.95 774.045 1620.39 776.227 1619.27C778.409 1618.12 780.121 1616.58 781.364 1614.64C782.606 1612.7 783.227 1610.5 783.227 1608.05V1600.64C782.621 1601.03 781.788 1601.39 780.727 1601.73C779.697 1602.03 778.53 1602.32 777.227 1602.59C775.924 1602.83 774.621 1603.06 773.318 1603.27C772.015 1603.45 770.833 1603.62 769.773 1603.77C767.5 1604.11 765.515 1604.64 763.818 1605.36C762.121 1606.09 760.803 1607.08 759.864 1608.32C758.924 1609.53 758.455 1611.05 758.455 1612.86C758.455 1615.5 759.409 1617.52 761.318 1618.91C763.258 1620.27 765.712 1620.95 768.682 1620.95ZM836.841 1592.64V1633H817.477V1563.18H835.932V1575.5H836.75C838.295 1571.44 840.886 1568.23 844.523 1565.86C848.159 1563.47 852.568 1562.27 857.75 1562.27C862.598 1562.27 866.826 1563.33 870.432 1565.45C874.038 1567.58 876.841 1570.61 878.841 1574.55C880.841 1578.45 881.841 1583.12 881.841 1588.55V1633H862.477V1592C862.508 1587.73 861.417 1584.39 859.205 1582C856.992 1579.58 853.947 1578.36 850.068 1578.36C847.462 1578.36 845.159 1578.92 843.159 1580.05C841.189 1581.17 839.644 1582.8 838.523 1584.95C837.432 1587.08 836.871 1589.64 836.841 1592.64ZM916.466 1592.64V1633H897.102V1563.18H915.557V1575.5H916.375C917.92 1571.44 920.511 1568.23 924.148 1565.86C927.784 1563.47 932.193 1562.27 937.375 1562.27C942.223 1562.27 946.451 1563.33 950.057 1565.45C953.663 1567.58 956.466 1570.61 958.466 1574.55C960.466 1578.45 961.466 1583.12 961.466 1588.55V1633H942.102V1592C942.133 1587.73 941.042 1584.39 938.83 1582C936.617 1579.58 933.572 1578.36 929.693 1578.36C927.087 1578.36 924.784 1578.92 922.784 1580.05C920.814 1581.17 919.269 1582.8 918.148 1584.95C917.057 1587.08 916.496 1589.64 916.466 1592.64ZM1008.27 1634.36C1001.21 1634.36 995.106 1632.86 989.955 1629.86C984.833 1626.83 980.879 1622.62 978.091 1617.23C975.303 1611.8 973.909 1605.52 973.909 1598.36C973.909 1591.15 975.303 1584.85 978.091 1579.45C980.879 1574.03 984.833 1569.82 989.955 1566.82C995.106 1563.79 1001.21 1562.27 1008.27 1562.27C1015.33 1562.27 1021.42 1563.79 1026.55 1566.82C1031.7 1569.82 1035.67 1574.03 1038.45 1579.45C1041.24 1584.85 1042.64 1591.15 1042.64 1598.36C1042.64 1605.52 1041.24 1611.8 1038.45 1617.23C1035.67 1622.62 1031.7 1626.83 1026.55 1629.86C1021.42 1632.86 1015.33 1634.36 1008.27 1634.36ZM1008.36 1619.36C1011.58 1619.36 1014.26 1618.45 1016.41 1616.64C1018.56 1614.79 1020.18 1612.27 1021.27 1609.09C1022.39 1605.91 1022.95 1602.29 1022.95 1598.23C1022.95 1594.17 1022.39 1590.55 1021.27 1587.36C1020.18 1584.18 1018.56 1581.67 1016.41 1579.82C1014.26 1577.97 1011.58 1577.05 1008.36 1577.05C1005.12 1577.05 1002.39 1577.97 1000.18 1579.82C998 1581.67 996.348 1584.18 995.227 1587.36C994.136 1590.55 993.591 1594.17 993.591 1598.23C993.591 1602.29 994.136 1605.91 995.227 1609.09C996.348 1612.27 998 1614.79 1000.18 1616.64C1002.39 1618.45 1005.12 1619.36 1008.36 1619.36ZM1092.36 1563.18V1577.73H1050.32V1563.18H1092.36ZM1059.86 1546.45H1079.23V1611.55C1079.23 1613.33 1079.5 1614.73 1080.05 1615.73C1080.59 1616.7 1081.35 1617.38 1082.32 1617.77C1083.32 1618.17 1084.47 1618.36 1085.77 1618.36C1086.68 1618.36 1087.59 1618.29 1088.5 1618.14C1089.41 1617.95 1090.11 1617.82 1090.59 1617.73L1093.64 1632.14C1092.67 1632.44 1091.3 1632.79 1089.55 1633.18C1087.79 1633.61 1085.65 1633.86 1083.14 1633.95C1078.47 1634.14 1074.38 1633.52 1070.86 1632.09C1067.38 1630.67 1064.67 1628.45 1062.73 1625.45C1060.79 1622.45 1059.83 1618.67 1059.86 1614.09V1546.45ZM1124.89 1634.32C1120.43 1634.32 1116.46 1633.55 1112.98 1632C1109.49 1630.42 1106.73 1628.11 1104.7 1625.05C1102.7 1621.95 1101.7 1618.11 1101.7 1613.5C1101.7 1609.62 1102.42 1606.36 1103.84 1603.73C1105.27 1601.09 1107.2 1598.97 1109.66 1597.36C1112.11 1595.76 1114.9 1594.55 1118.02 1593.73C1121.17 1592.91 1124.48 1592.33 1127.93 1592C1131.99 1591.58 1135.27 1591.18 1137.75 1590.82C1140.23 1590.42 1142.04 1589.85 1143.16 1589.09C1144.28 1588.33 1144.84 1587.21 1144.84 1585.73V1585.45C1144.84 1582.58 1143.93 1580.35 1142.11 1578.77C1140.33 1577.2 1137.78 1576.41 1134.48 1576.41C1130.99 1576.41 1128.22 1577.18 1126.16 1578.73C1124.1 1580.24 1122.73 1582.15 1122.07 1584.45L1104.16 1583C1105.07 1578.76 1106.86 1575.09 1109.52 1572C1112.19 1568.88 1115.63 1566.48 1119.84 1564.82C1124.08 1563.12 1128.99 1562.27 1134.57 1562.27C1138.45 1562.27 1142.16 1562.73 1145.7 1563.64C1149.28 1564.55 1152.45 1565.95 1155.2 1567.86C1157.99 1569.77 1160.19 1572.23 1161.8 1575.23C1163.4 1578.2 1164.2 1581.76 1164.2 1585.91V1633H1145.84V1623.32H1145.3C1144.17 1625.5 1142.67 1627.42 1140.8 1629.09C1138.92 1630.73 1136.66 1632.02 1134.02 1632.95C1131.39 1633.86 1128.34 1634.32 1124.89 1634.32ZM1130.43 1620.95C1133.28 1620.95 1135.8 1620.39 1137.98 1619.27C1140.16 1618.12 1141.87 1616.58 1143.11 1614.64C1144.36 1612.7 1144.98 1610.5 1144.98 1608.05V1600.64C1144.37 1601.03 1143.54 1601.39 1142.48 1601.73C1141.45 1602.03 1140.28 1602.32 1138.98 1602.59C1137.67 1602.83 1136.37 1603.06 1135.07 1603.27C1133.77 1603.45 1132.58 1603.62 1131.52 1603.77C1129.25 1604.11 1127.27 1604.64 1125.57 1605.36C1123.87 1606.09 1122.55 1607.08 1121.61 1608.32C1120.67 1609.53 1120.2 1611.05 1120.2 1612.86C1120.2 1615.5 1121.16 1617.52 1123.07 1618.91C1125.01 1620.27 1127.46 1620.95 1130.43 1620.95ZM1216.36 1563.18V1577.73H1174.32V1563.18H1216.36ZM1183.86 1546.45H1203.23V1611.55C1203.23 1613.33 1203.5 1614.73 1204.05 1615.73C1204.59 1616.7 1205.35 1617.38 1206.32 1617.77C1207.32 1618.17 1208.47 1618.36 1209.77 1618.36C1210.68 1618.36 1211.59 1618.29 1212.5 1618.14C1213.41 1617.95 1214.11 1617.82 1214.59 1617.73L1217.64 1632.14C1216.67 1632.44 1215.3 1632.79 1213.55 1633.18C1211.79 1633.61 1209.65 1633.86 1207.14 1633.95C1202.47 1634.14 1198.38 1633.52 1194.86 1632.09C1191.38 1630.67 1188.67 1628.45 1186.73 1625.45C1184.79 1622.45 1183.83 1618.67 1183.86 1614.09V1546.45ZM1228.98 1633V1563.18H1248.34V1633H1228.98ZM1238.7 1554.18C1235.83 1554.18 1233.36 1553.23 1231.3 1551.32C1229.27 1549.38 1228.25 1547.06 1228.25 1544.36C1228.25 1541.7 1229.27 1539.41 1231.3 1537.5C1233.36 1535.56 1235.83 1534.59 1238.7 1534.59C1241.58 1534.59 1244.04 1535.56 1246.07 1537.5C1248.13 1539.41 1249.16 1541.7 1249.16 1544.36C1249.16 1547.06 1248.13 1549.38 1246.07 1551.32C1244.04 1553.23 1241.58 1554.18 1238.7 1554.18ZM1295.4 1634.36C1288.34 1634.36 1282.23 1632.86 1277.08 1629.86C1271.96 1626.83 1268 1622.62 1265.22 1617.23C1262.43 1611.8 1261.03 1605.52 1261.03 1598.36C1261.03 1591.15 1262.43 1584.85 1265.22 1579.45C1268 1574.03 1271.96 1569.82 1277.08 1566.82C1282.23 1563.79 1288.34 1562.27 1295.4 1562.27C1302.46 1562.27 1308.55 1563.79 1313.67 1566.82C1318.82 1569.82 1322.79 1574.03 1325.58 1579.45C1328.37 1584.85 1329.76 1591.15 1329.76 1598.36C1329.76 1605.52 1328.37 1611.8 1325.58 1617.23C1322.79 1622.62 1318.82 1626.83 1313.67 1629.86C1308.55 1632.86 1302.46 1634.36 1295.4 1634.36ZM1295.49 1619.36C1298.7 1619.36 1301.38 1618.45 1303.53 1616.64C1305.69 1614.79 1307.31 1612.27 1308.4 1609.09C1309.52 1605.91 1310.08 1602.29 1310.08 1598.23C1310.08 1594.17 1309.52 1590.55 1308.4 1587.36C1307.31 1584.18 1305.69 1581.67 1303.53 1579.82C1301.38 1577.97 1298.7 1577.05 1295.49 1577.05C1292.25 1577.05 1289.52 1577.97 1287.31 1579.82C1285.13 1581.67 1283.47 1584.18 1282.35 1587.36C1281.26 1590.55 1280.72 1594.17 1280.72 1598.23C1280.72 1602.29 1281.26 1605.91 1282.35 1609.09C1283.47 1612.27 1285.13 1614.79 1287.31 1616.64C1289.52 1618.45 1292.25 1619.36 1295.49 1619.36ZM1361.72 1592.64V1633H1342.35V1563.18H1360.81V1575.5H1361.62C1363.17 1571.44 1365.76 1568.23 1369.4 1565.86C1373.03 1563.47 1377.44 1562.27 1382.62 1562.27C1387.47 1562.27 1391.7 1563.33 1395.31 1565.45C1398.91 1567.58 1401.72 1570.61 1403.72 1574.55C1405.72 1578.45 1406.72 1583.12 1406.72 1588.55V1633H1387.35V1592C1387.38 1587.73 1386.29 1584.39 1384.08 1582C1381.87 1579.58 1378.82 1578.36 1374.94 1578.36C1372.34 1578.36 1370.03 1578.92 1368.03 1580.05C1366.06 1581.17 1364.52 1582.8 1363.4 1584.95C1362.31 1587.08 1361.75 1589.64 1361.72 1592.64ZM1480.07 1583.09L1462.34 1584.18C1462.04 1582.67 1461.39 1581.3 1460.39 1580.09C1459.39 1578.85 1458.07 1577.86 1456.43 1577.14C1454.83 1576.38 1452.9 1576 1450.66 1576C1447.66 1576 1445.13 1576.64 1443.07 1577.91C1441.01 1579.15 1439.98 1580.82 1439.98 1582.91C1439.98 1584.58 1440.64 1585.98 1441.98 1587.14C1443.31 1588.29 1445.6 1589.21 1448.84 1589.91L1461.48 1592.45C1468.27 1593.85 1473.33 1596.09 1476.66 1599.18C1479.99 1602.27 1481.66 1606.33 1481.66 1611.36C1481.66 1615.94 1480.31 1619.95 1477.61 1623.41C1474.95 1626.86 1471.28 1629.56 1466.61 1631.5C1461.98 1633.41 1456.63 1634.36 1450.57 1634.36C1441.33 1634.36 1433.96 1632.44 1428.48 1628.59C1423.02 1624.71 1419.83 1619.44 1418.89 1612.77L1437.93 1611.77C1438.51 1614.59 1439.9 1616.74 1442.11 1618.23C1444.33 1619.68 1447.16 1620.41 1450.61 1620.41C1454.01 1620.41 1456.73 1619.76 1458.8 1618.45C1460.89 1617.12 1461.95 1615.41 1461.98 1613.32C1461.95 1611.56 1461.2 1610.12 1459.75 1609C1458.3 1607.85 1456.05 1606.97 1453.02 1606.36L1440.93 1603.95C1434.11 1602.59 1429.04 1600.23 1425.7 1596.86C1422.4 1593.5 1420.75 1589.21 1420.75 1584C1420.75 1579.52 1421.96 1575.65 1424.39 1572.41C1426.84 1569.17 1430.28 1566.67 1434.7 1564.91C1439.16 1563.15 1444.37 1562.27 1450.34 1562.27C1459.16 1562.27 1466.1 1564.14 1471.16 1567.86C1476.25 1571.59 1479.22 1576.67 1480.07 1583.09Z" fill="black"/>
<rect x="2.89778" width="1349" height="1565.5" rx="18.5" transform="matrix(0.965926 -0.258819 0.965926 0.258819 714.099 1227.75)" fill="white" stroke="black" stroke-width="3"/>
<path d="M1630.23 1056.64L1694.54 1148.25L1698.18 1153.43L1704.42 1152.35L1874.09 1123.12L1772.57 1208.69L1763.73 1216.13L1772.37 1223.81L1818.91 1265.16L1660.28 1231.88L1657.02 1231.2L1654.01 1232.6L1502.21 1303.27L1546.25 1221.05L1552.56 1209.29L1539.49 1206.54L1403.89 1178.1L1621.4 1152.43L1630.23 1151.39V1142.5V1056.64Z" stroke="#4C89FF" stroke-width="20"/>
<path d="M2014.58 1317.8L1852.37 1274.34L1901.33 1261.22C1913.36 1257.99 1925.31 1255.59 1937.18 1254C1949.22 1252.36 1961.25 1251.83 1973.28 1252.41C1985.32 1252.89 1997.27 1254.73 2009.14 1257.91C2020.51 1260.95 2027.36 1264.16 2029.66 1267.51C2032.14 1270.83 2030.65 1274.18 2025.21 1277.58C2019.77 1280.99 2011.12 1284.28 1999.25 1287.46L1970.81 1295.08L2035.1 1312.3L2014.58 1317.8ZM1954 1290.57L1979.96 1283.61C1994.14 1279.82 2001.97 1276.3 2003.45 1273.08C2004.94 1269.77 1999.91 1266.56 1988.37 1263.47C1976.66 1260.34 1965.12 1259.1 1953.75 1259.76C1942.21 1260.38 1929.43 1262.57 1915.42 1266.32L1889.46 1273.28L1954 1290.57ZM2159.14 1279.07L1996.93 1235.6L2036.98 1224.87C2061.38 1218.33 2087.02 1215.22 2113.89 1215.53C2140.59 1215.79 2166.81 1219.37 2192.52 1226.26C2218.4 1233.2 2232.09 1240.31 2233.57 1247.6C2235.22 1254.84 2224.09 1261.66 2200.19 1268.07L2159.14 1279.07ZM2162.85 1269.06L2180.9 1264.23C2199.53 1259.23 2207.69 1254 2205.38 1248.52C2203.07 1242.96 2191.7 1237.44 2171.26 1231.96C2150.81 1226.48 2130.54 1223.52 2110.43 1223.08C2090.31 1222.55 2070.94 1224.78 2052.32 1229.77L2034.26 1234.61L2162.85 1269.06ZM2318.78 1236.29L2156.57 1192.83L2256.22 1166.12L2273.53 1170.76L2194.65 1191.9L2249.55 1206.61L2316.31 1188.72L2333.62 1193.36L2266.86 1211.25L2339.56 1230.73L2318.78 1236.29Z" fill="black"/>
<path d="M3616.06 1301V1217.03H3641.4C3647.63 1217.03 3653.05 1217.8 3657.66 1219.34C3662.35 1220.87 3665.98 1223.47 3668.54 1227.14C3671.18 1230.73 3672.5 1235.59 3672.5 1241.74C3672.5 1247.62 3671.18 1252.49 3668.54 1256.33C3665.98 1260.17 3662.35 1263.03 3657.66 1264.9C3652.96 1266.78 3647.54 1267.72 3641.4 1267.72H3626.68V1301H3616.06ZM3626.68 1259.02H3640.12C3647.46 1259.02 3652.88 1257.65 3656.38 1254.92C3659.96 1252.1 3661.75 1247.71 3661.75 1241.74C3661.75 1235.68 3659.96 1231.5 3656.38 1229.19C3652.79 1226.8 3647.37 1225.61 3640.12 1225.61H3626.68V1259.02ZM3690.89 1301V1217.03H3711.62C3724.25 1217.03 3733.89 1220.66 3740.55 1227.91C3747.21 1235.08 3750.53 1245.32 3750.53 1258.63C3750.53 1272.03 3747.21 1282.44 3740.55 1289.86C3733.98 1297.29 3724.51 1301 3712.13 1301H3690.89ZM3701.51 1292.3H3710.85C3720.5 1292.3 3727.66 1289.35 3732.36 1283.46C3737.14 1277.49 3739.53 1269.21 3739.53 1258.63C3739.53 1248.05 3737.14 1239.94 3732.36 1234.31C3727.66 1228.59 3720.5 1225.74 3710.85 1225.74H3701.51V1292.3ZM3773.52 1301V1217.03H3825.11V1225.99H3784.28V1254.41H3818.84V1263.37H3784.28V1301H3773.52ZM3865.51 1301L3838.75 1217.03H3850.02L3863.59 1262.34C3865.04 1267.29 3866.36 1271.94 3867.55 1276.3C3868.75 1280.56 3870.11 1285.17 3871.65 1290.12H3872.16C3873.7 1285.17 3875.06 1280.56 3876.26 1276.3C3877.54 1271.94 3878.86 1267.29 3880.23 1262.34L3893.67 1217.03H3904.55L3877.92 1301H3865.51ZM3950.45 1301V1247.37H3921.52V1238.79H3960.94V1301H3950.45ZM3954.54 1225.74C3952.15 1225.74 3950.15 1225.01 3948.53 1223.56C3946.91 1222.02 3946.1 1220.02 3946.1 1217.54C3946.1 1215.07 3946.91 1213.11 3948.53 1211.66C3950.15 1210.12 3952.15 1209.35 3954.54 1209.35C3956.93 1209.35 3958.94 1210.12 3960.56 1211.66C3962.18 1213.11 3962.99 1215.07 3962.99 1217.54C3962.99 1220.02 3962.18 1222.02 3960.56 1223.56C3958.94 1225.01 3956.93 1225.74 3954.54 1225.74ZM4027.45 1245.58C4022.33 1245.58 4017.77 1247.24 4013.76 1250.57C4009.75 1253.81 4007.27 1258.5 4006.33 1264.65H4046.01C4045.59 1258.25 4043.71 1253.47 4040.38 1250.31C4037.05 1247.15 4032.74 1245.58 4027.45 1245.58ZM4028.99 1302.54C4022.76 1302.54 4017.09 1301.26 4011.97 1298.7C4006.93 1296.14 4002.92 1292.42 3999.93 1287.56C3996.95 1282.61 3995.45 1276.68 3995.45 1269.77C3995.45 1263.03 3996.95 1257.22 3999.93 1252.36C4002.92 1247.5 4006.8 1243.78 4011.58 1241.22C4016.45 1238.58 4021.65 1237.26 4027.2 1237.26C4036.16 1237.26 4043.11 1239.94 4048.06 1245.32C4053.1 1250.61 4055.61 1257.65 4055.61 1266.44C4055.61 1267.63 4055.57 1268.79 4055.49 1269.9C4055.4 1271.01 4055.27 1271.99 4055.1 1272.84H4006.08C4006.76 1279.84 4009.32 1285.13 4013.76 1288.71C4018.28 1292.3 4023.78 1294.09 4030.27 1294.09C4034.02 1294.09 4037.4 1293.58 4040.38 1292.55C4043.45 1291.44 4046.4 1289.99 4049.21 1288.2L4053.05 1295.11C4049.98 1297.16 4046.44 1298.91 4042.43 1300.36C4038.5 1301.81 4034.02 1302.54 4028.99 1302.54ZM4078.09 1301L4064.52 1238.79H4075.02L4082.44 1274.89C4083.04 1277.79 4083.55 1280.65 4083.98 1283.46C4084.49 1286.19 4084.92 1289.05 4085.26 1292.04H4085.77C4086.2 1289.05 4086.71 1286.19 4087.31 1283.46C4087.99 1280.65 4088.67 1277.79 4089.36 1274.89L4097.04 1242.63H4107.53L4114.96 1274.89C4115.64 1277.79 4116.36 1280.65 4117.13 1283.46C4117.9 1286.19 4118.45 1289.05 4118.8 1292.04H4119.31C4119.82 1289.05 4120.25 1286.19 4120.59 1283.46C4121.01 1280.65 4121.53 1277.79 4122.12 1274.89L4129.55 1238.79H4139.28L4125.96 1301H4112.4L4105.23 1271.3C4104.2 1266.95 4103.18 1260.81 4102.16 1252.87H4101.64C4100.62 1260.81 4099.6 1266.95 4098.57 1271.3L4091.66 1301H4078.09Z" fill="black"/>
<rect x="2.89778" width="1349" height="1565.5" rx="18.5" transform="matrix(0.965926 -0.258819 0.965926 0.258819 714.099 641.674)" fill="white" stroke="black" stroke-width="3"/>
<path d="M1630.23 470.645L1694.54 562.246L1698.18 567.43L1704.42 566.355L1874.09 537.116L1772.57 622.685L1763.73 630.132L1772.37 637.806L1818.91 679.157L1660.28 645.882L1657.02 645.199L1654.01 646.603L1502.21 717.269L1546.25 635.053L1552.56 623.285L1539.49 620.544L1403.89 592.1L1621.4 566.431L1630.23 565.389V556.5V470.645Z" stroke="#4C89FF" stroke-width="20"/>
<path d="M3616.06 715V631.032H3641.4C3647.63 631.032 3653.05 631.8 3657.66 633.336C3662.35 634.872 3665.98 637.475 3668.54 641.144C3671.18 644.728 3672.5 649.592 3672.5 655.736C3672.5 661.624 3671.18 666.488 3668.54 670.328C3665.98 674.168 3662.35 677.027 3657.66 678.904C3652.96 680.781 3647.54 681.72 3641.4 681.72H3626.68V715H3616.06ZM3626.68 673.016H3640.12C3647.46 673.016 3652.88 671.651 3656.38 668.92C3659.96 666.104 3661.75 661.709 3661.75 655.736C3661.75 649.677 3659.96 645.496 3656.38 643.192C3652.79 640.803 3647.37 639.608 3640.12 639.608H3626.68V673.016ZM3692.29 715V631.032H3703.05V673.144H3703.43L3738.76 631.032H3750.92L3724.29 662.904L3753.99 715H3741.96L3717.51 670.968L3703.05 688.248V715H3692.29ZM3801.43 716.536C3794.52 716.536 3788.29 714.829 3782.74 711.416C3777.28 707.917 3772.93 702.925 3769.68 696.44C3766.44 689.955 3764.82 682.147 3764.82 673.016C3764.82 663.971 3766.44 656.205 3769.68 649.72C3772.93 643.235 3777.36 638.243 3783 634.744C3788.71 631.245 3795.2 629.496 3802.45 629.496C3807.49 629.496 3811.97 630.52 3815.89 632.568C3819.82 634.616 3822.97 637.005 3825.36 639.736L3819.35 646.52C3817.21 644.216 3814.74 642.381 3811.92 641.016C3809.11 639.565 3805.95 638.84 3802.45 638.84C3797.08 638.84 3792.38 640.248 3788.37 643.064C3784.45 645.795 3781.37 649.677 3779.16 654.712C3776.94 659.747 3775.83 665.763 3775.83 672.76C3775.83 679.757 3776.94 685.859 3779.16 691.064C3781.37 696.184 3784.45 700.152 3788.37 702.968C3792.38 705.784 3797.08 707.192 3802.45 707.192C3806.29 707.192 3809.75 706.381 3812.82 704.76C3815.89 703.139 3818.75 700.835 3821.4 697.848L3827.41 704.376C3824.08 708.216 3820.29 711.203 3816.02 713.336C3811.84 715.469 3806.97 716.536 3801.43 716.536ZM3864.74 716.536C3860.9 716.536 3857.36 715.853 3854.11 714.488C3850.96 713.037 3848.4 710.989 3846.43 708.344C3844.56 705.699 3843.62 702.541 3843.62 698.872C3843.62 694.179 3845.11 690.296 3848.1 687.224C3851.17 684.067 3856.03 681.549 3862.69 679.672C3869.35 677.795 3878.01 676.429 3888.67 675.576C3888.59 672.76 3887.99 670.2 3886.88 667.896C3885.86 665.507 3884.15 663.587 3881.76 662.136C3879.37 660.685 3876.17 659.96 3872.16 659.96C3868.15 659.96 3864.23 660.771 3860.39 662.392C3856.63 663.928 3853.3 665.592 3850.4 667.384L3846.31 660.216C3849.46 658.168 3853.47 656.163 3858.34 654.2C3863.29 652.237 3868.49 651.256 3873.95 651.256C3882.49 651.256 3888.8 653.603 3892.9 658.296C3897.08 662.904 3899.17 669.091 3899.17 676.856V715H3890.59L3889.7 706.552H3889.31C3885.9 709.197 3882.06 711.544 3877.79 713.592C3873.53 715.555 3869.18 716.536 3864.74 716.536ZM3867.55 708.088C3871.05 708.088 3874.55 707.277 3878.05 705.656C3881.63 704.035 3885.18 701.773 3888.67 698.872V682.488C3879.8 683.171 3872.8 684.237 3867.68 685.688C3862.65 687.053 3859.06 688.803 3856.93 690.936C3854.88 692.984 3853.86 695.373 3853.86 698.104C3853.86 701.603 3855.22 704.163 3857.95 705.784C3860.77 707.32 3863.97 708.088 3867.55 708.088ZM3921.9 715V652.792H3930.61L3931.5 663.416H3932.02C3935.26 659.917 3938.76 657.016 3942.51 654.712C3946.27 652.408 3950.58 651.256 3955.44 651.256C3962.78 651.256 3968.2 653.389 3971.7 657.656C3975.19 661.923 3976.94 668.152 3976.94 676.344V715H3966.45V677.752C3966.45 671.864 3965.34 667.512 3963.12 664.696C3960.9 661.795 3957.23 660.344 3952.11 660.344C3948.44 660.344 3945.16 661.283 3942.26 663.16C3939.35 665.037 3936.07 667.853 3932.4 671.608V715H3921.9ZM4019.52 715L3993.28 652.792H4003.9L4018.24 688.12C4019.52 691.277 4020.71 694.392 4021.82 697.464C4023.02 700.451 4024.17 703.437 4025.28 706.424H4025.79C4026.9 703.437 4027.97 700.451 4028.99 697.464C4030.1 694.392 4031.29 691.277 4032.57 688.12L4046.91 652.792H4057.02L4031.29 715H4019.52ZM4094.99 716.536C4091.15 716.536 4087.61 715.853 4084.36 714.488C4081.21 713.037 4078.65 710.989 4076.68 708.344C4074.81 705.699 4073.87 702.541 4073.87 698.872C4073.87 694.179 4075.36 690.296 4078.35 687.224C4081.42 684.067 4086.28 681.549 4092.94 679.672C4099.6 677.795 4108.26 676.429 4118.92 675.576C4118.84 672.76 4118.24 670.2 4117.13 667.896C4116.11 665.507 4114.4 663.587 4112.01 662.136C4109.62 660.685 4106.42 659.96 4102.41 659.96C4098.4 659.96 4094.48 660.771 4090.64 662.392C4086.88 663.928 4083.55 665.592 4080.65 667.384L4076.56 660.216C4079.71 658.168 4083.72 656.163 4088.59 654.2C4093.54 652.237 4098.74 651.256 4104.2 651.256C4112.74 651.256 4119.05 653.603 4123.15 658.296C4127.33 662.904 4129.42 669.091 4129.42 676.856V715H4120.84L4119.95 706.552H4119.56C4116.15 709.197 4112.31 711.544 4108.04 713.592C4103.78 715.555 4099.43 716.536 4094.99 716.536ZM4097.8 708.088C4101.3 708.088 4104.8 707.277 4108.3 705.656C4111.88 704.035 4115.43 701.773 4118.92 698.872V682.488C4110.05 683.171 4103.05 684.237 4097.93 685.688C4092.9 687.053 4089.31 688.803 4087.18 690.936C4085.13 692.984 4084.11 695.373 4084.11 698.104C4084.11 701.603 4085.47 704.163 4088.2 705.784C4091.02 707.32 4094.22 708.088 4097.8 708.088ZM4179.93 716.536C4173.87 716.536 4168.2 715.597 4162.91 713.72C4157.62 711.757 4153.09 709.453 4149.34 706.808L4154.2 699.896C4157.79 702.456 4161.75 704.504 4166.11 706.04C4170.46 707.576 4175.49 708.344 4181.21 708.344C4186.5 708.344 4190.43 707.405 4192.99 705.528C4195.63 703.565 4196.95 701.261 4196.95 698.616C4196.95 696.995 4196.48 695.544 4195.55 694.264C4194.69 692.984 4192.86 691.747 4190.04 690.552C4187.31 689.357 4183.13 688.205 4177.5 687.096C4169.48 685.389 4163.42 683.128 4159.32 680.312C4155.23 677.411 4153.18 673.613 4153.18 668.92C4153.18 663.885 4155.35 659.704 4159.71 656.376C4164.06 652.963 4170.5 651.256 4179.03 651.256C4183.81 651.256 4188.42 652.067 4192.86 653.688C4197.3 655.224 4201.05 657.059 4204.12 659.192L4199 665.976C4196.1 664.013 4192.9 662.435 4189.4 661.24C4185.9 660.045 4182.15 659.448 4178.14 659.448C4172.85 659.448 4169.14 660.344 4167 662.136C4164.87 663.928 4163.8 666.019 4163.8 668.408C4163.8 671.053 4165.21 673.101 4168.03 674.552C4170.93 676.003 4175.54 677.411 4181.85 678.776C4188.76 680.227 4194.05 681.848 4197.72 683.64C4201.48 685.432 4204.04 687.48 4205.4 689.784C4206.85 692.088 4207.58 694.819 4207.58 697.976C4207.58 701.304 4206.51 704.376 4204.38 707.192C4202.24 710.008 4199.13 712.269 4195.03 713.976C4190.94 715.683 4185.9 716.536 4179.93 716.536ZM4249.26 715L4222.5 631.032H4233.77L4247.34 676.344C4248.79 681.293 4250.11 685.944 4251.3 690.296C4252.5 694.563 4253.86 699.171 4255.4 704.12H4255.91C4257.45 699.171 4258.81 694.563 4260.01 690.296C4261.29 685.944 4262.61 681.293 4263.98 676.344L4277.42 631.032H4288.3L4261.67 715H4249.26ZM4334.2 715V661.368H4305.27V652.792H4344.69V715H4334.2ZM4338.29 639.736C4335.9 639.736 4333.9 639.011 4332.28 637.56C4330.66 636.024 4329.85 634.019 4329.85 631.544C4329.85 629.069 4330.66 627.107 4332.28 625.656C4333.9 624.12 4335.9 623.352 4338.29 623.352C4340.68 623.352 4342.69 624.12 4344.31 625.656C4345.93 627.107 4346.74 629.069 4346.74 631.544C4346.74 634.019 4345.93 636.024 4344.31 637.56C4342.69 639.011 4340.68 639.736 4338.29 639.736ZM4411.2 659.576C4406.08 659.576 4401.52 661.24 4397.51 664.568C4393.5 667.811 4391.02 672.504 4390.08 678.648H4429.76C4429.34 672.248 4427.46 667.469 4424.13 664.312C4420.8 661.155 4416.49 659.576 4411.2 659.576ZM4412.74 716.536C4406.51 716.536 4400.84 715.256 4395.72 712.696C4390.68 710.136 4386.67 706.424 4383.68 701.56C4380.7 696.611 4379.2 690.68 4379.2 683.768C4379.2 677.027 4380.7 671.224 4383.68 666.36C4386.67 661.496 4390.55 657.784 4395.33 655.224C4400.2 652.579 4405.4 651.256 4410.95 651.256C4419.91 651.256 4426.86 653.944 4431.81 659.32C4436.85 664.611 4439.36 671.651 4439.36 680.44C4439.36 681.635 4439.32 682.787 4439.24 683.896C4439.15 685.005 4439.02 685.987 4438.85 686.84H4389.83C4390.51 693.837 4393.07 699.128 4397.51 702.712C4402.03 706.296 4407.53 708.088 4414.02 708.088C4417.77 708.088 4421.15 707.576 4424.13 706.552C4427.2 705.443 4430.15 703.992 4432.96 702.2L4436.8 709.112C4433.73 711.16 4430.19 712.909 4426.18 714.36C4422.25 715.811 4417.77 716.536 4412.74 716.536ZM4461.84 715L4448.27 652.792H4458.77L4466.19 688.888C4466.79 691.789 4467.3 694.648 4467.73 697.464C4468.24 700.195 4468.67 703.053 4469.01 706.04H4469.52C4469.95 703.053 4470.46 700.195 4471.06 697.464C4471.74 694.648 4472.42 691.789 4473.11 688.888L4480.79 656.632H4491.28L4498.71 688.888C4499.39 691.789 4500.11 694.648 4500.88 697.464C4501.65 700.195 4502.2 703.053 4502.55 706.04H4503.06C4503.57 703.053 4504 700.195 4504.34 697.464C4504.76 694.648 4505.28 691.789 4505.87 688.888L4513.3 652.792H4523.03L4509.71 715H4496.15L4488.98 685.304C4487.95 680.952 4486.93 674.808 4485.91 666.872H4485.39C4484.37 674.808 4483.35 680.952 4482.32 685.304L4475.41 715H4461.84Z" fill="black"/>
<path d="M2017.13 209.25L1740 487L1717 532L1761.99 509L2039.75 231.87L2017.13 209.25ZM2073.69 152.69L2051.07 175.31L2073.69 197.94L2096.31 175.31C2099.31 172.31 2100.99 168.242 2100.99 164C2100.99 159.759 2099.31 155.691 2096.31 152.69C2093.31 149.692 2089.24 148.008 2085 148.008C2080.76 148.008 2076.69 149.692 2073.69 152.69Z" stroke="black" stroke-width="32" stroke-linecap="round" stroke-linejoin="round"/>
</svg>
