<svg width="5238" height="2302" viewBox="0 0 5238 2302" fill="none" xmlns="http://www.w3.org/2000/svg">
<rect width="5238" height="2302" fill="white"/>
<rect x="2.89778" width="1349" height="1565.5" rx="18.5" transform="matrix(0.965926 -0.258819 0.965926 0.258819 714.099 1813.75)" fill="white" stroke="black" stroke-width="3"/>
<path d="M2014.58 1903.8L1852.37 1860.34L1901.33 1847.22C1913.36 1843.99 1925.31 1841.59 1937.18 1840C1949.22 1838.36 1961.25 1837.83 1973.28 1838.41C1985.32 1838.89 1997.27 1840.73 2009.14 1843.91C2020.51 1846.95 2027.36 1850.16 2029.66 1853.51C2032.14 1856.83 2030.65 1860.18 2025.21 1863.58C2019.77 1866.99 2011.12 1870.28 1999.25 1873.46L1970.81 1881.08L2035.1 1898.3L2014.58 1903.8ZM1954 1876.57L1979.96 1869.61C1994.14 1865.82 2001.97 1862.3 2003.45 1859.08C2004.94 1855.77 1999.91 1852.56 1988.37 1849.47C1976.66 1846.34 1965.12 1845.1 1953.75 1845.76C1942.21 1846.38 1929.43 1848.57 1915.42 1852.32L1889.46 1859.28L1954 1876.57ZM2159.14 1865.07L1996.93 1821.6L2036.98 1810.87C2061.38 1804.33 2087.02 1801.22 2113.89 1801.53C2140.59 1801.79 2166.81 1805.37 2192.52 1812.26C2218.4 1819.2 2232.09 1826.31 2233.57 1833.6C2235.22 1840.84 2224.09 1847.66 2200.19 1854.07L2159.14 1865.07ZM2162.85 1855.06L2180.9 1850.23C2199.53 1845.23 2207.69 1840 2205.38 1834.52C2203.07 1828.96 2191.7 1823.44 2171.26 1817.96C2150.81 1812.48 2130.54 1809.52 2110.43 1809.08C2090.31 1808.55 2070.94 1810.78 2052.32 1815.77L2034.26 1820.61L2162.85 1855.06ZM2318.78 1822.29L2156.57 1778.83L2256.22 1752.12L2273.53 1756.76L2194.65 1777.9L2249.55 1792.61L2316.31 1774.72L2333.62 1779.36L2266.86 1797.25L2339.56 1816.73L2318.78 1822.29Z" fill="black"/>
<path d="M3615.8 1887V1803.03H3641.91C3647.63 1803.03 3652.66 1803.8 3657.02 1805.34C3661.45 1806.79 3664.91 1809.26 3667.38 1812.76C3669.94 1816.17 3671.22 1820.78 3671.22 1826.58C3671.22 1832.22 3669.94 1836.87 3667.38 1840.54C3664.91 1844.21 3661.45 1846.98 3657.02 1848.86C3652.66 1850.65 3647.63 1851.54 3641.91 1851.54H3626.42V1887H3615.8ZM3626.42 1842.84H3640.38C3646.95 1842.84 3651.94 1841.52 3655.35 1838.87C3658.85 1836.14 3660.6 1832.05 3660.6 1826.58C3660.6 1821.12 3658.85 1817.28 3655.35 1815.06C3651.94 1812.76 3646.95 1811.61 3640.38 1811.61H3626.42V1842.84ZM3639.74 1848.6L3648.18 1842.97L3673.78 1887H3661.62L3639.74 1848.6ZM3711.24 1888.54C3707.4 1888.54 3703.86 1887.85 3700.61 1886.49C3697.37 1885.04 3694.81 1882.99 3692.93 1880.34C3691.06 1877.7 3690.12 1874.54 3690.12 1870.87C3690.12 1863.87 3693.62 1858.58 3700.61 1855C3707.61 1851.33 3719.13 1848.86 3735.17 1847.58C3735.09 1844.76 3734.49 1842.16 3733.38 1839.77C3732.36 1837.38 3730.65 1835.5 3728.26 1834.14C3725.87 1832.69 3722.67 1831.96 3718.66 1831.96C3716.02 1831.96 3713.37 1832.34 3710.73 1833.11C3708.17 1833.79 3705.69 1834.73 3703.3 1835.93C3701 1837.04 3698.86 1838.19 3696.9 1839.38L3692.81 1832.22C3694.85 1830.85 3697.33 1829.49 3700.23 1828.12C3703.22 1826.67 3706.42 1825.52 3709.83 1824.66C3713.24 1823.73 3716.78 1823.26 3720.45 1823.26C3726.17 1823.26 3730.86 1824.32 3734.53 1826.46C3738.29 1828.59 3741.06 1831.58 3742.85 1835.42C3744.73 1839.17 3745.67 1843.65 3745.67 1848.86V1887H3737.09L3736.2 1878.55H3735.81C3732.4 1881.28 3728.56 1883.63 3724.29 1885.59C3720.03 1887.55 3715.68 1888.54 3711.24 1888.54ZM3714.05 1880.09C3717.64 1880.09 3721.18 1879.28 3724.68 1877.66C3728.18 1876.03 3731.68 1873.77 3735.17 1870.87V1854.49C3726.3 1855.26 3719.3 1856.32 3714.18 1857.69C3709.15 1859.05 3705.56 1860.8 3703.43 1862.94C3701.38 1864.98 3700.36 1867.37 3700.36 1870.1C3700.36 1872.41 3701 1874.33 3702.28 1875.86C3703.56 1877.31 3705.22 1878.38 3707.27 1879.06C3709.4 1879.75 3711.66 1880.09 3714.05 1880.09ZM3771.09 1887L3757.52 1824.79H3768.02L3775.44 1860.89C3776.04 1863.79 3776.55 1866.65 3776.98 1869.46C3777.49 1872.19 3777.92 1875.05 3778.26 1878.04H3778.77C3779.2 1875.05 3779.71 1872.19 3780.31 1869.46C3780.99 1866.65 3781.67 1863.79 3782.36 1860.89L3790.04 1828.63H3800.53L3807.96 1860.89C3808.64 1863.79 3809.36 1866.65 3810.13 1869.46C3810.9 1872.19 3811.45 1875.05 3811.8 1878.04H3812.31C3812.82 1875.05 3813.25 1872.19 3813.59 1869.46C3814.01 1866.65 3814.53 1863.79 3815.12 1860.89L3822.55 1824.79H3832.28L3818.96 1887H3805.4L3798.23 1857.3C3797.72 1855.09 3797.2 1852.44 3796.69 1849.37C3796.18 1846.3 3795.67 1842.8 3795.16 1838.87H3794.64C3794.13 1842.8 3793.62 1846.3 3793.11 1849.37C3792.6 1852.44 3792.08 1855.09 3791.57 1857.3L3784.66 1887H3771.09ZM3923.06 1887V1803.03H3948.4C3954.63 1803.03 3960.05 1803.84 3964.66 1805.46C3969.35 1807 3972.98 1809.56 3975.54 1813.14C3978.18 1816.73 3979.5 1821.59 3979.5 1827.74C3979.5 1833.62 3978.18 1838.49 3975.54 1842.33C3972.98 1846.08 3969.35 1848.94 3964.66 1850.9C3959.96 1852.78 3954.54 1853.72 3948.4 1853.72H3933.68V1887H3923.06ZM3933.68 1845.02H3947.12C3954.46 1845.02 3959.88 1843.61 3963.38 1840.79C3966.96 1837.98 3968.75 1833.62 3968.75 1827.74C3968.75 1821.68 3966.96 1817.5 3963.38 1815.19C3959.79 1812.8 3954.37 1811.61 3947.12 1811.61H3933.68V1845.02ZM3997.89 1887V1803.03H4018.62C4027.07 1803.03 4034.15 1804.65 4039.87 1807.9C4045.67 1811.05 4050.07 1815.75 4053.05 1821.98C4056.04 1828.21 4057.53 1835.76 4057.53 1844.63C4057.53 1853.59 4056.04 1861.23 4053.05 1867.54C4050.15 1873.86 4045.84 1878.68 4040.13 1882.01C4034.41 1885.34 4027.41 1887 4019.13 1887H3997.89ZM4008.51 1878.3H4017.85C4024.25 1878.3 4029.54 1876.97 4033.73 1874.33C4037.99 1871.6 4041.19 1867.76 4043.33 1862.81C4045.46 1857.77 4046.53 1851.71 4046.53 1844.63C4046.53 1837.63 4045.46 1831.66 4043.33 1826.71C4041.19 1821.76 4037.99 1818.05 4033.73 1815.58C4029.54 1813.02 4024.25 1811.74 4017.85 1811.74H4008.51V1878.3ZM4080.52 1887V1803.03H4132.11V1811.99H4091.28V1840.41H4125.84V1849.37H4091.28V1887H4080.52ZM4234.02 1887V1803.03H4285.61V1811.99H4244.78V1840.41H4279.34V1849.37H4244.78V1887H4234.02ZM4334.2 1887V1833.37H4305.27V1824.79H4344.69V1887H4334.2ZM4338.29 1811.74C4335.9 1811.74 4333.9 1811.01 4332.28 1809.56C4330.66 1808.02 4329.85 1806.02 4329.85 1803.54C4329.85 1801.07 4330.66 1799.11 4332.28 1797.66C4333.9 1796.12 4335.9 1795.35 4338.29 1795.35C4340.68 1795.35 4342.69 1796.12 4344.31 1797.66C4345.93 1799.11 4346.74 1801.07 4346.74 1803.54C4346.74 1806.02 4345.93 1808.02 4344.31 1809.56C4342.69 1811.01 4340.68 1811.74 4338.29 1811.74ZM4422.47 1888.54C4415.9 1888.54 4410.86 1886.66 4407.36 1882.9C4403.87 1879.06 4402.12 1873.47 4402.12 1866.14V1804.44H4380.87V1795.86H4412.61V1866.9C4412.61 1871.43 4413.72 1874.71 4415.94 1876.76C4418.16 1878.81 4421.1 1879.83 4424.77 1879.83C4426.56 1879.83 4428.4 1879.62 4430.28 1879.19C4432.15 1878.68 4434.24 1877.91 4436.55 1876.89L4439.24 1884.82C4436.42 1885.85 4433.77 1886.7 4431.3 1887.38C4428.83 1888.15 4425.88 1888.54 4422.47 1888.54ZM4489.49 1888.54C4483.26 1888.54 4477.59 1887.26 4472.47 1884.7C4467.43 1882.14 4463.42 1878.42 4460.43 1873.56C4457.45 1868.61 4455.95 1862.68 4455.95 1855.77C4455.95 1849.03 4457.45 1843.22 4460.43 1838.36C4463.42 1833.5 4467.3 1829.78 4472.08 1827.22C4476.95 1824.58 4482.15 1823.26 4487.7 1823.26C4493.67 1823.26 4498.75 1824.49 4502.93 1826.97C4507.2 1829.36 4510.44 1832.73 4512.66 1837.08C4514.96 1841.43 4516.11 1846.55 4516.11 1852.44C4516.11 1853.63 4516.07 1854.79 4515.99 1855.9C4515.9 1857.01 4515.77 1857.99 4515.6 1858.84H4462.99V1850.65H4509.33L4506.64 1853.59C4506.64 1846.25 4504.94 1840.75 4501.52 1837.08C4498.19 1833.41 4493.67 1831.58 4487.95 1831.58C4484.11 1831.58 4480.53 1832.51 4477.2 1834.39C4473.96 1836.27 4471.36 1839 4469.39 1842.58C4467.43 1846.17 4466.45 1850.56 4466.45 1855.77C4466.45 1861.14 4467.52 1865.62 4469.65 1869.21C4471.78 1872.79 4474.68 1875.52 4478.35 1877.4C4482.02 1879.19 4486.16 1880.09 4490.77 1880.09C4494.52 1880.09 4497.9 1879.58 4500.88 1878.55C4503.95 1877.44 4506.9 1875.99 4509.71 1874.2L4513.55 1881.11C4510.48 1883.16 4506.94 1884.91 4502.93 1886.36C4499 1887.81 4494.52 1888.54 4489.49 1888.54Z" fill="black"/>
<rect x="2.89778" width="1349" height="1565.5" rx="18.5" transform="matrix(0.965926 -0.258819 0.965926 0.258819 714.099 1227.75)" fill="white" stroke="black" stroke-width="3"/>
<path d="M1630.23 1056.64L1694.54 1148.25L1698.18 1153.43L1704.42 1152.35L1874.09 1123.12L1772.57 1208.69L1763.73 1216.13L1772.37 1223.81L1818.91 1265.16L1660.28 1231.88L1657.02 1231.2L1654.01 1232.6L1502.21 1303.27L1546.25 1221.05L1552.56 1209.29L1539.49 1206.54L1403.89 1178.1L1621.4 1152.43L1630.23 1151.39V1142.5V1056.64Z" stroke="#4C89FF" stroke-width="20"/>
<path d="M2014.58 1317.8L1852.37 1274.34L1901.33 1261.22C1913.36 1257.99 1925.31 1255.59 1937.18 1254C1949.22 1252.36 1961.25 1251.83 1973.28 1252.41C1985.32 1252.89 1997.27 1254.73 2009.14 1257.91C2020.51 1260.95 2027.36 1264.16 2029.66 1267.51C2032.14 1270.83 2030.65 1274.18 2025.21 1277.58C2019.77 1280.99 2011.12 1284.28 1999.25 1287.46L1970.81 1295.08L2035.1 1312.3L2014.58 1317.8ZM1954 1290.57L1979.96 1283.61C1994.14 1279.82 2001.97 1276.3 2003.45 1273.08C2004.94 1269.77 1999.91 1266.56 1988.37 1263.47C1976.66 1260.34 1965.12 1259.1 1953.75 1259.76C1942.21 1260.38 1929.43 1262.57 1915.42 1266.32L1889.46 1273.28L1954 1290.57ZM2159.14 1279.07L1996.93 1235.6L2036.98 1224.87C2061.38 1218.33 2087.02 1215.22 2113.89 1215.53C2140.59 1215.79 2166.81 1219.37 2192.52 1226.26C2218.4 1233.2 2232.09 1240.31 2233.57 1247.6C2235.22 1254.84 2224.09 1261.66 2200.19 1268.07L2159.14 1279.07ZM2162.85 1269.06L2180.9 1264.23C2199.53 1259.23 2207.69 1254 2205.38 1248.52C2203.07 1242.96 2191.7 1237.44 2171.26 1231.96C2150.81 1226.48 2130.54 1223.52 2110.43 1223.08C2090.31 1222.55 2070.94 1224.78 2052.32 1229.77L2034.26 1234.61L2162.85 1269.06ZM2318.78 1236.29L2156.57 1192.83L2256.22 1166.12L2273.53 1170.76L2194.65 1191.9L2249.55 1206.61L2316.31 1188.72L2333.62 1193.36L2266.86 1211.25L2339.56 1230.73L2318.78 1236.29Z" fill="black"/>
<path d="M3616.06 1301V1217.03H3641.4C3647.63 1217.03 3653.05 1217.84 3657.66 1219.46C3662.35 1221 3665.98 1223.56 3668.54 1227.14C3671.18 1230.73 3672.5 1235.59 3672.5 1241.74C3672.5 1247.62 3671.18 1252.49 3668.54 1256.33C3665.98 1260.08 3662.35 1262.94 3657.66 1264.9C3652.96 1266.78 3647.54 1267.72 3641.4 1267.72H3626.68V1301H3616.06ZM3626.68 1259.02H3640.12C3647.46 1259.02 3652.88 1257.61 3656.38 1254.79C3659.96 1251.98 3661.75 1247.62 3661.75 1241.74C3661.75 1235.68 3659.96 1231.5 3656.38 1229.19C3652.79 1226.8 3647.37 1225.61 3640.12 1225.61H3626.68V1259.02ZM3690.89 1301V1217.03H3711.62C3720.07 1217.03 3727.15 1218.65 3732.87 1221.9C3738.67 1225.05 3743.07 1229.75 3746.05 1235.98C3749.04 1242.21 3750.53 1249.76 3750.53 1258.63C3750.53 1267.59 3749.04 1275.23 3746.05 1281.54C3743.15 1287.86 3738.84 1292.68 3733.13 1296.01C3727.41 1299.34 3720.41 1301 3712.13 1301H3690.89ZM3701.51 1292.3H3710.85C3717.25 1292.3 3722.54 1290.97 3726.73 1288.33C3730.99 1285.6 3734.19 1281.76 3736.33 1276.81C3738.46 1271.77 3739.53 1265.71 3739.53 1258.63C3739.53 1251.63 3738.46 1245.66 3736.33 1240.71C3734.19 1235.76 3730.99 1232.05 3726.73 1229.58C3722.54 1227.02 3717.25 1225.74 3710.85 1225.74H3701.51V1292.3ZM3773.52 1301V1217.03H3825.11V1225.99H3784.28V1254.41H3818.84V1263.37H3784.28V1301H3773.52ZM3865.51 1301L3838.75 1217.03H3850.02L3863.59 1262.34C3865.12 1267.29 3866.44 1271.94 3867.55 1276.3C3868.75 1280.56 3870.11 1285.17 3871.65 1290.12H3872.16C3873.78 1285.17 3875.15 1280.56 3876.26 1276.3C3877.45 1271.94 3878.78 1267.29 3880.23 1262.34L3893.67 1217.03H3904.55L3877.92 1301H3865.51ZM3950.45 1301V1247.37H3921.52V1238.79H3960.94V1301H3950.45ZM3954.54 1225.74C3952.15 1225.74 3950.15 1225.01 3948.53 1223.56C3946.91 1222.02 3946.1 1220.02 3946.1 1217.54C3946.1 1215.07 3946.91 1213.11 3948.53 1211.66C3950.15 1210.12 3952.15 1209.35 3954.54 1209.35C3956.93 1209.35 3958.94 1210.12 3960.56 1211.66C3962.18 1213.11 3962.99 1215.07 3962.99 1217.54C3962.99 1220.02 3962.18 1222.02 3960.56 1223.56C3958.94 1225.01 3956.93 1225.74 3954.54 1225.74ZM4028.99 1302.54C4022.76 1302.54 4017.09 1301.26 4011.97 1298.7C4006.93 1296.14 4002.92 1292.42 3999.93 1287.56C3996.95 1282.61 3995.45 1276.68 3995.45 1269.77C3995.45 1263.03 3996.95 1257.22 3999.93 1252.36C4002.92 1247.5 4006.8 1243.78 4011.58 1241.22C4016.45 1238.58 4021.65 1237.26 4027.2 1237.26C4033.17 1237.26 4038.25 1238.49 4042.43 1240.97C4046.7 1243.36 4049.94 1246.73 4052.16 1251.08C4054.46 1255.43 4055.61 1260.55 4055.61 1266.44C4055.61 1267.63 4055.57 1268.79 4055.49 1269.9C4055.4 1271.01 4055.27 1271.99 4055.1 1272.84H4002.49V1264.65H4048.83L4046.14 1267.59C4046.14 1260.25 4044.44 1254.75 4041.02 1251.08C4037.69 1247.41 4033.17 1245.58 4027.45 1245.58C4023.61 1245.58 4020.03 1246.51 4016.7 1248.39C4013.46 1250.27 4010.86 1253 4008.89 1256.58C4006.93 1260.17 4005.95 1264.56 4005.95 1269.77C4005.95 1275.14 4007.02 1279.62 4009.15 1283.21C4011.28 1286.79 4014.18 1289.52 4017.85 1291.4C4021.52 1293.19 4025.66 1294.09 4030.27 1294.09C4034.02 1294.09 4037.4 1293.58 4040.38 1292.55C4043.45 1291.44 4046.4 1289.99 4049.21 1288.2L4053.05 1295.11C4049.98 1297.16 4046.44 1298.91 4042.43 1300.36C4038.5 1301.81 4034.02 1302.54 4028.99 1302.54ZM4078.09 1301L4064.52 1238.79H4075.02L4082.44 1274.89C4083.04 1277.79 4083.55 1280.65 4083.98 1283.46C4084.49 1286.19 4084.92 1289.05 4085.26 1292.04H4085.77C4086.2 1289.05 4086.71 1286.19 4087.31 1283.46C4087.99 1280.65 4088.67 1277.79 4089.36 1274.89L4097.04 1242.63H4107.53L4114.96 1274.89C4115.64 1277.79 4116.36 1280.65 4117.13 1283.46C4117.9 1286.19 4118.45 1289.05 4118.8 1292.04H4119.31C4119.82 1289.05 4120.25 1286.19 4120.59 1283.46C4121.01 1280.65 4121.53 1277.79 4122.12 1274.89L4129.55 1238.79H4139.28L4125.96 1301H4112.4L4105.23 1271.3C4104.72 1269.09 4104.2 1266.44 4103.69 1263.37C4103.18 1260.3 4102.67 1256.8 4102.16 1252.87H4101.64C4101.13 1256.8 4100.62 1260.3 4100.11 1263.37C4099.6 1266.44 4099.08 1269.09 4098.57 1271.3L4091.66 1301H4078.09Z" fill="black"/>
<path d="M1592.93 1206.07C1596.83 1209.98 1603.17 1209.98 1607.07 1206.07L1670.71 1142.43C1674.62 1138.53 1674.62 1132.19 1670.71 1128.29C1666.81 1124.38 1660.47 1124.38 1656.57 1128.29L1600 1184.86L1543.43 1128.29C1539.53 1124.38 1533.19 1124.38 1529.29 1128.29C1525.38 1132.19 1525.38 1138.53 1529.29 1142.43L1592.93 1206.07ZM1590 739V1199H1610V739H1590Z" fill="black"/>
<path d="M299.136 1020H278.045L310.182 926.909H335.545L367.636 1020H346.545L323.227 948.182H322.5L299.136 1020ZM297.818 983.409H347.636V998.773H297.818V983.409ZM397.841 979.636V1020H378.477V950.182H396.932V962.5H397.75C399.295 958.439 401.886 955.227 405.523 952.864C409.159 950.47 413.568 949.273 418.75 949.273C423.598 949.273 427.826 950.333 431.432 952.455C435.038 954.576 437.841 957.606 439.841 961.545C441.841 965.455 442.841 970.121 442.841 975.545V1020H423.477V979C423.508 974.727 422.417 971.394 420.205 969C417.992 966.576 414.947 965.364 411.068 965.364C408.462 965.364 406.159 965.924 404.159 967.045C402.189 968.167 400.644 969.803 399.523 971.955C398.432 974.076 397.871 976.636 397.841 979.636ZM477.466 979.636V1020H458.102V950.182H476.557V962.5H477.375C478.92 958.439 481.511 955.227 485.148 952.864C488.784 950.47 493.193 949.273 498.375 949.273C503.223 949.273 507.451 950.333 511.057 952.455C514.663 954.576 517.466 957.606 519.466 961.545C521.466 965.455 522.466 970.121 522.466 975.545V1020H503.102V979C503.133 974.727 502.042 971.394 499.83 969C497.617 966.576 494.572 965.364 490.693 965.364C488.087 965.364 485.784 965.924 483.784 967.045C481.814 968.167 480.269 969.803 479.148 971.955C478.057 974.076 477.496 976.636 477.466 979.636ZM569.273 1021.36C562.212 1021.36 556.106 1019.86 550.955 1016.86C545.833 1013.83 541.879 1009.62 539.091 1004.23C536.303 998.803 534.909 992.515 534.909 985.364C534.909 978.152 536.303 971.848 539.091 966.455C541.879 961.03 545.833 956.818 550.955 953.818C556.106 950.788 562.212 949.273 569.273 949.273C576.333 949.273 582.424 950.788 587.545 953.818C592.697 956.818 596.667 961.03 599.455 966.455C602.242 971.848 603.636 978.152 603.636 985.364C603.636 992.515 602.242 998.803 599.455 1004.23C596.667 1009.62 592.697 1013.83 587.545 1016.86C582.424 1019.86 576.333 1021.36 569.273 1021.36ZM569.364 1006.36C572.576 1006.36 575.258 1005.45 577.409 1003.64C579.561 1001.79 581.182 999.273 582.273 996.091C583.394 992.909 583.955 989.288 583.955 985.227C583.955 981.167 583.394 977.545 582.273 974.364C581.182 971.182 579.561 968.667 577.409 966.818C575.258 964.97 572.576 964.045 569.364 964.045C566.121 964.045 563.394 964.97 561.182 966.818C559 968.667 557.348 971.182 556.227 974.364C555.136 977.545 554.591 981.167 554.591 985.227C554.591 989.288 555.136 992.909 556.227 996.091C557.348 999.273 559 1001.79 561.182 1003.64C563.394 1005.45 566.121 1006.36 569.364 1006.36ZM653.364 950.182V964.727H611.318V950.182H653.364ZM620.864 933.455H640.227V998.545C640.227 1000.33 640.5 1001.73 641.045 1002.73C641.591 1003.7 642.348 1004.38 643.318 1004.77C644.318 1005.17 645.47 1005.36 646.773 1005.36C647.682 1005.36 648.591 1005.29 649.5 1005.14C650.409 1004.95 651.106 1004.82 651.591 1004.73L654.636 1019.14C653.667 1019.44 652.303 1019.79 650.545 1020.18C648.788 1020.61 646.652 1020.86 644.136 1020.95C639.47 1021.14 635.379 1020.52 631.864 1019.09C628.379 1017.67 625.667 1015.45 623.727 1012.45C621.788 1009.45 620.833 1005.67 620.864 1001.09V933.455ZM685.886 1021.32C681.432 1021.32 677.462 1020.55 673.977 1019C670.492 1017.42 667.735 1015.11 665.705 1012.05C663.705 1008.95 662.705 1005.11 662.705 1000.5C662.705 996.621 663.417 993.364 664.841 990.727C666.265 988.091 668.205 985.97 670.659 984.364C673.114 982.758 675.902 981.545 679.023 980.727C682.174 979.909 685.477 979.333 688.932 979C692.992 978.576 696.265 978.182 698.75 977.818C701.235 977.424 703.038 976.848 704.159 976.091C705.28 975.333 705.841 974.212 705.841 972.727V972.455C705.841 969.576 704.932 967.348 703.114 965.773C701.326 964.197 698.78 963.409 695.477 963.409C691.992 963.409 689.22 964.182 687.159 965.727C685.098 967.242 683.735 969.152 683.068 971.455L665.159 970C666.068 965.758 667.856 962.091 670.523 959C673.189 955.879 676.629 953.485 680.841 951.818C685.083 950.121 689.992 949.273 695.568 949.273C699.447 949.273 703.159 949.727 706.705 950.636C710.28 951.545 713.447 952.955 716.205 954.864C718.992 956.773 721.189 959.227 722.795 962.227C724.402 965.197 725.205 968.758 725.205 972.909V1020H706.841V1010.32H706.295C705.174 1012.5 703.674 1014.42 701.795 1016.09C699.917 1017.73 697.659 1019.02 695.023 1019.95C692.386 1020.86 689.341 1021.32 685.886 1021.32ZM691.432 1007.95C694.28 1007.95 696.795 1007.39 698.977 1006.27C701.159 1005.12 702.871 1003.58 704.114 1001.64C705.356 999.697 705.977 997.5 705.977 995.045V987.636C705.371 988.03 704.538 988.394 703.477 988.727C702.447 989.03 701.28 989.318 699.977 989.591C698.674 989.833 697.371 990.061 696.068 990.273C694.765 990.455 693.583 990.621 692.523 990.773C690.25 991.106 688.265 991.636 686.568 992.364C684.871 993.091 683.553 994.076 682.614 995.318C681.674 996.53 681.205 998.045 681.205 999.864C681.205 1002.5 682.159 1004.52 684.068 1005.91C686.008 1007.27 688.462 1007.95 691.432 1007.95ZM777.364 950.182V964.727H735.318V950.182H777.364ZM744.864 933.455H764.227V998.545C764.227 1000.33 764.5 1001.73 765.045 1002.73C765.591 1003.7 766.348 1004.38 767.318 1004.77C768.318 1005.17 769.47 1005.36 770.773 1005.36C771.682 1005.36 772.591 1005.29 773.5 1005.14C774.409 1004.95 775.106 1004.82 775.591 1004.73L778.636 1019.14C777.667 1019.44 776.303 1019.79 774.545 1020.18C772.788 1020.61 770.652 1020.86 768.136 1020.95C763.47 1021.14 759.379 1020.52 755.864 1019.09C752.379 1017.67 749.667 1015.45 747.727 1012.45C745.788 1009.45 744.833 1005.67 744.864 1001.09V933.455ZM821.045 1021.36C813.864 1021.36 807.682 1019.91 802.5 1017C797.348 1014.06 793.379 1009.91 790.591 1004.55C787.803 999.152 786.409 992.773 786.409 985.409C786.409 978.227 787.803 971.924 790.591 966.5C793.379 961.076 797.303 956.848 802.364 953.818C807.455 950.788 813.424 949.273 820.273 949.273C824.879 949.273 829.167 950.015 833.136 951.5C837.136 952.955 840.621 955.152 843.591 958.091C846.591 961.03 848.924 964.727 850.591 969.182C852.258 973.606 853.091 978.788 853.091 984.727V990.045H794.136V978.045H834.864C834.864 975.258 834.258 972.788 833.045 970.636C831.833 968.485 830.152 966.803 828 965.591C825.879 964.348 823.409 963.727 820.591 963.727C817.652 963.727 815.045 964.409 812.773 965.773C810.53 967.106 808.773 968.909 807.5 971.182C806.227 973.424 805.576 975.924 805.545 978.682V990.091C805.545 993.545 806.182 996.53 807.455 999.045C808.758 1001.56 810.591 1003.5 812.955 1004.86C815.318 1006.23 818.121 1006.91 821.364 1006.91C823.515 1006.91 825.485 1006.61 827.273 1006C829.061 1005.39 830.591 1004.48 831.864 1003.27C833.136 1002.06 834.106 1000.58 834.773 998.818L852.682 1000C851.773 1004.3 849.909 1008.06 847.091 1011.27C844.303 1014.45 840.697 1016.94 836.273 1018.73C831.879 1020.48 826.803 1021.36 821.045 1021.36ZM921.08 1021.14C915.777 1021.14 910.973 1019.77 906.67 1017.05C902.398 1014.29 899.004 1010.24 896.489 1004.91C894.004 999.545 892.761 992.97 892.761 985.182C892.761 977.182 894.049 970.53 896.625 965.227C899.201 959.894 902.625 955.909 906.898 953.273C911.201 950.606 915.913 949.273 921.034 949.273C924.943 949.273 928.201 949.939 930.807 951.273C933.443 952.576 935.564 954.212 937.17 956.182C938.807 958.121 940.049 960.03 940.898 961.909H941.489V926.909H960.807V1020H941.716V1008.82H940.898C939.989 1010.76 938.701 1012.68 937.034 1014.59C935.398 1016.47 933.261 1018.03 930.625 1019.27C928.019 1020.52 924.837 1021.14 921.08 1021.14ZM927.216 1005.73C930.337 1005.73 932.973 1004.88 935.125 1003.18C937.307 1001.45 938.973 999.045 940.125 995.955C941.307 992.864 941.898 989.242 941.898 985.091C941.898 980.939 941.322 977.333 940.17 974.273C939.019 971.212 937.352 968.848 935.17 967.182C932.989 965.515 930.337 964.682 927.216 964.682C924.034 964.682 921.352 965.545 919.17 967.273C916.989 969 915.337 971.394 914.216 974.455C913.095 977.515 912.534 981.061 912.534 985.091C912.534 989.152 913.095 992.742 914.216 995.864C915.367 998.955 917.019 1001.38 919.17 1003.14C921.352 1004.86 924.034 1005.73 927.216 1005.73ZM976.727 1020V950.182H995.5V962.364H996.227C997.5 958.03 999.636 954.758 1002.64 952.545C1005.64 950.303 1009.09 949.182 1013 949.182C1013.97 949.182 1015.02 949.242 1016.14 949.364C1017.26 949.485 1018.24 949.652 1019.09 949.864V967.045C1018.18 966.773 1016.92 966.53 1015.32 966.318C1013.71 966.106 1012.24 966 1010.91 966C1008.06 966 1005.52 966.621 1003.27 967.864C1001.06 969.076 999.303 970.773 998 972.955C996.727 975.136 996.091 977.652 996.091 980.5V1020H976.727ZM1047.01 1021.32C1042.56 1021.32 1038.59 1020.55 1035.1 1019C1031.62 1017.42 1028.86 1015.11 1026.83 1012.05C1024.83 1008.95 1023.83 1005.11 1023.83 1000.5C1023.83 996.621 1024.54 993.364 1025.97 990.727C1027.39 988.091 1029.33 985.97 1031.78 984.364C1034.24 982.758 1037.03 981.545 1040.15 980.727C1043.3 979.909 1046.6 979.333 1050.06 979C1054.12 978.576 1057.39 978.182 1059.88 977.818C1062.36 977.424 1064.16 976.848 1065.28 976.091C1066.41 975.333 1066.97 974.212 1066.97 972.727V972.455C1066.97 969.576 1066.06 967.348 1064.24 965.773C1062.45 964.197 1059.91 963.409 1056.6 963.409C1053.12 963.409 1050.34 964.182 1048.28 965.727C1046.22 967.242 1044.86 969.152 1044.19 971.455L1026.28 970C1027.19 965.758 1028.98 962.091 1031.65 959C1034.31 955.879 1037.75 953.485 1041.97 951.818C1046.21 950.121 1051.12 949.273 1056.69 949.273C1060.57 949.273 1064.28 949.727 1067.83 950.636C1071.41 951.545 1074.57 952.955 1077.33 954.864C1080.12 956.773 1082.31 959.227 1083.92 962.227C1085.53 965.197 1086.33 968.758 1086.33 972.909V1020H1067.97V1010.32H1067.42C1066.3 1012.5 1064.8 1014.42 1062.92 1016.09C1061.04 1017.73 1058.78 1019.02 1056.15 1019.95C1053.51 1020.86 1050.47 1021.32 1047.01 1021.32ZM1052.56 1007.95C1055.41 1007.95 1057.92 1007.39 1060.1 1006.27C1062.28 1005.12 1064 1003.58 1065.24 1001.64C1066.48 999.697 1067.1 997.5 1067.1 995.045V987.636C1066.5 988.03 1065.66 988.394 1064.6 988.727C1063.57 989.03 1062.41 989.318 1061.1 989.591C1059.8 989.833 1058.5 990.061 1057.19 990.273C1055.89 990.455 1054.71 990.621 1053.65 990.773C1051.38 991.106 1049.39 991.636 1047.69 992.364C1046 993.091 1044.68 994.076 1043.74 995.318C1042.8 996.53 1042.33 998.045 1042.33 999.864C1042.33 1002.5 1043.28 1004.52 1045.19 1005.91C1047.13 1007.27 1049.59 1007.95 1052.56 1007.95ZM1115.12 1020L1096.12 950.182H1115.72L1126.53 997.091H1127.17L1138.44 950.182H1157.67L1169.12 996.818H1169.72L1180.35 950.182H1199.9L1180.94 1020H1160.44L1148.44 976.091H1147.58L1135.58 1020H1115.12ZM1210.23 1020V950.182H1229.59V1020H1210.23ZM1219.95 941.182C1217.08 941.182 1214.61 940.227 1212.55 938.318C1210.52 936.379 1209.5 934.061 1209.5 931.364C1209.5 928.697 1210.52 926.409 1212.55 924.5C1214.61 922.561 1217.08 921.591 1219.95 921.591C1222.83 921.591 1225.29 922.561 1227.32 924.5C1229.38 926.409 1230.41 928.697 1230.41 931.364C1230.41 934.061 1229.38 936.379 1227.32 938.318C1225.29 940.227 1222.83 941.182 1219.95 941.182ZM1264.47 979.636V1020H1245.1V950.182H1263.56V962.5H1264.38C1265.92 958.439 1268.51 955.227 1272.15 952.864C1275.78 950.47 1280.19 949.273 1285.38 949.273C1290.22 949.273 1294.45 950.333 1298.06 952.455C1301.66 954.576 1304.47 957.606 1306.47 961.545C1308.47 965.455 1309.47 970.121 1309.47 975.545V1020H1290.1V979C1290.13 974.727 1289.04 971.394 1286.83 969C1284.62 966.576 1281.57 965.364 1277.69 965.364C1275.09 965.364 1272.78 965.924 1270.78 967.045C1268.81 968.167 1267.27 969.803 1266.15 971.955C1265.06 974.076 1264.5 976.636 1264.47 979.636ZM1356.18 1047.64C1349.91 1047.64 1344.53 1046.77 1340.05 1045.05C1335.59 1043.35 1332.05 1041.03 1329.41 1038.09C1326.77 1035.15 1325.06 1031.85 1324.27 1028.18L1342.18 1025.77C1342.73 1027.17 1343.59 1028.47 1344.77 1029.68C1345.95 1030.89 1347.52 1031.86 1349.45 1032.59C1351.42 1033.35 1353.82 1033.73 1356.64 1033.73C1360.85 1033.73 1364.32 1032.7 1367.05 1030.64C1369.8 1028.61 1371.18 1025.2 1371.18 1020.41V1007.64H1370.36C1369.52 1009.58 1368.24 1011.41 1366.55 1013.14C1364.85 1014.86 1362.67 1016.27 1360 1017.36C1357.33 1018.45 1354.15 1019 1350.45 1019C1345.21 1019 1340.44 1017.79 1336.14 1015.36C1331.86 1012.91 1328.45 1009.17 1325.91 1004.14C1323.39 999.076 1322.14 992.682 1322.14 984.955C1322.14 977.045 1323.42 970.439 1326 965.136C1328.58 959.833 1332 955.864 1336.27 953.227C1340.58 950.591 1345.29 949.273 1350.41 949.273C1354.32 949.273 1357.59 949.939 1360.23 951.273C1362.86 952.576 1364.98 954.212 1366.59 956.182C1368.23 958.121 1369.48 960.03 1370.36 961.909H1371.09V950.182H1390.32V1020.68C1390.32 1026.62 1388.86 1031.59 1385.95 1035.59C1383.05 1039.59 1379.02 1042.59 1373.86 1044.59C1368.74 1046.62 1362.85 1047.64 1356.18 1047.64ZM1356.59 1004.45C1359.71 1004.45 1362.35 1003.68 1364.5 1002.14C1366.68 1000.56 1368.35 998.318 1369.5 995.409C1370.68 992.47 1371.27 988.955 1371.27 984.864C1371.27 980.773 1370.7 977.227 1369.55 974.227C1368.39 971.197 1366.73 968.848 1364.55 967.182C1362.36 965.515 1359.71 964.682 1356.59 964.682C1353.41 964.682 1350.73 965.545 1348.55 967.273C1346.36 968.97 1344.71 971.333 1343.59 974.364C1342.47 977.394 1341.91 980.894 1341.91 984.864C1341.91 988.894 1342.47 992.379 1343.59 995.318C1344.74 998.227 1346.39 1000.48 1348.55 1002.09C1350.73 1003.67 1353.41 1004.45 1356.59 1004.45ZM1463.82 970.091L1446.09 971.182C1445.79 969.667 1445.14 968.303 1444.14 967.091C1443.14 965.848 1441.82 964.864 1440.18 964.136C1438.58 963.379 1436.65 963 1434.41 963C1431.41 963 1428.88 963.636 1426.82 964.909C1424.76 966.152 1423.73 967.818 1423.73 969.909C1423.73 971.576 1424.39 972.985 1425.73 974.136C1427.06 975.288 1429.35 976.212 1432.59 976.909L1445.23 979.455C1452.02 980.848 1457.08 983.091 1460.41 986.182C1463.74 989.273 1465.41 993.333 1465.41 998.364C1465.41 1002.94 1464.06 1006.95 1461.36 1010.41C1458.7 1013.86 1455.03 1016.56 1450.36 1018.5C1445.73 1020.41 1440.38 1021.36 1434.32 1021.36C1425.08 1021.36 1417.71 1019.44 1412.23 1015.59C1406.77 1011.71 1403.58 1006.44 1402.64 999.773L1421.68 998.773C1422.26 1001.59 1423.65 1003.74 1425.86 1005.23C1428.08 1006.68 1430.91 1007.41 1434.36 1007.41C1437.76 1007.41 1440.48 1006.76 1442.55 1005.45C1444.64 1004.12 1445.7 1002.41 1445.73 1000.32C1445.7 998.561 1444.95 997.121 1443.5 996C1442.05 994.848 1439.8 993.97 1436.77 993.364L1424.68 990.955C1417.86 989.591 1412.79 987.227 1409.45 983.864C1406.15 980.5 1404.5 976.212 1404.5 971C1404.5 966.515 1405.71 962.652 1408.14 959.409C1410.59 956.167 1414.03 953.667 1418.45 951.909C1422.91 950.152 1428.12 949.273 1434.09 949.273C1442.91 949.273 1449.85 951.136 1454.91 954.864C1460 958.591 1462.97 963.667 1463.82 970.091Z" fill="black"/>
<rect x="2.89778" width="1349" height="1565.5" rx="18.5" transform="matrix(0.965926 -0.258819 0.965926 0.258819 714.099 641.674)" fill="white" stroke="black" stroke-width="3"/>
<path d="M1630.23 470.645L1694.54 562.246L1698.18 567.43L1704.42 566.355L1874.09 537.116L1772.57 622.685L1763.73 630.132L1772.37 637.806L1818.91 679.157L1660.28 645.882L1657.02 645.199L1654.01 646.603L1502.21 717.269L1546.25 635.053L1552.56 623.285L1539.49 620.544L1403.89 592.1L1621.4 566.431L1630.23 565.389V556.5V470.645Z" stroke="#4C89FF" stroke-width="20"/>
<path d="M3616.06 715V631.032H3641.4C3647.63 631.032 3653.05 631.843 3657.66 633.464C3662.35 635 3665.98 637.56 3668.54 641.144C3671.18 644.728 3672.5 649.592 3672.5 655.736C3672.5 661.624 3671.18 666.488 3668.54 670.328C3665.98 674.083 3662.35 676.941 3657.66 678.904C3652.96 680.781 3647.54 681.72 3641.4 681.72H3626.68V715H3616.06ZM3626.68 673.016H3640.12C3647.46 673.016 3652.88 671.608 3656.38 668.792C3659.96 665.976 3661.75 661.624 3661.75 655.736C3661.75 649.677 3659.96 645.496 3656.38 643.192C3652.79 640.803 3647.37 639.608 3640.12 639.608H3626.68V673.016ZM3692.29 715V631.032H3703.05V673.144H3703.43L3738.76 631.032H3750.92L3703.05 688.248V715H3692.29ZM3741.96 715L3715.97 668.152L3722.5 659.704L3753.99 715H3741.96ZM3801.43 716.536C3796.22 716.536 3791.4 715.555 3786.96 713.592C3782.53 711.629 3778.64 708.813 3775.32 705.144C3771.99 701.389 3769.39 696.824 3767.51 691.448C3765.72 685.987 3764.82 679.843 3764.82 673.016C3764.82 664.056 3766.44 656.333 3769.68 649.848C3772.93 643.277 3777.36 638.243 3783 634.744C3788.63 631.245 3795.11 629.496 3802.45 629.496C3807.49 629.496 3811.97 630.563 3815.89 632.696C3819.82 634.744 3822.97 637.091 3825.36 639.736L3819.35 646.52C3817.21 644.131 3814.74 642.253 3811.92 640.888C3809.11 639.523 3805.95 638.84 3802.45 638.84C3797.08 638.84 3792.38 640.248 3788.37 643.064C3784.45 645.795 3781.37 649.677 3779.16 654.712C3776.94 659.747 3775.83 665.763 3775.83 672.76C3775.83 679.843 3776.94 685.944 3779.16 691.064C3781.37 696.184 3784.45 700.152 3788.37 702.968C3792.38 705.784 3797.08 707.192 3802.45 707.192C3806.29 707.192 3809.75 706.381 3812.82 704.76C3815.89 703.139 3818.75 700.835 3821.4 697.848L3827.41 704.376C3824.17 708.216 3820.41 711.203 3816.15 713.336C3811.88 715.469 3806.97 716.536 3801.43 716.536ZM3864.74 716.536C3860.9 716.536 3857.36 715.853 3854.11 714.488C3850.87 713.037 3848.31 710.989 3846.43 708.344C3844.56 705.699 3843.62 702.541 3843.62 698.872C3843.62 691.875 3847.12 686.584 3854.11 683C3861.11 679.331 3872.63 676.856 3888.67 675.576C3888.59 672.76 3887.99 670.157 3886.88 667.768C3885.86 665.379 3884.15 663.501 3881.76 662.136C3879.37 660.685 3876.17 659.96 3872.16 659.96C3869.52 659.96 3866.87 660.344 3864.23 661.112C3861.67 661.795 3859.19 662.733 3856.8 663.928C3854.5 665.037 3852.36 666.189 3850.4 667.384L3846.31 660.216C3848.35 658.851 3850.83 657.485 3853.73 656.12C3856.72 654.669 3859.92 653.517 3863.33 652.664C3866.74 651.725 3870.28 651.256 3873.95 651.256C3879.67 651.256 3884.36 652.323 3888.03 654.456C3891.79 656.589 3894.56 659.576 3896.35 663.416C3898.23 667.171 3899.17 671.651 3899.17 676.856V715H3890.59L3889.7 706.552H3889.31C3885.9 709.283 3882.06 711.629 3877.79 713.592C3873.53 715.555 3869.18 716.536 3864.74 716.536ZM3867.55 708.088C3871.14 708.088 3874.68 707.277 3878.18 705.656C3881.68 704.035 3885.18 701.773 3888.67 698.872V682.488C3879.8 683.256 3872.8 684.323 3867.68 685.688C3862.65 687.053 3859.06 688.803 3856.93 690.936C3854.88 692.984 3853.86 695.373 3853.86 698.104C3853.86 700.408 3854.5 702.328 3855.78 703.864C3857.06 705.315 3858.72 706.381 3860.77 707.064C3862.9 707.747 3865.16 708.088 3867.55 708.088ZM3921.9 715V652.792H3930.61L3931.5 663.416H3932.02C3935.26 659.917 3938.76 657.016 3942.51 654.712C3946.27 652.408 3950.58 651.256 3955.44 651.256C3962.78 651.256 3968.2 653.389 3971.7 657.656C3975.19 661.923 3976.94 668.152 3976.94 676.344V715H3966.45V677.752C3966.45 671.864 3965.34 667.512 3963.12 664.696C3960.9 661.795 3957.23 660.344 3952.11 660.344C3948.44 660.344 3945.16 661.283 3942.26 663.16C3939.35 665.037 3936.07 667.853 3932.4 671.608V715H3921.9ZM4019.52 715L3993.28 652.792H4003.9L4018.24 688.12C4019.52 691.192 4020.71 694.264 4021.82 697.336C4023.02 700.408 4024.17 703.437 4025.28 706.424H4025.79C4026.9 703.437 4028.01 700.408 4029.12 697.336C4030.23 694.264 4031.38 691.192 4032.57 688.12L4046.91 652.792H4057.02L4031.29 715H4019.52ZM4094.99 716.536C4091.15 716.536 4087.61 715.853 4084.36 714.488C4081.12 713.037 4078.56 710.989 4076.68 708.344C4074.81 705.699 4073.87 702.541 4073.87 698.872C4073.87 691.875 4077.37 686.584 4084.36 683C4091.36 679.331 4102.88 676.856 4118.92 675.576C4118.84 672.76 4118.24 670.157 4117.13 667.768C4116.11 665.379 4114.4 663.501 4112.01 662.136C4109.62 660.685 4106.42 659.96 4102.41 659.96C4099.77 659.96 4097.12 660.344 4094.48 661.112C4091.92 661.795 4089.44 662.733 4087.05 663.928C4084.75 665.037 4082.61 666.189 4080.65 667.384L4076.56 660.216C4078.6 658.851 4081.08 657.485 4083.98 656.12C4086.97 654.669 4090.17 653.517 4093.58 652.664C4096.99 651.725 4100.53 651.256 4104.2 651.256C4109.92 651.256 4114.61 652.323 4118.28 654.456C4122.04 656.589 4124.81 659.576 4126.6 663.416C4128.48 667.171 4129.42 671.651 4129.42 676.856V715H4120.84L4119.95 706.552H4119.56C4116.15 709.283 4112.31 711.629 4108.04 713.592C4103.78 715.555 4099.43 716.536 4094.99 716.536ZM4097.8 708.088C4101.39 708.088 4104.93 707.277 4108.43 705.656C4111.93 704.035 4115.43 701.773 4118.92 698.872V682.488C4110.05 683.256 4103.05 684.323 4097.93 685.688C4092.9 687.053 4089.31 688.803 4087.18 690.936C4085.13 692.984 4084.11 695.373 4084.11 698.104C4084.11 700.408 4084.75 702.328 4086.03 703.864C4087.31 705.315 4088.97 706.381 4091.02 707.064C4093.15 707.747 4095.41 708.088 4097.8 708.088ZM4179.93 716.536C4173.87 716.536 4168.2 715.555 4162.91 713.592C4157.62 711.629 4153.09 709.368 4149.34 706.808L4154.2 699.896C4157.79 702.456 4161.75 704.504 4166.11 706.04C4170.46 707.576 4175.49 708.344 4181.21 708.344C4186.5 708.344 4190.43 707.363 4192.99 705.4C4195.63 703.437 4196.95 701.176 4196.95 698.616C4196.95 697.421 4196.7 696.312 4196.19 695.288C4195.76 694.264 4194.86 693.283 4193.5 692.344C4192.22 691.405 4190.3 690.509 4187.74 689.656C4185.18 688.803 4181.76 687.949 4177.5 687.096C4169.39 685.389 4163.29 683.085 4159.19 680.184C4155.18 677.283 4153.18 673.528 4153.18 668.92C4153.18 663.885 4155.35 659.704 4159.71 656.376C4164.06 652.963 4170.5 651.256 4179.03 651.256C4183.81 651.256 4188.42 652.067 4192.86 653.688C4197.3 655.224 4201.05 657.059 4204.12 659.192L4199 665.976C4196.19 663.928 4192.99 662.349 4189.4 661.24C4185.82 660.045 4182.06 659.448 4178.14 659.448C4174.55 659.448 4171.7 659.875 4169.56 660.728C4167.51 661.496 4166.02 662.563 4165.08 663.928C4164.23 665.293 4163.8 666.787 4163.8 668.408C4163.8 671.053 4165.21 673.144 4168.03 674.68C4170.93 676.131 4175.54 677.496 4181.85 678.776C4188.76 680.227 4194.05 681.848 4197.72 683.64C4201.48 685.432 4204.04 687.48 4205.4 689.784C4206.85 692.088 4207.58 694.819 4207.58 697.976C4207.58 701.389 4206.51 704.504 4204.38 707.32C4202.24 710.051 4199.13 712.269 4195.03 713.976C4190.94 715.683 4185.9 716.536 4179.93 716.536ZM4249.26 715L4222.5 631.032H4233.77L4247.34 676.344C4248.87 681.293 4250.19 685.944 4251.3 690.296C4252.5 694.563 4253.86 699.171 4255.4 704.12H4255.91C4257.53 699.171 4258.9 694.563 4260.01 690.296C4261.2 685.944 4262.53 681.293 4263.98 676.344L4277.42 631.032H4288.3L4261.67 715H4249.26ZM4334.2 715V661.368H4305.27V652.792H4344.69V715H4334.2ZM4338.29 639.736C4335.9 639.736 4333.9 639.011 4332.28 637.56C4330.66 636.024 4329.85 634.019 4329.85 631.544C4329.85 629.069 4330.66 627.107 4332.28 625.656C4333.9 624.12 4335.9 623.352 4338.29 623.352C4340.68 623.352 4342.69 624.12 4344.31 625.656C4345.93 627.107 4346.74 629.069 4346.74 631.544C4346.74 634.019 4345.93 636.024 4344.31 637.56C4342.69 639.011 4340.68 639.736 4338.29 639.736ZM4412.74 716.536C4406.51 716.536 4400.84 715.256 4395.72 712.696C4390.68 710.136 4386.67 706.424 4383.68 701.56C4380.7 696.611 4379.2 690.68 4379.2 683.768C4379.2 677.027 4380.7 671.224 4383.68 666.36C4386.67 661.496 4390.55 657.784 4395.33 655.224C4400.2 652.579 4405.4 651.256 4410.95 651.256C4416.92 651.256 4422 652.493 4426.18 654.968C4430.45 657.357 4433.69 660.728 4435.91 665.08C4438.21 669.432 4439.36 674.552 4439.36 680.44C4439.36 681.635 4439.32 682.787 4439.24 683.896C4439.15 685.005 4439.02 685.987 4438.85 686.84H4386.24V678.648H4432.58L4429.89 681.592C4429.89 674.253 4428.19 668.749 4424.77 665.08C4421.44 661.411 4416.92 659.576 4411.2 659.576C4407.36 659.576 4403.78 660.515 4400.45 662.392C4397.21 664.269 4394.61 667 4392.64 670.584C4390.68 674.168 4389.7 678.563 4389.7 683.768C4389.7 689.144 4390.77 693.624 4392.9 697.208C4395.03 700.792 4397.93 703.523 4401.6 705.4C4405.27 707.192 4409.41 708.088 4414.02 708.088C4417.77 708.088 4421.15 707.576 4424.13 706.552C4427.2 705.443 4430.15 703.992 4432.96 702.2L4436.8 709.112C4433.73 711.16 4430.19 712.909 4426.18 714.36C4422.25 715.811 4417.77 716.536 4412.74 716.536ZM4461.84 715L4448.27 652.792H4458.77L4466.19 688.888C4466.79 691.789 4467.3 694.648 4467.73 697.464C4468.24 700.195 4468.67 703.053 4469.01 706.04H4469.52C4469.95 703.053 4470.46 700.195 4471.06 697.464C4471.74 694.648 4472.42 691.789 4473.11 688.888L4480.79 656.632H4491.28L4498.71 688.888C4499.39 691.789 4500.11 694.648 4500.88 697.464C4501.65 700.195 4502.2 703.053 4502.55 706.04H4503.06C4503.57 703.053 4504 700.195 4504.34 697.464C4504.76 694.648 4505.28 691.789 4505.87 688.888L4513.3 652.792H4523.03L4509.71 715H4496.15L4488.98 685.304C4488.47 683.085 4487.95 680.44 4487.44 677.368C4486.93 674.296 4486.42 670.797 4485.91 666.872H4485.39C4484.88 670.797 4484.37 674.296 4483.86 677.368C4483.35 680.44 4482.83 683.085 4482.32 685.304L4475.41 715H4461.84Z" fill="black"/>
<path d="M2017.13 209.25L1740 487L1717 532L1761.99 509L2039.75 231.87L2017.13 209.25ZM2073.69 152.69L2051.07 175.31L2073.69 197.94L2096.31 175.31C2099.31 172.31 2100.99 168.242 2100.99 164C2100.99 159.759 2099.31 155.691 2096.31 152.69C2093.31 149.692 2089.24 148.008 2085 148.008C2080.76 148.008 2076.69 149.692 2073.69 152.69Z" stroke="black" stroke-width="32" stroke-linecap="round" stroke-linejoin="round"/>
</svg>
