<svg width="5238" height="2302" viewBox="0 0 5238 2302" fill="none" xmlns="http://www.w3.org/2000/svg">
<rect width="5238" height="2302" fill="white"/>
<rect x="2.89778" width="1349" height="1565.5" rx="18.5" transform="matrix(0.965926 -0.258819 0.965926 0.258819 714.099 1813.27)" fill="white" stroke="black" stroke-width="3"/>
<rect x="2.89778" width="1349" height="1565.5" rx="18.5" transform="matrix(0.965926 -0.258819 0.965926 0.258819 714.099 1227.27)" fill="white" stroke="black" stroke-width="3"/>
<path d="M2014.58 1903.32L1852.37 1859.86L1901.33 1846.74C1913.36 1843.52 1925.31 1841.11 1937.18 1839.52C1949.22 1837.88 1961.25 1837.35 1973.28 1837.93C1985.32 1838.41 1997.27 1840.25 2009.14 1843.43C2020.51 1846.48 2027.36 1849.68 2029.66 1853.03C2032.14 1856.35 2030.65 1859.7 2025.21 1863.11C2019.77 1866.51 2011.12 1869.8 1999.25 1872.98L1970.81 1880.6L2035.1 1897.83L2014.58 1903.32ZM1954 1876.09L1979.96 1869.14C1994.14 1865.34 2001.97 1861.83 2003.45 1858.6C2004.94 1855.29 1999.91 1852.09 1988.37 1848.99C1976.66 1845.86 1965.12 1844.62 1953.75 1845.28C1942.21 1845.9 1929.43 1848.09 1915.42 1851.84L1889.46 1858.8L1954 1876.09ZM2159.14 1864.59L1996.93 1821.12L2036.98 1810.39C2061.38 1803.85 2087.02 1800.74 2113.89 1801.05C2140.59 1801.31 2166.81 1804.89 2192.52 1811.78C2218.4 1818.72 2232.09 1825.83 2233.57 1833.12C2235.22 1840.36 2224.09 1847.19 2200.19 1853.59L2159.14 1864.59ZM2162.85 1854.58L2180.9 1849.75C2199.53 1844.76 2207.69 1839.52 2205.38 1834.04C2203.07 1828.48 2191.7 1822.96 2171.26 1817.48C2150.81 1812 2130.54 1809.04 2110.43 1808.6C2090.31 1808.07 2070.94 1810.3 2052.32 1815.29L2034.26 1820.13L2162.85 1854.58ZM2318.78 1821.81L2156.57 1778.35L2256.22 1751.65L2273.53 1756.28L2194.65 1777.42L2249.55 1792.13L2316.31 1774.24L2333.62 1778.88L2266.86 1796.77L2339.56 1816.25L2318.78 1821.81Z" fill="black"/>
<path d="M2014.58 1317.32L1852.37 1273.86L1901.33 1260.74C1913.36 1257.52 1925.31 1255.11 1937.18 1253.52C1949.22 1251.88 1961.25 1251.35 1973.28 1251.93C1985.32 1252.41 1997.27 1254.25 2009.14 1257.43C2020.51 1260.48 2027.36 1263.68 2029.66 1267.03C2032.14 1270.35 2030.65 1273.7 2025.21 1277.11C2019.77 1280.51 2011.12 1283.8 1999.25 1286.98L1970.81 1294.6L2035.1 1311.83L2014.58 1317.32ZM1954 1290.09L1979.96 1283.14C1994.14 1279.34 2001.97 1275.83 2003.45 1272.6C2004.94 1269.29 1999.91 1266.09 1988.37 1262.99C1976.66 1259.86 1965.12 1258.62 1953.75 1259.28C1942.21 1259.9 1929.43 1262.09 1915.42 1265.84L1889.46 1272.8L1954 1290.09ZM2159.14 1278.59L1996.93 1235.12L2036.98 1224.39C2061.38 1217.85 2087.02 1214.74 2113.89 1215.05C2140.59 1215.31 2166.81 1218.89 2192.52 1225.78C2218.4 1232.72 2232.09 1239.83 2233.57 1247.12C2235.22 1254.36 2224.09 1261.19 2200.19 1267.59L2159.14 1278.59ZM2162.85 1268.58L2180.9 1263.75C2199.53 1258.76 2207.69 1253.52 2205.38 1248.04C2203.07 1242.48 2191.7 1236.96 2171.26 1231.48C2150.81 1226 2130.54 1223.04 2110.43 1222.6C2090.31 1222.07 2070.94 1224.3 2052.32 1229.29L2034.26 1234.13L2162.85 1268.58ZM2318.78 1235.81L2156.57 1192.35L2256.22 1165.65L2273.53 1170.28L2194.65 1191.42L2249.55 1206.13L2316.31 1188.24L2333.62 1192.88L2266.86 1210.77L2339.56 1230.25L2318.78 1235.81Z" fill="black"/>
<rect x="2.89778" width="1349" height="1565.5" rx="18.5" transform="matrix(0.965926 -0.258819 0.965926 0.258819 714.099 641.195)" fill="white" stroke="black" stroke-width="3"/>
<path d="M2017.13 208.772L1740 486.522L1717 531.522L1761.99 508.522L2039.75 231.392L2017.13 208.772ZM2073.69 152.212L2051.07 174.832L2073.69 197.462L2096.31 174.832C2099.31 171.832 2100.99 167.764 2100.99 163.522C2100.99 159.28 2099.31 155.212 2096.31 152.212C2093.31 149.214 2089.24 147.529 2085 147.529C2080.76 147.529 2076.69 149.214 2073.69 152.212Z" stroke="black" stroke-width="32" stroke-linecap="round" stroke-linejoin="round"/>
<path d="M3616.06 714.521V630.553H3641.4C3647.63 630.553 3653.05 631.364 3657.66 632.985C3662.35 634.521 3665.98 637.081 3668.54 640.665C3671.18 644.249 3672.5 649.113 3672.5 655.257C3672.5 661.145 3671.18 666.009 3668.54 669.849C3665.98 673.604 3662.35 676.463 3657.66 678.425C3652.96 680.303 3647.54 681.241 3641.4 681.241H3626.68V714.521H3616.06ZM3626.68 672.537H3640.12C3647.46 672.537 3652.88 671.129 3656.38 668.313C3659.96 665.497 3661.75 661.145 3661.75 655.257C3661.75 649.199 3659.96 645.017 3656.38 642.713C3652.79 640.324 3647.37 639.129 3640.12 639.129H3626.68V672.537ZM3692.29 714.521V630.553H3703.05V672.665H3703.43L3738.76 630.553H3750.92L3703.05 687.769V714.521H3692.29ZM3741.96 714.521L3715.97 667.673L3722.5 659.225L3753.99 714.521H3741.96ZM3801.43 716.057C3796.22 716.057 3791.4 715.076 3786.96 713.113C3782.53 711.151 3778.64 708.335 3775.32 704.665C3771.99 700.911 3769.39 696.345 3767.51 690.969C3765.72 685.508 3764.82 679.364 3764.82 672.537C3764.82 663.577 3766.44 655.855 3769.68 649.369C3772.93 642.799 3777.36 637.764 3783 634.265C3788.63 630.767 3795.11 629.017 3802.45 629.017C3807.49 629.017 3811.97 630.084 3815.89 632.217C3819.82 634.265 3822.97 636.612 3825.36 639.257L3819.35 646.041C3817.21 643.652 3814.74 641.775 3811.92 640.409C3809.11 639.044 3805.95 638.361 3802.45 638.361C3797.08 638.361 3792.38 639.769 3788.37 642.585C3784.45 645.316 3781.37 649.199 3779.16 654.233C3776.94 659.268 3775.83 665.284 3775.83 672.281C3775.83 679.364 3776.94 685.465 3779.16 690.585C3781.37 695.705 3784.45 699.673 3788.37 702.489C3792.38 705.305 3797.08 706.713 3802.45 706.713C3806.29 706.713 3809.75 705.903 3812.82 704.281C3815.89 702.66 3818.75 700.356 3821.4 697.369L3827.41 703.897C3824.17 707.737 3820.41 710.724 3816.15 712.857C3811.88 714.991 3806.97 716.057 3801.43 716.057ZM3864.74 716.057C3860.9 716.057 3857.36 715.375 3854.11 714.009C3850.87 712.559 3848.31 710.511 3846.43 707.865C3844.56 705.22 3843.62 702.063 3843.62 698.393C3843.62 691.396 3847.12 686.105 3854.11 682.521C3861.11 678.852 3872.63 676.377 3888.67 675.097C3888.59 672.281 3887.99 669.679 3886.88 667.289C3885.86 664.9 3884.15 663.023 3881.76 661.657C3879.37 660.207 3876.17 659.481 3872.16 659.481C3869.52 659.481 3866.87 659.865 3864.23 660.633C3861.67 661.316 3859.19 662.255 3856.8 663.449C3854.5 664.559 3852.36 665.711 3850.4 666.905L3846.31 659.737C3848.35 658.372 3850.83 657.007 3853.73 655.641C3856.72 654.191 3859.92 653.039 3863.33 652.185C3866.74 651.247 3870.28 650.777 3873.95 650.777C3879.67 650.777 3884.36 651.844 3888.03 653.977C3891.79 656.111 3894.56 659.097 3896.35 662.937C3898.23 666.692 3899.17 671.172 3899.17 676.377V714.521H3890.59L3889.7 706.073H3889.31C3885.9 708.804 3882.06 711.151 3877.79 713.113C3873.53 715.076 3869.18 716.057 3864.74 716.057ZM3867.55 707.609C3871.14 707.609 3874.68 706.799 3878.18 705.177C3881.68 703.556 3885.18 701.295 3888.67 698.393V682.009C3879.8 682.777 3872.8 683.844 3867.68 685.209C3862.65 686.575 3859.06 688.324 3856.93 690.457C3854.88 692.505 3853.86 694.895 3853.86 697.625C3853.86 699.929 3854.5 701.849 3855.78 703.385C3857.06 704.836 3858.72 705.903 3860.77 706.585C3862.9 707.268 3865.16 707.609 3867.55 707.609ZM3921.9 714.521V652.313H3930.61L3931.5 662.937H3932.02C3935.26 659.439 3938.76 656.537 3942.51 654.233C3946.27 651.929 3950.58 650.777 3955.44 650.777C3962.78 650.777 3968.2 652.911 3971.7 657.177C3975.19 661.444 3976.94 667.673 3976.94 675.865V714.521H3966.45V677.273C3966.45 671.385 3965.34 667.033 3963.12 664.217C3960.9 661.316 3957.23 659.865 3952.11 659.865C3948.44 659.865 3945.16 660.804 3942.26 662.681C3939.35 664.559 3936.07 667.375 3932.4 671.129V714.521H3921.9ZM4019.52 714.521L3993.28 652.313H4003.9L4018.24 687.641C4019.52 690.713 4020.71 693.785 4021.82 696.857C4023.02 699.929 4024.17 702.959 4025.28 705.945H4025.79C4026.9 702.959 4028.01 699.929 4029.12 696.857C4030.23 693.785 4031.38 690.713 4032.57 687.641L4046.91 652.313H4057.02L4031.29 714.521H4019.52ZM4094.99 716.057C4091.15 716.057 4087.61 715.375 4084.36 714.009C4081.12 712.559 4078.56 710.511 4076.68 707.865C4074.81 705.22 4073.87 702.063 4073.87 698.393C4073.87 691.396 4077.37 686.105 4084.36 682.521C4091.36 678.852 4102.88 676.377 4118.92 675.097C4118.84 672.281 4118.24 669.679 4117.13 667.289C4116.11 664.9 4114.4 663.023 4112.01 661.657C4109.62 660.207 4106.42 659.481 4102.41 659.481C4099.77 659.481 4097.12 659.865 4094.48 660.633C4091.92 661.316 4089.44 662.255 4087.05 663.449C4084.75 664.559 4082.61 665.711 4080.65 666.905L4076.56 659.737C4078.6 658.372 4081.08 657.007 4083.98 655.641C4086.97 654.191 4090.17 653.039 4093.58 652.185C4096.99 651.247 4100.53 650.777 4104.2 650.777C4109.92 650.777 4114.61 651.844 4118.28 653.977C4122.04 656.111 4124.81 659.097 4126.6 662.937C4128.48 666.692 4129.42 671.172 4129.42 676.377V714.521H4120.84L4119.95 706.073H4119.56C4116.15 708.804 4112.31 711.151 4108.04 713.113C4103.78 715.076 4099.43 716.057 4094.99 716.057ZM4097.8 707.609C4101.39 707.609 4104.93 706.799 4108.43 705.177C4111.93 703.556 4115.43 701.295 4118.92 698.393V682.009C4110.05 682.777 4103.05 683.844 4097.93 685.209C4092.9 686.575 4089.31 688.324 4087.18 690.457C4085.13 692.505 4084.11 694.895 4084.11 697.625C4084.11 699.929 4084.75 701.849 4086.03 703.385C4087.31 704.836 4088.97 705.903 4091.02 706.585C4093.15 707.268 4095.41 707.609 4097.8 707.609ZM4179.93 716.057C4173.87 716.057 4168.2 715.076 4162.91 713.113C4157.62 711.151 4153.09 708.889 4149.34 706.329L4154.2 699.417C4157.79 701.977 4161.75 704.025 4166.11 705.561C4170.46 707.097 4175.49 707.865 4181.21 707.865C4186.5 707.865 4190.43 706.884 4192.99 704.921C4195.63 702.959 4196.95 700.697 4196.95 698.137C4196.95 696.943 4196.7 695.833 4196.19 694.809C4195.76 693.785 4194.86 692.804 4193.5 691.865C4192.22 690.927 4190.3 690.031 4187.74 689.177C4185.18 688.324 4181.76 687.471 4177.5 686.617C4169.39 684.911 4163.29 682.607 4159.19 679.705C4155.18 676.804 4153.18 673.049 4153.18 668.441C4153.18 663.407 4155.35 659.225 4159.71 655.897C4164.06 652.484 4170.5 650.777 4179.03 650.777C4183.81 650.777 4188.42 651.588 4192.86 653.209C4197.3 654.745 4201.05 656.58 4204.12 658.713L4199 665.497C4196.19 663.449 4192.99 661.871 4189.4 660.761C4185.82 659.567 4182.06 658.969 4178.14 658.969C4174.55 658.969 4171.7 659.396 4169.56 660.249C4167.51 661.017 4166.02 662.084 4165.08 663.449C4164.23 664.815 4163.8 666.308 4163.8 667.929C4163.8 670.575 4165.21 672.665 4168.03 674.201C4170.93 675.652 4175.54 677.017 4181.85 678.297C4188.76 679.748 4194.05 681.369 4197.72 683.161C4201.48 684.953 4204.04 687.001 4205.4 689.305C4206.85 691.609 4207.58 694.34 4207.58 697.497C4207.58 700.911 4206.51 704.025 4204.38 706.841C4202.24 709.572 4199.13 711.791 4195.03 713.497C4190.94 715.204 4185.9 716.057 4179.93 716.057ZM4249.26 714.521L4222.5 630.553H4233.77L4247.34 675.865C4248.87 680.815 4250.19 685.465 4251.3 689.817C4252.5 694.084 4253.86 698.692 4255.4 703.641H4255.91C4257.53 698.692 4258.9 694.084 4260.01 689.817C4261.2 685.465 4262.53 680.815 4263.98 675.865L4277.42 630.553H4288.3L4261.67 714.521H4249.26ZM4334.2 714.521V660.889H4305.27V652.313H4344.69V714.521H4334.2ZM4338.29 639.257C4335.9 639.257 4333.9 638.532 4332.28 637.081C4330.66 635.545 4329.85 633.54 4329.85 631.065C4329.85 628.591 4330.66 626.628 4332.28 625.177C4333.9 623.641 4335.9 622.873 4338.29 622.873C4340.68 622.873 4342.69 623.641 4344.31 625.177C4345.93 626.628 4346.74 628.591 4346.74 631.065C4346.74 633.54 4345.93 635.545 4344.31 637.081C4342.69 638.532 4340.68 639.257 4338.29 639.257ZM4412.74 716.057C4406.51 716.057 4400.84 714.777 4395.72 712.217C4390.68 709.657 4386.67 705.945 4383.68 701.081C4380.7 696.132 4379.2 690.201 4379.2 683.289C4379.2 676.548 4380.7 670.745 4383.68 665.881C4386.67 661.017 4390.55 657.305 4395.33 654.745C4400.2 652.1 4405.4 650.777 4410.95 650.777C4416.92 650.777 4422 652.015 4426.18 654.489C4430.45 656.879 4433.69 660.249 4435.91 664.601C4438.21 668.953 4439.36 674.073 4439.36 679.961C4439.36 681.156 4439.32 682.308 4439.24 683.417C4439.15 684.527 4439.02 685.508 4438.85 686.361H4386.24V678.169H4432.58L4429.89 681.113C4429.89 673.775 4428.19 668.271 4424.77 664.601C4421.44 660.932 4416.92 659.097 4411.2 659.097C4407.36 659.097 4403.78 660.036 4400.45 661.913C4397.21 663.791 4394.61 666.521 4392.64 670.105C4390.68 673.689 4389.7 678.084 4389.7 683.289C4389.7 688.665 4390.77 693.145 4392.9 696.729C4395.03 700.313 4397.93 703.044 4401.6 704.921C4405.27 706.713 4409.41 707.609 4414.02 707.609C4417.77 707.609 4421.15 707.097 4424.13 706.073C4427.2 704.964 4430.15 703.513 4432.96 701.721L4436.8 708.633C4433.73 710.681 4430.19 712.431 4426.18 713.881C4422.25 715.332 4417.77 716.057 4412.74 716.057ZM4461.84 714.521L4448.27 652.313H4458.77L4466.19 688.409C4466.79 691.311 4467.3 694.169 4467.73 696.985C4468.24 699.716 4468.67 702.575 4469.01 705.561H4469.52C4469.95 702.575 4470.46 699.716 4471.06 696.985C4471.74 694.169 4472.42 691.311 4473.11 688.409L4480.79 656.153H4491.28L4498.71 688.409C4499.39 691.311 4500.11 694.169 4500.88 696.985C4501.65 699.716 4502.2 702.575 4502.55 705.561H4503.06C4503.57 702.575 4504 699.716 4504.34 696.985C4504.76 694.169 4505.28 691.311 4505.87 688.409L4513.3 652.313H4523.03L4509.71 714.521H4496.15L4488.98 684.825C4488.47 682.607 4487.95 679.961 4487.44 676.889C4486.93 673.817 4486.42 670.319 4485.91 666.393H4485.39C4484.88 670.319 4484.37 673.817 4483.86 676.889C4483.35 679.961 4482.83 682.607 4482.32 684.825L4475.41 714.521H4461.84Z" fill="black"/>
<path d="M3616.06 1300.52V1216.55H3641.4C3647.63 1216.55 3653.05 1217.36 3657.66 1218.99C3662.35 1220.52 3665.98 1223.08 3668.54 1226.67C3671.18 1230.25 3672.5 1235.11 3672.5 1241.26C3672.5 1247.15 3671.18 1252.01 3668.54 1255.85C3665.98 1259.6 3662.35 1262.46 3657.66 1264.43C3652.96 1266.3 3647.54 1267.24 3641.4 1267.24H3626.68V1300.52H3616.06ZM3626.68 1258.54H3640.12C3647.46 1258.54 3652.88 1257.13 3656.38 1254.31C3659.96 1251.5 3661.75 1247.15 3661.75 1241.26C3661.75 1235.2 3659.96 1231.02 3656.38 1228.71C3652.79 1226.32 3647.37 1225.13 3640.12 1225.13H3626.68V1258.54ZM3690.89 1300.52V1216.55H3711.62C3720.07 1216.55 3727.15 1218.17 3732.87 1221.42C3738.67 1224.57 3743.07 1229.27 3746.05 1235.5C3749.04 1241.73 3750.53 1249.28 3750.53 1258.15C3750.53 1267.11 3749.04 1274.75 3746.05 1281.07C3743.15 1287.38 3738.84 1292.2 3733.13 1295.53C3727.41 1298.86 3720.41 1300.52 3712.13 1300.52H3690.89ZM3701.51 1291.82H3710.85C3717.25 1291.82 3722.54 1290.49 3726.73 1287.85C3730.99 1285.12 3734.19 1281.28 3736.33 1276.33C3738.46 1271.29 3739.53 1265.24 3739.53 1258.15C3739.53 1251.16 3738.46 1245.18 3736.33 1240.23C3734.19 1235.28 3730.99 1231.57 3726.73 1229.1C3722.54 1226.54 3717.25 1225.26 3710.85 1225.26H3701.51V1291.82ZM3773.52 1300.52V1216.55H3825.11V1225.51H3784.28V1253.93H3818.84V1262.89H3784.28V1300.52H3773.52ZM3865.51 1300.52L3838.75 1216.55H3850.02L3863.59 1261.87C3865.12 1266.81 3866.44 1271.47 3867.55 1275.82C3868.75 1280.08 3870.11 1284.69 3871.65 1289.64H3872.16C3873.78 1284.69 3875.15 1280.08 3876.26 1275.82C3877.45 1271.47 3878.78 1266.81 3880.23 1261.87L3893.67 1216.55H3904.55L3877.92 1300.52H3865.51ZM3950.45 1300.52V1246.89H3921.52V1238.31H3960.94V1300.52H3950.45ZM3954.54 1225.26C3952.15 1225.26 3950.15 1224.53 3948.53 1223.08C3946.91 1221.55 3946.1 1219.54 3946.1 1217.07C3946.1 1214.59 3946.91 1212.63 3948.53 1211.18C3950.15 1209.64 3952.15 1208.87 3954.54 1208.87C3956.93 1208.87 3958.94 1209.64 3960.56 1211.18C3962.18 1212.63 3962.99 1214.59 3962.99 1217.07C3962.99 1219.54 3962.18 1221.55 3960.56 1223.08C3958.94 1224.53 3956.93 1225.26 3954.54 1225.26ZM4028.99 1302.06C4022.76 1302.06 4017.09 1300.78 4011.97 1298.22C4006.93 1295.66 4002.92 1291.95 3999.93 1287.08C3996.95 1282.13 3995.45 1276.2 3995.45 1269.29C3995.45 1262.55 3996.95 1256.75 3999.93 1251.88C4002.92 1247.02 4006.8 1243.31 4011.58 1240.75C4016.45 1238.1 4021.65 1236.78 4027.2 1236.78C4033.17 1236.78 4038.25 1238.01 4042.43 1240.49C4046.7 1242.88 4049.94 1246.25 4052.16 1250.6C4054.46 1254.95 4055.61 1260.07 4055.61 1265.96C4055.61 1267.16 4055.57 1268.31 4055.49 1269.42C4055.4 1270.53 4055.27 1271.51 4055.1 1272.36H4002.49V1264.17H4048.83L4046.14 1267.11C4046.14 1259.77 4044.44 1254.27 4041.02 1250.6C4037.69 1246.93 4033.17 1245.1 4027.45 1245.1C4023.61 1245.1 4020.03 1246.04 4016.7 1247.91C4013.46 1249.79 4010.86 1252.52 4008.89 1256.11C4006.93 1259.69 4005.95 1264.08 4005.95 1269.29C4005.95 1274.67 4007.02 1279.15 4009.15 1282.73C4011.28 1286.31 4014.18 1289.04 4017.85 1290.92C4021.52 1292.71 4025.66 1293.61 4030.27 1293.61C4034.02 1293.61 4037.4 1293.1 4040.38 1292.07C4043.45 1290.96 4046.4 1289.51 4049.21 1287.72L4053.05 1294.63C4049.98 1296.68 4046.44 1298.43 4042.43 1299.88C4038.5 1301.33 4034.02 1302.06 4028.99 1302.06ZM4078.09 1300.52L4064.52 1238.31H4075.02L4082.44 1274.41C4083.04 1277.31 4083.55 1280.17 4083.98 1282.99C4084.49 1285.72 4084.92 1288.57 4085.26 1291.56H4085.77C4086.2 1288.57 4086.71 1285.72 4087.31 1282.99C4087.99 1280.17 4088.67 1277.31 4089.36 1274.41L4097.04 1242.15H4107.53L4114.96 1274.41C4115.64 1277.31 4116.36 1280.17 4117.13 1282.99C4117.9 1285.72 4118.45 1288.57 4118.8 1291.56H4119.31C4119.82 1288.57 4120.25 1285.72 4120.59 1282.99C4121.01 1280.17 4121.53 1277.31 4122.12 1274.41L4129.55 1238.31H4139.28L4125.96 1300.52H4112.4L4105.23 1270.83C4104.72 1268.61 4104.2 1265.96 4103.69 1262.89C4103.18 1259.82 4102.67 1256.32 4102.16 1252.39H4101.64C4101.13 1256.32 4100.62 1259.82 4100.11 1262.89C4099.6 1265.96 4099.08 1268.61 4098.57 1270.83L4091.66 1300.52H4078.09Z" fill="black"/>
<path d="M3615.8 1886.52V1802.55H3641.91C3647.63 1802.55 3652.66 1803.32 3657.02 1804.86C3661.45 1806.31 3664.91 1808.78 3667.38 1812.28C3669.94 1815.69 3671.22 1820.3 3671.22 1826.11C3671.22 1831.74 3669.94 1836.39 3667.38 1840.06C3664.91 1843.73 3661.45 1846.5 3657.02 1848.38C3652.66 1850.17 3647.63 1851.07 3641.91 1851.07H3626.42V1886.52H3615.8ZM3626.42 1842.36H3640.38C3646.95 1842.36 3651.94 1841.04 3655.35 1838.39C3658.85 1835.66 3660.6 1831.57 3660.6 1826.11C3660.6 1820.64 3658.85 1816.8 3655.35 1814.59C3651.94 1812.28 3646.95 1811.13 3640.38 1811.13H3626.42V1842.36ZM3639.74 1848.12L3648.18 1842.49L3673.78 1886.52H3661.62L3639.74 1848.12ZM3711.24 1888.06C3707.4 1888.06 3703.86 1887.37 3700.61 1886.01C3697.37 1884.56 3694.81 1882.51 3692.93 1879.87C3691.06 1877.22 3690.12 1874.06 3690.12 1870.39C3690.12 1863.4 3693.62 1858.11 3700.61 1854.52C3707.61 1850.85 3719.13 1848.38 3735.17 1847.1C3735.09 1844.28 3734.49 1841.68 3733.38 1839.29C3732.36 1836.9 3730.65 1835.02 3728.26 1833.66C3725.87 1832.21 3722.67 1831.48 3718.66 1831.48C3716.02 1831.48 3713.37 1831.87 3710.73 1832.63C3708.17 1833.32 3705.69 1834.25 3703.3 1835.45C3701 1836.56 3698.86 1837.71 3696.9 1838.91L3692.81 1831.74C3694.85 1830.37 3697.33 1829.01 3700.23 1827.64C3703.22 1826.19 3706.42 1825.04 3709.83 1824.19C3713.24 1823.25 3716.78 1822.78 3720.45 1822.78C3726.17 1822.78 3730.86 1823.84 3734.53 1825.98C3738.29 1828.11 3741.06 1831.1 3742.85 1834.94C3744.73 1838.69 3745.67 1843.17 3745.67 1848.38V1886.52H3737.09L3736.2 1878.07H3735.81C3732.4 1880.8 3728.56 1883.15 3724.29 1885.11C3720.03 1887.08 3715.68 1888.06 3711.24 1888.06ZM3714.05 1879.61C3717.64 1879.61 3721.18 1878.8 3724.68 1877.18C3728.18 1875.56 3731.68 1873.29 3735.17 1870.39V1854.01C3726.3 1854.78 3719.3 1855.84 3714.18 1857.21C3709.15 1858.57 3705.56 1860.32 3703.43 1862.46C3701.38 1864.51 3700.36 1866.89 3700.36 1869.63C3700.36 1871.93 3701 1873.85 3702.28 1875.39C3703.56 1876.84 3705.22 1877.9 3707.27 1878.59C3709.4 1879.27 3711.66 1879.61 3714.05 1879.61ZM3771.09 1886.52L3757.52 1824.31H3768.02L3775.44 1860.41C3776.04 1863.31 3776.55 1866.17 3776.98 1868.99C3777.49 1871.72 3777.92 1874.57 3778.26 1877.56H3778.77C3779.2 1874.57 3779.71 1871.72 3780.31 1868.99C3780.99 1866.17 3781.67 1863.31 3782.36 1860.41L3790.04 1828.15H3800.53L3807.96 1860.41C3808.64 1863.31 3809.36 1866.17 3810.13 1868.99C3810.9 1871.72 3811.45 1874.57 3811.8 1877.56H3812.31C3812.82 1874.57 3813.25 1871.72 3813.59 1868.99C3814.01 1866.17 3814.53 1863.31 3815.12 1860.41L3822.55 1824.31H3832.28L3818.96 1886.52H3805.4L3798.23 1856.83C3797.72 1854.61 3797.2 1851.96 3796.69 1848.89C3796.18 1845.82 3795.67 1842.32 3795.16 1838.39H3794.64C3794.13 1842.32 3793.62 1845.82 3793.11 1848.89C3792.6 1851.96 3792.08 1854.61 3791.57 1856.83L3784.66 1886.52H3771.09ZM3923.06 1886.52V1802.55H3948.4C3954.63 1802.55 3960.05 1803.36 3964.66 1804.99C3969.35 1806.52 3972.98 1809.08 3975.54 1812.67C3978.18 1816.25 3979.5 1821.11 3979.5 1827.26C3979.5 1833.15 3978.18 1838.01 3975.54 1841.85C3972.98 1845.6 3969.35 1848.46 3964.66 1850.43C3959.96 1852.3 3954.54 1853.24 3948.4 1853.24H3933.68V1886.52H3923.06ZM3933.68 1844.54H3947.12C3954.46 1844.54 3959.88 1843.13 3963.38 1840.31C3966.96 1837.5 3968.75 1833.15 3968.75 1827.26C3968.75 1821.2 3966.96 1817.02 3963.38 1814.71C3959.79 1812.32 3954.37 1811.13 3947.12 1811.13H3933.68V1844.54ZM3997.89 1886.52V1802.55H4018.62C4027.07 1802.55 4034.15 1804.17 4039.87 1807.42C4045.67 1810.57 4050.07 1815.27 4053.05 1821.5C4056.04 1827.73 4057.53 1835.28 4057.53 1844.15C4057.53 1853.11 4056.04 1860.75 4053.05 1867.07C4050.15 1873.38 4045.84 1878.2 4040.13 1881.53C4034.41 1884.86 4027.41 1886.52 4019.13 1886.52H3997.89ZM4008.51 1877.82H4017.85C4024.25 1877.82 4029.54 1876.49 4033.73 1873.85C4037.99 1871.12 4041.19 1867.28 4043.33 1862.33C4045.46 1857.29 4046.53 1851.24 4046.53 1844.15C4046.53 1837.16 4045.46 1831.18 4043.33 1826.23C4041.19 1821.28 4037.99 1817.57 4033.73 1815.1C4029.54 1812.54 4024.25 1811.26 4017.85 1811.26H4008.51V1877.82ZM4080.52 1886.52V1802.55H4132.11V1811.51H4091.28V1839.93H4125.84V1848.89H4091.28V1886.52H4080.52ZM4234.02 1886.52V1802.55H4285.61V1811.51H4244.78V1839.93H4279.34V1848.89H4244.78V1886.52H4234.02ZM4334.2 1886.52V1832.89H4305.27V1824.31H4344.69V1886.52H4334.2ZM4338.29 1811.26C4335.9 1811.26 4333.9 1810.53 4332.28 1809.08C4330.66 1807.55 4329.85 1805.54 4329.85 1803.07C4329.85 1800.59 4330.66 1798.63 4332.28 1797.18C4333.9 1795.64 4335.9 1794.87 4338.29 1794.87C4340.68 1794.87 4342.69 1795.64 4344.31 1797.18C4345.93 1798.63 4346.74 1800.59 4346.74 1803.07C4346.74 1805.54 4345.93 1807.55 4344.31 1809.08C4342.69 1810.53 4340.68 1811.26 4338.29 1811.26ZM4422.47 1888.06C4415.9 1888.06 4410.86 1886.18 4407.36 1882.43C4403.87 1878.59 4402.12 1873 4402.12 1865.66V1803.96H4380.87V1795.39H4412.61V1866.43C4412.61 1870.95 4413.72 1874.23 4415.94 1876.28C4418.16 1878.33 4421.1 1879.35 4424.77 1879.35C4426.56 1879.35 4428.4 1879.14 4430.28 1878.71C4432.15 1878.2 4434.24 1877.43 4436.55 1876.41L4439.24 1884.35C4436.42 1885.37 4433.77 1886.22 4431.3 1886.91C4428.83 1887.67 4425.88 1888.06 4422.47 1888.06ZM4489.49 1888.06C4483.26 1888.06 4477.59 1886.78 4472.47 1884.22C4467.43 1881.66 4463.42 1877.95 4460.43 1873.08C4457.45 1868.13 4455.95 1862.2 4455.95 1855.29C4455.95 1848.55 4457.45 1842.75 4460.43 1837.88C4463.42 1833.02 4467.3 1829.31 4472.08 1826.75C4476.95 1824.1 4482.15 1822.78 4487.7 1822.78C4493.67 1822.78 4498.75 1824.01 4502.93 1826.49C4507.2 1828.88 4510.44 1832.25 4512.66 1836.6C4514.96 1840.95 4516.11 1846.07 4516.11 1851.96C4516.11 1853.16 4516.07 1854.31 4515.99 1855.42C4515.9 1856.53 4515.77 1857.51 4515.6 1858.36H4462.99V1850.17H4509.33L4506.64 1853.11C4506.64 1845.77 4504.94 1840.27 4501.52 1836.6C4498.19 1832.93 4493.67 1831.1 4487.95 1831.1C4484.11 1831.1 4480.53 1832.04 4477.2 1833.91C4473.96 1835.79 4471.36 1838.52 4469.39 1842.11C4467.43 1845.69 4466.45 1850.08 4466.45 1855.29C4466.45 1860.67 4467.52 1865.15 4469.65 1868.73C4471.78 1872.31 4474.68 1875.04 4478.35 1876.92C4482.02 1878.71 4486.16 1879.61 4490.77 1879.61C4494.52 1879.61 4497.9 1879.1 4500.88 1878.07C4503.95 1876.96 4506.9 1875.51 4509.71 1873.72L4513.55 1880.63C4510.48 1882.68 4506.94 1884.43 4502.93 1885.88C4499 1887.33 4494.52 1888.06 4489.49 1888.06Z" fill="black"/>
<path d="M1630.5 470.166L1694.82 561.768L1698.46 566.952L1704.7 565.876L1874.36 536.638L1772.84 622.207L1764.01 629.653L1772.65 637.328L1819.18 678.678L1660.55 645.403L1657.3 644.72L1654.28 646.124L1502.49 716.79L1546.53 634.575L1552.83 622.807L1539.77 620.066L1404.17 591.621L1621.67 565.953L1630.5 564.911V556.021V470.166Z" stroke="#4C89FF" stroke-width="20"/>
</svg>
