<svg width="777" height="585" viewBox="0 0 777 585" fill="none" xmlns="http://www.w3.org/2000/svg">
<rect x="23.5" y="113.5" width="299" height="399" fill="white" stroke="black"/>
<rect x="435.5" y="113.5" width="299" height="399" fill="white" stroke="black"/>
<path d="M324.768 114.768C325.744 113.791 325.744 112.209 324.768 111.232L308.858 95.3223C307.882 94.346 306.299 94.346 305.322 95.3223C304.346 96.2986 304.346 97.8816 305.322 98.8579L319.464 113L305.322 127.142C304.346 128.118 304.346 129.701 305.322 130.678C306.299 131.654 307.882 131.654 308.858 130.678L324.768 114.768ZM23 115.5H323V110.5H23V115.5Z" fill="#FE2929"/>
<path d="M736.768 514.268C737.744 513.291 737.744 511.709 736.768 510.732L720.858 494.822C719.882 493.846 718.299 493.846 717.322 494.822C716.346 495.799 716.346 497.382 717.322 498.358L731.464 512.5L717.322 526.642C716.346 527.618 716.346 529.201 717.322 530.178C718.299 531.154 719.882 531.154 720.858 530.178L736.768 514.268ZM435 515H735V510H435V515Z" fill="#4C89FF"/>
<path opacity="0.5" d="M21.2322 514.768C22.2085 515.744 23.7915 515.744 24.7678 514.768L40.6777 498.858C41.654 497.882 41.654 496.299 40.6777 495.322C39.7014 494.346 38.1184 494.346 37.1421 495.322L23 509.464L8.85786 495.322C7.88155 494.346 6.29864 494.346 5.32233 495.322C4.34602 496.299 4.34602 497.882 5.32233 498.858L21.2322 514.768ZM20.5 113L20.5 513H25.5L25.5 113H20.5Z" fill="#FE2929"/>
<path d="M436.768 111.232C435.791 110.256 434.209 110.256 433.232 111.232L417.322 127.142C416.346 128.118 416.346 129.701 417.322 130.678C418.299 131.654 419.882 131.654 420.858 130.678L435 116.536L449.142 130.678C450.118 131.654 451.701 131.654 452.678 130.678C453.654 129.701 453.654 128.118 452.678 127.142L436.768 111.232ZM437.5 513L437.5 113H432.5L432.5 513H437.5Z" fill="#4C89FF"/>
<rect x="98.5" y="205.5" width="114" height="95" stroke="black"/>
<rect x="510.5" y="205.5" width="114" height="95" stroke="black"/>
<path d="M154.817 205L168.23 241.669H213L176.52 264.331L189.932 301L154.817 278.337L119.702 301L133.115 264.331L98 241.669H141.405L154.817 205Z" fill="#4643EF"/>
<path d="M566.817 205L580.23 241.669H625L588.52 264.331L601.932 301L566.817 278.337L531.702 301L545.115 264.331L510 241.669H553.405L566.817 205Z" fill="#4643EF"/>
<path d="M61.32 188.04C58.5467 185.853 56.3467 183.253 54.72 180.24C53.12 177.2 52.32 173.747 52.32 169.88C52.32 166.013 53.12 162.56 54.72 159.52C56.3467 156.48 58.5467 153.88 61.32 151.72L63.12 153.4C60.4533 155.64 58.48 158.107 57.2 160.8C55.92 163.493 55.28 166.52 55.28 169.88C55.28 173.24 55.92 176.267 57.2 178.96C58.48 181.627 60.4533 184.093 63.12 186.36L61.32 188.04ZM70.5444 181L77.9444 170.92L71.1044 161.56H74.7444L77.8244 165.84C78.171 166.347 78.5444 166.88 78.9444 167.44C79.3444 168 79.731 168.56 80.1044 169.12H80.2644C80.611 168.56 80.971 168 81.3444 167.44C81.7444 166.853 82.1177 166.293 82.4644 165.76L85.3844 161.56H88.8644L81.9444 171.2L89.3844 181H85.7844L82.3844 176.52C81.9844 175.96 81.5577 175.373 81.1044 174.76C80.6777 174.147 80.251 173.56 79.8244 173H79.6644C79.2644 173.56 78.8644 174.133 78.4644 174.72C78.0644 175.307 77.6644 175.907 77.2644 176.52L74.0644 181H70.5444ZM100.769 189.52L99.8488 187.44C101.555 186.693 102.822 185.747 103.649 184.6C104.475 183.48 104.889 182.093 104.889 180.44L104.129 176.76L106.369 179.92C106.049 180.293 105.689 180.547 105.289 180.68C104.915 180.787 104.529 180.84 104.129 180.84C103.569 180.84 103.049 180.733 102.569 180.52C102.089 180.28 101.702 179.947 101.409 179.52C101.142 179.067 101.009 178.507 101.009 177.84C101.009 176.853 101.329 176.107 101.969 175.6C102.609 175.067 103.355 174.8 104.209 174.8C105.382 174.8 106.275 175.267 106.889 176.2C107.502 177.107 107.809 178.347 107.809 179.92C107.809 182.267 107.182 184.24 105.929 185.84C104.675 187.467 102.955 188.693 100.769 189.52ZM145.178 189.36C144.751 189.36 144.298 189.32 143.818 189.24C143.364 189.16 142.964 189.067 142.618 188.96L143.298 186.36C143.564 186.44 143.844 186.507 144.138 186.56C144.458 186.613 144.764 186.64 145.058 186.64C146.418 186.64 147.524 186.24 148.378 185.44C149.231 184.667 149.898 183.68 150.378 182.48L150.978 181.04L141.898 161.56H145.217L149.978 172.32C150.351 173.173 150.738 174.093 151.138 175.08C151.564 176.04 151.978 177 152.378 177.96H152.538C152.884 177.027 153.231 176.08 153.578 175.12C153.951 174.133 154.298 173.2 154.618 172.32L158.858 161.56H161.977L153.418 182.6C152.938 183.88 152.338 185.027 151.618 186.04C150.898 187.08 150.004 187.893 148.938 188.48C147.898 189.067 146.644 189.36 145.178 189.36ZM170.602 188.04L168.802 186.36C171.469 184.093 173.442 181.627 174.722 178.96C176.002 176.267 176.642 173.24 176.642 169.88C176.642 166.52 176.002 163.493 174.722 160.8C173.442 158.107 171.469 155.64 168.802 153.4L170.602 151.72C173.402 153.88 175.602 156.48 177.202 159.52C178.802 162.56 179.602 166.013 179.602 169.88C179.602 173.747 178.802 177.2 177.202 180.24C175.602 183.253 173.402 185.853 170.602 188.04Z" fill="black"/>
<path d="M17.32 100.04C14.5467 97.8533 12.3467 95.2533 10.72 92.24C9.12 89.2 8.32 85.7467 8.32 81.88C8.32 78.0133 9.12 74.56 10.72 71.52C12.3467 68.48 14.5467 65.88 17.32 63.72L19.12 65.4C16.4533 67.64 14.48 70.1067 13.2 72.8C11.92 75.4933 11.28 78.52 11.28 81.88C11.28 85.24 11.92 88.2667 13.2 90.96C14.48 93.6267 16.4533 96.0933 19.12 98.36L17.32 100.04ZM35.9844 93.48C34.091 93.48 32.4644 92.96 31.1044 91.92C29.7444 90.8533 28.691 89.3333 27.9444 87.36C27.1977 85.3867 26.8244 82.9867 26.8244 80.16C26.8244 75.8667 27.6377 72.6 29.2644 70.36C30.9177 68.12 33.1577 67 35.9844 67C38.8377 67 41.0777 68.12 42.7044 70.36C44.331 72.6 45.1444 75.8667 45.1444 80.16C45.1444 82.9867 44.771 85.3867 44.0244 87.36C43.3044 89.3333 42.251 90.8533 40.8644 91.92C39.5044 92.96 37.8777 93.48 35.9844 93.48ZM35.9844 90.84C37.1844 90.84 38.2377 90.4667 39.1444 89.72C40.051 88.9467 40.7577 87.7733 41.2644 86.2C41.7977 84.6 42.0644 82.5867 42.0644 80.16C42.0644 77.7067 41.7977 75.7067 41.2644 74.16C40.7577 72.6133 40.051 71.48 39.1444 70.76C38.2377 70.0133 37.1844 69.64 35.9844 69.64C34.811 69.64 33.7577 70.0133 32.8244 70.76C31.9177 71.48 31.1977 72.6133 30.6644 74.16C30.1577 75.7067 29.9044 77.7067 29.9044 80.16C29.9044 82.5867 30.1577 84.6 30.6644 86.2C31.1977 87.7733 31.9177 88.9467 32.8244 89.72C33.7577 90.4667 34.811 90.84 35.9844 90.84ZM35.9844 82.56C35.3177 82.56 34.731 82.32 34.2244 81.84C33.7444 81.36 33.5044 80.7067 33.5044 79.88C33.5044 79.0533 33.7444 78.4133 34.2244 77.96C34.731 77.48 35.3177 77.24 35.9844 77.24C36.6777 77.24 37.2644 77.48 37.7444 77.96C38.2244 78.4133 38.4644 79.0533 38.4644 79.88C38.4644 80.7067 38.2244 81.36 37.7444 81.84C37.2644 82.32 36.6777 82.56 35.9844 82.56ZM56.7688 101.52L55.8488 99.44C57.5554 98.6933 58.8221 97.7467 59.6488 96.6C60.4754 95.48 60.8888 94.0933 60.8888 92.44L60.1288 88.76L62.3688 91.92C62.0488 92.2933 61.6888 92.5467 61.2888 92.68C60.9154 92.7867 60.5288 92.84 60.1288 92.84C59.5688 92.84 59.0488 92.7333 58.5688 92.52C58.0888 92.28 57.7021 91.9467 57.4088 91.52C57.1421 91.0667 57.0088 90.5067 57.0088 89.84C57.0088 88.8533 57.3288 88.1067 57.9688 87.6C58.6088 87.0667 59.3554 86.8 60.2088 86.8C61.3821 86.8 62.2754 87.2667 62.8888 88.2C63.5021 89.1067 63.8088 90.3467 63.8088 91.92C63.8088 94.2667 63.1821 96.24 61.9288 97.84C60.6754 99.4667 58.9554 100.693 56.7688 101.52ZM83.9531 93.48C82.0598 93.48 80.4331 92.96 79.0731 91.92C77.7131 90.8533 76.6598 89.3333 75.9131 87.36C75.1665 85.3867 74.7931 82.9867 74.7931 80.16C74.7931 75.8667 75.6065 72.6 77.2331 70.36C78.8865 68.12 81.1265 67 83.9531 67C86.8065 67 89.0465 68.12 90.6731 70.36C92.2998 72.6 93.1131 75.8667 93.1131 80.16C93.1131 82.9867 92.7398 85.3867 91.9931 87.36C91.2731 89.3333 90.2198 90.8533 88.8331 91.92C87.4731 92.96 85.8465 93.48 83.9531 93.48ZM83.9531 90.84C85.1531 90.84 86.2065 90.4667 87.1131 89.72C88.0198 88.9467 88.7265 87.7733 89.2331 86.2C89.7665 84.6 90.0331 82.5867 90.0331 80.16C90.0331 77.7067 89.7665 75.7067 89.2331 74.16C88.7265 72.6133 88.0198 71.48 87.1131 70.76C86.2065 70.0133 85.1531 69.64 83.9531 69.64C82.7798 69.64 81.7265 70.0133 80.7931 70.76C79.8865 71.48 79.1665 72.6133 78.6331 74.16C78.1265 75.7067 77.8731 77.7067 77.8731 80.16C77.8731 82.5867 78.1265 84.6 78.6331 86.2C79.1665 87.7733 79.8865 88.9467 80.7931 89.72C81.7265 90.4667 82.7798 90.84 83.9531 90.84ZM83.9531 82.56C83.2865 82.56 82.6998 82.32 82.1931 81.84C81.7131 81.36 81.4731 80.7067 81.4731 79.88C81.4731 79.0533 81.7131 78.4133 82.1931 77.96C82.6998 77.48 83.2865 77.24 83.9531 77.24C84.6465 77.24 85.2331 77.48 85.7131 77.96C86.1931 78.4133 86.4331 79.0533 86.4331 79.88C86.4331 80.7067 86.1931 81.36 85.7131 81.84C85.2331 82.32 84.6465 82.56 83.9531 82.56ZM102.618 100.04L100.818 98.36C103.484 96.0933 105.458 93.6267 106.738 90.96C108.018 88.2667 108.658 85.24 108.658 81.88C108.658 78.52 108.018 75.4933 106.738 72.8C105.458 70.1067 103.484 67.64 100.818 65.4L102.618 63.72C105.418 65.88 107.618 68.48 109.218 71.52C110.818 74.56 111.618 78.0133 111.618 81.88C111.618 85.7467 110.818 89.2 109.218 92.24C107.618 95.2533 105.418 97.8533 102.618 100.04Z" fill="#FE2929"/>
<path d="M429.32 562.04C426.547 559.853 424.347 557.253 422.72 554.24C421.12 551.2 420.32 547.747 420.32 543.88C420.32 540.013 421.12 536.56 422.72 533.52C424.347 530.48 426.547 527.88 429.32 525.72L431.12 527.4C428.453 529.64 426.48 532.107 425.2 534.8C423.92 537.493 423.28 540.52 423.28 543.88C423.28 547.24 423.92 550.267 425.2 552.96C426.48 555.627 428.453 558.093 431.12 560.36L429.32 562.04ZM447.984 555.48C446.091 555.48 444.464 554.96 443.104 553.92C441.744 552.853 440.691 551.333 439.944 549.36C439.198 547.387 438.824 544.987 438.824 542.16C438.824 537.867 439.638 534.6 441.264 532.36C442.918 530.12 445.158 529 447.984 529C450.838 529 453.078 530.12 454.704 532.36C456.331 534.6 457.144 537.867 457.144 542.16C457.144 544.987 456.771 547.387 456.024 549.36C455.304 551.333 454.251 552.853 452.864 553.92C451.504 554.96 449.878 555.48 447.984 555.48ZM447.984 552.84C449.184 552.84 450.238 552.467 451.144 551.72C452.051 550.947 452.758 549.773 453.264 548.2C453.798 546.6 454.064 544.587 454.064 542.16C454.064 539.707 453.798 537.707 453.264 536.16C452.758 534.613 452.051 533.48 451.144 532.76C450.238 532.013 449.184 531.64 447.984 531.64C446.811 531.64 445.758 532.013 444.824 532.76C443.918 533.48 443.198 534.613 442.664 536.16C442.158 537.707 441.904 539.707 441.904 542.16C441.904 544.587 442.158 546.6 442.664 548.2C443.198 549.773 443.918 550.947 444.824 551.72C445.758 552.467 446.811 552.84 447.984 552.84ZM447.984 544.56C447.318 544.56 446.731 544.32 446.224 543.84C445.744 543.36 445.504 542.707 445.504 541.88C445.504 541.053 445.744 540.413 446.224 539.96C446.731 539.48 447.318 539.24 447.984 539.24C448.678 539.24 449.264 539.48 449.744 539.96C450.224 540.413 450.464 541.053 450.464 541.88C450.464 542.707 450.224 543.36 449.744 543.84C449.264 544.32 448.678 544.56 447.984 544.56ZM468.769 563.52L467.849 561.44C469.555 560.693 470.822 559.747 471.649 558.6C472.475 557.48 472.889 556.093 472.889 554.44L472.129 550.76L474.369 553.92C474.049 554.293 473.689 554.547 473.289 554.68C472.915 554.787 472.529 554.84 472.129 554.84C471.569 554.84 471.049 554.733 470.569 554.52C470.089 554.28 469.702 553.947 469.409 553.52C469.142 553.067 469.009 552.507 469.009 551.84C469.009 550.853 469.329 550.107 469.969 549.6C470.609 549.067 471.355 548.8 472.209 548.8C473.382 548.8 474.275 549.267 474.889 550.2C475.502 551.107 475.809 552.347 475.809 553.92C475.809 556.267 475.182 558.24 473.929 559.84C472.675 561.467 470.955 562.693 468.769 563.52ZM495.953 555.48C494.06 555.48 492.433 554.96 491.073 553.92C489.713 552.853 488.66 551.333 487.913 549.36C487.166 547.387 486.793 544.987 486.793 542.16C486.793 537.867 487.606 534.6 489.233 532.36C490.886 530.12 493.126 529 495.953 529C498.806 529 501.046 530.12 502.673 532.36C504.3 534.6 505.113 537.867 505.113 542.16C505.113 544.987 504.74 547.387 503.993 549.36C503.273 551.333 502.22 552.853 500.833 553.92C499.473 554.96 497.846 555.48 495.953 555.48ZM495.953 552.84C497.153 552.84 498.206 552.467 499.113 551.72C500.02 550.947 500.726 549.773 501.233 548.2C501.766 546.6 502.033 544.587 502.033 542.16C502.033 539.707 501.766 537.707 501.233 536.16C500.726 534.613 500.02 533.48 499.113 532.76C498.206 532.013 497.153 531.64 495.953 531.64C494.78 531.64 493.726 532.013 492.793 532.76C491.886 533.48 491.166 534.613 490.633 536.16C490.126 537.707 489.873 539.707 489.873 542.16C489.873 544.587 490.126 546.6 490.633 548.2C491.166 549.773 491.886 550.947 492.793 551.72C493.726 552.467 494.78 552.84 495.953 552.84ZM495.953 544.56C495.286 544.56 494.7 544.32 494.193 543.84C493.713 543.36 493.473 542.707 493.473 541.88C493.473 541.053 493.713 540.413 494.193 539.96C494.7 539.48 495.286 539.24 495.953 539.24C496.646 539.24 497.233 539.48 497.713 539.96C498.193 540.413 498.433 541.053 498.433 541.88C498.433 542.707 498.193 543.36 497.713 543.84C497.233 544.32 496.646 544.56 495.953 544.56ZM514.618 562.04L512.818 560.36C515.484 558.093 517.458 555.627 518.738 552.96C520.018 550.267 520.658 547.24 520.658 543.88C520.658 540.52 520.018 537.493 518.738 534.8C517.458 532.107 515.484 529.64 512.818 527.4L514.618 525.72C517.418 527.88 519.618 530.48 521.218 533.52C522.818 536.56 523.618 540.013 523.618 543.88C523.618 547.747 522.818 551.2 521.218 554.24C519.618 557.253 517.418 559.853 514.618 562.04Z" fill="#4C89FF"/>
<path d="M473.32 350.04C470.547 347.853 468.347 345.253 466.72 342.24C465.12 339.2 464.32 335.747 464.32 331.88C464.32 328.013 465.12 324.56 466.72 321.52C468.347 318.48 470.547 315.88 473.32 313.72L475.12 315.4C472.453 317.64 470.48 320.107 469.2 322.8C467.92 325.493 467.28 328.52 467.28 331.88C467.28 335.24 467.92 338.267 469.2 340.96C470.48 343.627 472.453 346.093 475.12 348.36L473.32 350.04ZM482.544 343L489.944 332.92L483.104 323.56H486.744L489.824 327.84C490.171 328.347 490.544 328.88 490.944 329.44C491.344 330 491.731 330.56 492.104 331.12H492.264C492.611 330.56 492.971 330 493.344 329.44C493.744 328.853 494.118 328.293 494.464 327.76L497.384 323.56H500.864L493.944 333.2L501.384 343H497.784L494.384 338.52C493.984 337.96 493.558 337.373 493.104 336.76C492.678 336.147 492.251 335.56 491.824 335H491.664C491.264 335.56 490.864 336.133 490.464 336.72C490.064 337.307 489.664 337.907 489.264 338.52L486.064 343H482.544ZM512.769 351.52L511.849 349.44C513.555 348.693 514.822 347.747 515.649 346.6C516.475 345.48 516.889 344.093 516.889 342.44L516.129 338.76L518.369 341.92C518.049 342.293 517.689 342.547 517.289 342.68C516.915 342.787 516.529 342.84 516.129 342.84C515.569 342.84 515.049 342.733 514.569 342.52C514.089 342.28 513.702 341.947 513.409 341.52C513.142 341.067 513.009 340.507 513.009 339.84C513.009 338.853 513.329 338.107 513.969 337.6C514.609 337.067 515.355 336.8 516.209 336.8C517.382 336.8 518.275 337.267 518.889 338.2C519.502 339.107 519.809 340.347 519.809 341.92C519.809 344.267 519.182 346.24 517.929 347.84C516.675 349.467 514.955 350.693 512.769 351.52ZM678.539 350.04L676.739 348.36C679.406 346.093 681.379 343.627 682.659 340.96C683.939 338.267 684.579 335.24 684.579 331.88C684.579 328.52 683.939 325.493 682.659 322.8C681.379 320.107 679.406 317.64 676.739 315.4L678.539 313.72C681.339 315.88 683.539 318.48 685.139 321.52C686.739 324.56 687.539 328.013 687.539 331.88C687.539 335.747 686.739 339.2 685.139 342.24C683.539 345.253 681.339 347.853 678.539 350.04Z" fill="black"/>
<path d="M555.098 343V316.76H558.458V327.76H569.418V316.76H572.778V343H569.418V330.64H558.458V343H555.098ZM579.322 331.04V328.56H596.522V331.04H579.322ZM603.626 343V314.52H606.906V322.28L606.706 326.88H606.826C607.813 325.813 608.893 324.92 610.066 324.2C611.24 323.453 612.586 323.08 614.106 323.08C616.4 323.08 618.093 323.747 619.186 325.08C620.28 326.413 620.826 328.36 620.826 330.92V343H617.546V331.36C617.546 329.52 617.2 328.16 616.506 327.28C615.813 326.373 614.666 325.92 613.066 325.92C611.92 325.92 610.893 326.213 609.986 326.8C609.08 327.387 608.053 328.267 606.906 329.44V343H603.626ZM627.291 331.04V328.56H644.491V331.04H627.291ZM653.115 351.36C652.688 351.36 652.235 351.32 651.755 351.24C651.302 351.16 650.902 351.067 650.555 350.96L651.235 348.36C651.502 348.44 651.782 348.507 652.075 348.56C652.395 348.613 652.702 348.64 652.995 348.64C654.355 348.64 655.462 348.24 656.315 347.44C657.168 346.667 657.835 345.68 658.315 344.48L658.915 343.04L649.835 323.56H653.155L657.915 334.32C658.288 335.173 658.675 336.093 659.075 337.08C659.502 338.04 659.915 339 660.315 339.96H660.475C660.822 339.027 661.168 338.08 661.515 337.12C661.888 336.133 662.235 335.2 662.555 334.32L666.795 323.56H669.915L661.355 344.6C660.875 345.88 660.275 347.027 659.555 348.04C658.835 349.08 657.942 349.893 656.875 350.48C655.835 351.067 654.582 351.36 653.115 351.36Z" fill="#4C89FF"/>
<path d="M21.384 566V554.768L10.824 534.512H15.048L19.8 543.872C20.408 545.056 21 546.256 21.576 547.472C22.152 548.688 22.76 549.936 23.4 551.216H23.592C24.232 549.936 24.856 548.688 25.464 547.472C26.072 546.256 26.68 545.04 27.288 543.824L31.848 534.512H35.976L25.416 554.768V566H21.384Z" fill="#FE2929"/>
<path d="M433.384 97V85.768L422.824 65.512H427.048L431.8 74.872C432.408 76.056 433 77.256 433.576 78.472C434.152 79.688 434.76 80.936 435.4 82.216H435.592C436.232 80.936 436.856 79.688 437.464 78.472C438.072 77.256 438.68 76.04 439.288 74.824L443.848 65.512H447.976L437.416 85.768V97H433.384Z" fill="#4C89FF"/>
<path d="M338.592 130L348 113.728L339.216 98.512H343.632L348.048 106.576C348.464 107.28 348.864 107.984 349.248 108.688C349.632 109.392 350.08 110.208 350.592 111.136H350.784C351.2 110.208 351.584 109.392 351.936 108.688C352.288 107.984 352.656 107.28 353.04 106.576L357.36 98.512H361.584L352.8 113.92L362.208 130H357.792L353.04 121.504C352.624 120.736 352.176 119.952 351.696 119.152C351.248 118.32 350.768 117.424 350.256 116.464H350.064C349.616 117.424 349.184 118.32 348.768 119.152C348.352 119.952 347.936 120.736 347.52 121.504L342.816 130H338.592Z" fill="#FE2929"/>
<path d="M750.592 528L760 511.728L751.216 496.512H755.632L760.048 504.576C760.464 505.28 760.864 505.984 761.248 506.688C761.632 507.392 762.08 508.208 762.592 509.136H762.784C763.2 508.208 763.584 507.392 763.936 506.688C764.288 505.984 764.656 505.28 765.04 504.576L769.36 496.512H773.584L764.8 511.92L774.208 528H769.792L765.04 519.504C764.624 518.736 764.176 517.952 763.696 517.152C763.248 516.32 762.768 515.424 762.256 514.464H762.064C761.616 515.424 761.184 516.32 760.768 517.152C760.352 517.952 759.936 518.736 759.52 519.504L754.816 528H750.592Z" fill="#4C89FF"/>
<circle cx="98" cy="205" r="8" fill="black"/>
<circle cx="510" cy="301" r="8" fill="black"/>
<path d="M8.352 40L1.008 16.456H5.436L8.748 28.3C9.156 29.62 9.504 30.892 9.792 32.116C10.104 33.316 10.452 34.6 10.836 35.968H10.98C11.388 34.6 11.736 33.316 12.024 32.116C12.336 30.892 12.672 29.62 13.032 28.3L16.308 16.456H20.592L13.284 40H8.352ZM32.2779 40V25.6H24.6099V22.324H36.4179V40H32.2779ZM34.0419 19.084C33.2019 19.084 32.4939 18.832 31.9179 18.328C31.3659 17.824 31.0899 17.152 31.0899 16.312C31.0899 15.472 31.3659 14.8 31.9179 14.296C32.4939 13.768 33.2019 13.504 34.0419 13.504C34.9059 13.504 35.6139 13.768 36.1659 14.296C36.7179 14.8 36.9939 15.472 36.9939 16.312C36.9939 17.152 36.7179 17.824 36.1659 18.328C35.6139 18.832 34.9059 19.084 34.0419 19.084ZM55.0519 40.432C53.2519 40.432 51.6199 40.072 50.1559 39.352C48.6919 38.608 47.5279 37.552 46.6639 36.184C45.7999 34.792 45.3679 33.112 45.3679 31.144C45.3679 29.224 45.7999 27.58 46.6639 26.212C47.5279 24.82 48.6559 23.752 50.0479 23.008C51.4399 22.264 52.9279 21.892 54.5119 21.892C56.2639 21.892 57.7399 22.252 58.9399 22.972C60.1639 23.692 61.0879 24.688 61.7119 25.96C62.3599 27.208 62.6839 28.648 62.6839 30.28C62.6839 30.688 62.6599 31.084 62.6119 31.468C62.5879 31.828 62.5519 32.128 62.5039 32.368H48.3559V29.416H59.8399L59.0479 30.352C59.0479 28.6 58.6519 27.292 57.8599 26.428C57.0919 25.54 56.0119 25.096 54.6199 25.096C53.6359 25.096 52.7479 25.324 51.9559 25.78C51.1879 26.236 50.5759 26.92 50.1199 27.832C49.6639 28.72 49.4359 29.824 49.4359 31.144C49.4359 32.512 49.6879 33.64 50.1919 34.528C50.7199 35.416 51.4399 36.088 52.3519 36.544C53.2879 37 54.3679 37.228 55.5919 37.228C56.5279 37.228 57.3919 37.096 58.1839 36.832C58.9759 36.568 59.7679 36.208 60.5599 35.752L61.9639 38.344C61.0279 38.944 59.9719 39.448 58.7959 39.856C57.6199 40.24 56.3719 40.432 55.0519 40.432ZM68.3218 40L64.9738 22.324H69.0418L70.6258 31.504C70.7698 32.368 70.8898 33.22 70.9858 34.06C71.1058 34.876 71.2138 35.716 71.3098 36.58H71.4178C71.5378 35.716 71.6698 34.864 71.8138 34.024C71.9818 33.184 72.1618 32.344 72.3538 31.504L73.9738 24.052H77.3938L78.9778 31.504C79.1698 32.368 79.3498 33.22 79.5178 34.06C79.7098 34.876 79.8658 35.716 79.9858 36.58H80.1298C80.2498 35.716 80.3458 34.876 80.4178 34.06C80.5138 33.22 80.6338 32.368 80.7778 31.504L82.2898 22.324H86.1418L82.9018 40H77.8618L76.3858 32.944C76.2658 32.248 76.1338 31.468 75.9898 30.604C75.8698 29.74 75.7498 28.78 75.6298 27.724H75.4858C75.3658 28.636 75.2458 29.512 75.1258 30.352C75.0298 31.192 74.9098 32.056 74.7658 32.944L73.3258 40H68.3218ZM120.674 40.432C119.21 40.432 117.83 40.168 116.534 39.64C115.262 39.112 114.134 38.332 113.15 37.3C112.19 36.268 111.434 34.996 110.882 33.484C110.354 31.972 110.09 30.244 110.09 28.3C110.09 25.732 110.558 23.536 111.494 21.712C112.454 19.864 113.75 18.46 115.382 17.5C117.038 16.516 118.898 16.024 120.962 16.024C122.426 16.024 123.734 16.324 124.886 16.924C126.038 17.524 126.974 18.208 127.694 18.976L125.39 21.568C124.814 20.968 124.166 20.5 123.446 20.164C122.726 19.828 121.898 19.66 120.962 19.66C119.666 19.66 118.514 20.008 117.506 20.704C116.522 21.376 115.754 22.348 115.202 23.62C114.65 24.892 114.374 26.416 114.374 28.192C114.374 29.968 114.65 31.504 115.202 32.8C115.754 34.096 116.534 35.092 117.542 35.788C118.55 36.46 119.726 36.796 121.07 36.796C122.054 36.796 122.93 36.592 123.698 36.184C124.466 35.752 125.186 35.176 125.858 34.456L128.162 37.012C127.226 38.116 126.134 38.968 124.886 39.568C123.638 40.144 122.234 40.432 120.674 40.432ZM140.316 40.432C138.756 40.432 137.304 40.072 135.96 39.352C134.616 38.608 133.524 37.552 132.684 36.184C131.844 34.792 131.424 33.124 131.424 31.18C131.424 29.212 131.844 27.544 132.684 26.176C133.524 24.784 134.616 23.728 135.96 23.008C137.304 22.264 138.756 21.892 140.316 21.892C141.876 21.892 143.328 22.264 144.672 23.008C146.016 23.728 147.108 24.784 147.948 26.176C148.788 27.544 149.208 29.212 149.208 31.18C149.208 33.124 148.788 34.792 147.948 36.184C147.108 37.552 146.016 38.608 144.672 39.352C143.328 40.072 141.876 40.432 140.316 40.432ZM140.316 37.048C141.276 37.048 142.104 36.808 142.8 36.328C143.496 35.848 144.024 35.164 144.384 34.276C144.744 33.388 144.924 32.356 144.924 31.18C144.924 30.004 144.744 28.972 144.384 28.084C144.024 27.196 143.496 26.512 142.8 26.032C142.104 25.528 141.276 25.276 140.316 25.276C139.356 25.276 138.528 25.528 137.832 26.032C137.16 26.512 136.632 27.196 136.248 28.084C135.888 28.972 135.708 30.004 135.708 31.18C135.708 32.356 135.888 33.388 136.248 34.276C136.632 35.164 137.16 35.848 137.832 36.328C138.528 36.808 139.356 37.048 140.316 37.048ZM161.902 40.432C160.342 40.432 158.89 40.072 157.546 39.352C156.202 38.608 155.11 37.552 154.27 36.184C153.43 34.792 153.01 33.124 153.01 31.18C153.01 29.212 153.43 27.544 154.27 26.176C155.11 24.784 156.202 23.728 157.546 23.008C158.89 22.264 160.342 21.892 161.902 21.892C163.462 21.892 164.914 22.264 166.258 23.008C167.602 23.728 168.694 24.784 169.534 26.176C170.374 27.544 170.794 29.212 170.794 31.18C170.794 33.124 170.374 34.792 169.534 36.184C168.694 37.552 167.602 38.608 166.258 39.352C164.914 40.072 163.462 40.432 161.902 40.432ZM161.902 37.048C162.862 37.048 163.69 36.808 164.386 36.328C165.082 35.848 165.61 35.164 165.97 34.276C166.33 33.388 166.51 32.356 166.51 31.18C166.51 30.004 166.33 28.972 165.97 28.084C165.61 27.196 165.082 26.512 164.386 26.032C163.69 25.528 162.862 25.276 161.902 25.276C160.942 25.276 160.114 25.528 159.418 26.032C158.746 26.512 158.218 27.196 157.834 28.084C157.474 28.972 157.294 30.004 157.294 31.18C157.294 32.356 157.474 33.388 157.834 34.276C158.218 35.164 158.746 35.848 159.418 36.328C160.114 36.808 160.942 37.048 161.902 37.048ZM177.368 40V22.324H180.788L181.148 26.32H181.256C182.144 24.88 183.236 23.788 184.532 23.044C185.852 22.276 187.268 21.892 188.78 21.892C189.5 21.892 190.124 21.952 190.652 22.072C191.18 22.192 191.696 22.372 192.2 22.612L191.336 26.104C190.76 25.912 190.244 25.78 189.788 25.708C189.356 25.612 188.804 25.564 188.132 25.564C186.932 25.564 185.756 25.912 184.604 26.608C183.476 27.304 182.456 28.516 181.544 30.244V40H177.368ZM203.741 40.432C201.485 40.432 199.661 39.616 198.269 37.984C196.877 36.352 196.181 34.084 196.181 31.18C196.181 29.26 196.553 27.604 197.297 26.212C198.041 24.82 199.013 23.752 200.213 23.008C201.413 22.264 202.673 21.892 203.993 21.892C205.001 21.892 205.889 22.072 206.657 22.432C207.449 22.792 208.181 23.308 208.853 23.98H208.961L208.745 20.992V14.584H212.921V40H209.501L209.177 37.948H209.069C208.397 38.62 207.593 39.208 206.657 39.712C205.721 40.192 204.749 40.432 203.741 40.432ZM204.749 37.012C205.469 37.012 206.165 36.844 206.837 36.508C207.509 36.148 208.145 35.608 208.745 34.888V26.932C208.121 26.332 207.497 25.912 206.873 25.672C206.249 25.432 205.613 25.312 204.965 25.312C204.149 25.312 203.393 25.54 202.697 25.996C202.025 26.452 201.485 27.112 201.077 27.976C200.669 28.84 200.465 29.896 200.465 31.144C200.465 33.04 200.837 34.492 201.581 35.5C202.349 36.508 203.405 37.012 204.749 37.012ZM226.551 40V25.6H218.883V22.324H230.691V40H226.551ZM228.315 19.084C227.475 19.084 226.767 18.832 226.191 18.328C225.639 17.824 225.363 17.152 225.363 16.312C225.363 15.472 225.639 14.8 226.191 14.296C226.767 13.768 227.475 13.504 228.315 13.504C229.179 13.504 229.887 13.768 230.439 14.296C230.991 14.8 231.267 15.472 231.267 16.312C231.267 17.152 230.991 17.824 230.439 18.328C229.887 18.832 229.179 19.084 228.315 19.084ZM240.397 40V22.324H243.817L244.141 24.988H244.285C245.125 24.124 246.049 23.392 247.057 22.792C248.089 22.192 249.289 21.892 250.657 21.892C252.697 21.892 254.197 22.516 255.157 23.764C256.117 25.012 256.597 26.776 256.597 29.056V40H252.421V29.596C252.421 28.18 252.169 27.136 251.665 26.464C251.161 25.792 250.309 25.456 249.109 25.456C248.245 25.456 247.477 25.66 246.805 26.068C246.133 26.476 245.389 27.1 244.573 27.94V40H240.397ZM267.491 40.432C266.339 40.432 265.319 40.216 264.431 39.784C263.543 39.328 262.847 38.716 262.343 37.948C261.839 37.18 261.587 36.28 261.587 35.248C261.587 33.28 262.523 31.78 264.395 30.748C266.291 29.692 269.423 29.008 273.791 28.696C273.743 28.048 273.563 27.46 273.251 26.932C272.963 26.404 272.519 25.996 271.919 25.708C271.319 25.396 270.539 25.24 269.579 25.24C268.907 25.24 268.247 25.324 267.599 25.492C266.951 25.66 266.303 25.888 265.655 26.176C265.031 26.464 264.407 26.776 263.783 27.112L262.271 24.34C262.991 23.908 263.783 23.512 264.647 23.152C265.511 22.768 266.423 22.468 267.383 22.252C268.343 22.012 269.327 21.892 270.335 21.892C271.991 21.892 273.371 22.192 274.475 22.792C275.603 23.368 276.455 24.232 277.031 25.384C277.631 26.512 277.931 27.892 277.931 29.524V40H274.547L274.223 37.804H274.115C273.179 38.524 272.135 39.148 270.983 39.676C269.855 40.18 268.691 40.432 267.491 40.432ZM268.751 37.192C269.639 37.192 270.491 37 271.307 36.616C272.147 36.208 272.975 35.68 273.791 35.032V31.288C271.679 31.432 270.023 31.672 268.823 32.008C267.623 32.32 266.783 32.728 266.303 33.232C265.823 33.736 265.583 34.3 265.583 34.924C265.583 35.452 265.727 35.884 266.015 36.22C266.303 36.556 266.675 36.808 267.131 36.976C267.611 37.12 268.151 37.192 268.751 37.192ZM294.693 40.432C292.893 40.432 291.465 40.12 290.409 39.496C289.353 38.848 288.597 37.96 288.141 36.832C287.685 35.704 287.457 34.396 287.457 32.908V25.6H282.741V22.504L287.637 22.324L288.177 16.78H291.597V22.324H299.661V25.6H291.597V32.872C291.597 33.832 291.729 34.636 291.993 35.284C292.257 35.908 292.689 36.376 293.289 36.688C293.889 36.976 294.681 37.12 295.665 37.12C296.433 37.12 297.129 37.06 297.753 36.94C298.377 36.82 298.977 36.652 299.553 36.436L300.345 39.424C299.553 39.688 298.701 39.916 297.789 40.108C296.877 40.324 295.845 40.432 294.693 40.432ZM314.083 40.432C312.283 40.432 310.651 40.072 309.187 39.352C307.723 38.608 306.559 37.552 305.695 36.184C304.831 34.792 304.399 33.112 304.399 31.144C304.399 29.224 304.831 27.58 305.695 26.212C306.559 24.82 307.687 23.752 309.079 23.008C310.471 22.264 311.959 21.892 313.543 21.892C315.295 21.892 316.771 22.252 317.971 22.972C319.195 23.692 320.119 24.688 320.743 25.96C321.391 27.208 321.715 28.648 321.715 30.28C321.715 30.688 321.691 31.084 321.643 31.468C321.619 31.828 321.583 32.128 321.535 32.368H307.387V29.416H318.871L318.079 30.352C318.079 28.6 317.683 27.292 316.891 26.428C316.123 25.54 315.043 25.096 313.651 25.096C312.667 25.096 311.779 25.324 310.987 25.78C310.219 26.236 309.607 26.92 309.151 27.832C308.695 28.72 308.467 29.824 308.467 31.144C308.467 32.512 308.719 33.64 309.223 34.528C309.751 35.416 310.471 36.088 311.383 36.544C312.319 37 313.399 37.228 314.623 37.228C315.559 37.228 316.423 37.096 317.215 36.832C318.007 36.568 318.799 36.208 319.591 35.752L320.995 38.344C320.059 38.944 319.003 39.448 317.827 39.856C316.651 40.24 315.403 40.432 314.083 40.432ZM334.697 40.432C333.041 40.432 331.457 40.168 329.945 39.64C328.433 39.088 327.125 38.44 326.021 37.696L327.821 35.068C328.877 35.764 330.017 36.316 331.241 36.724C332.465 37.108 333.797 37.3 335.237 37.3C336.461 37.3 337.361 37.096 337.937 36.688C338.537 36.256 338.837 35.752 338.837 35.176C338.837 34.888 338.765 34.624 338.621 34.384C338.501 34.144 338.273 33.928 337.937 33.736C337.601 33.52 337.109 33.316 336.461 33.124C335.813 32.932 334.973 32.728 333.941 32.512C331.589 32.008 329.861 31.324 328.757 30.46C327.653 29.596 327.101 28.504 327.101 27.184C327.101 25.624 327.773 24.352 329.117 23.368C330.485 22.384 332.405 21.892 334.877 21.892C336.341 21.892 337.709 22.132 338.981 22.612C340.277 23.092 341.369 23.632 342.257 24.232L340.349 26.788C339.509 26.212 338.585 25.78 337.577 25.492C336.569 25.18 335.549 25.024 334.517 25.024C333.725 25.024 333.089 25.108 332.609 25.276C332.153 25.444 331.805 25.684 331.565 25.996C331.349 26.284 331.241 26.608 331.241 26.968C331.241 27.592 331.601 28.06 332.321 28.372C333.041 28.684 334.217 29.02 335.849 29.38C337.745 29.788 339.209 30.256 340.241 30.784C341.273 31.288 341.981 31.876 342.365 32.548C342.773 33.196 342.977 34 342.977 34.96C342.977 35.968 342.653 36.892 342.005 37.732C341.381 38.548 340.457 39.208 339.233 39.712C338.009 40.192 336.497 40.432 334.697 40.432Z" fill="black"/>
<path d="M426.168 40V16.456H433.908C435.636 16.456 437.172 16.684 438.516 17.14C439.86 17.596 440.916 18.352 441.684 19.408C442.476 20.464 442.872 21.904 442.872 23.728C442.872 25.456 442.476 26.884 441.684 28.012C440.916 29.14 439.848 29.98 438.48 30.532C437.136 31.084 435.612 31.36 433.908 31.36H430.344V40H426.168ZM430.344 28.012H433.584C435.336 28.012 436.632 27.652 437.472 26.932C438.336 26.212 438.768 25.144 438.768 23.728C438.768 22.24 438.324 21.22 437.436 20.668C436.572 20.092 435.288 19.804 433.584 19.804H430.344V28.012ZM447.394 40V16.456H453.586C455.89 16.456 457.87 16.888 459.526 17.752C461.206 18.616 462.478 19.912 463.342 21.64C464.23 23.368 464.674 25.528 464.674 28.12C464.674 30.736 464.23 32.932 463.342 34.708C462.478 36.46 461.23 37.78 459.598 38.668C457.966 39.556 456.034 40 453.802 40H447.394ZM451.57 36.616H453.334C454.846 36.616 456.118 36.316 457.15 35.716C458.206 35.092 459.01 34.156 459.562 32.908C460.114 31.66 460.39 30.064 460.39 28.12C460.39 26.2 460.114 24.628 459.562 23.404C459.01 22.18 458.206 21.28 457.15 20.704C456.118 20.128 454.846 19.84 453.334 19.84H451.57V36.616ZM470.456 40V16.456H485.504V19.984H474.632V26.644H483.884V30.172H474.632V40H470.456ZM522.088 40.432C520.624 40.432 519.244 40.168 517.948 39.64C516.676 39.112 515.548 38.332 514.564 37.3C513.604 36.268 512.848 34.996 512.296 33.484C511.768 31.972 511.504 30.244 511.504 28.3C511.504 25.732 511.972 23.536 512.908 21.712C513.868 19.864 515.164 18.46 516.796 17.5C518.452 16.516 520.312 16.024 522.376 16.024C523.84 16.024 525.148 16.324 526.3 16.924C527.452 17.524 528.388 18.208 529.108 18.976L526.804 21.568C526.228 20.968 525.58 20.5 524.86 20.164C524.14 19.828 523.312 19.66 522.376 19.66C521.08 19.66 519.928 20.008 518.92 20.704C517.936 21.376 517.168 22.348 516.616 23.62C516.064 24.892 515.788 26.416 515.788 28.192C515.788 29.968 516.064 31.504 516.616 32.8C517.168 34.096 517.948 35.092 518.956 35.788C519.964 36.46 521.14 36.796 522.484 36.796C523.468 36.796 524.344 36.592 525.112 36.184C525.88 35.752 526.6 35.176 527.272 34.456L529.576 37.012C528.64 38.116 527.548 38.968 526.3 39.568C525.052 40.144 523.648 40.432 522.088 40.432ZM541.73 40.432C540.17 40.432 538.718 40.072 537.374 39.352C536.03 38.608 534.938 37.552 534.098 36.184C533.258 34.792 532.838 33.124 532.838 31.18C532.838 29.212 533.258 27.544 534.098 26.176C534.938 24.784 536.03 23.728 537.374 23.008C538.718 22.264 540.17 21.892 541.73 21.892C543.29 21.892 544.742 22.264 546.086 23.008C547.43 23.728 548.522 24.784 549.362 26.176C550.202 27.544 550.622 29.212 550.622 31.18C550.622 33.124 550.202 34.792 549.362 36.184C548.522 37.552 547.43 38.608 546.086 39.352C544.742 40.072 543.29 40.432 541.73 40.432ZM541.73 37.048C542.69 37.048 543.518 36.808 544.214 36.328C544.91 35.848 545.438 35.164 545.798 34.276C546.158 33.388 546.338 32.356 546.338 31.18C546.338 30.004 546.158 28.972 545.798 28.084C545.438 27.196 544.91 26.512 544.214 26.032C543.518 25.528 542.69 25.276 541.73 25.276C540.77 25.276 539.942 25.528 539.246 26.032C538.574 26.512 538.046 27.196 537.662 28.084C537.302 28.972 537.122 30.004 537.122 31.18C537.122 32.356 537.302 33.388 537.662 34.276C538.046 35.164 538.574 35.848 539.246 36.328C539.942 36.808 540.77 37.048 541.73 37.048ZM563.316 40.432C561.756 40.432 560.304 40.072 558.96 39.352C557.616 38.608 556.524 37.552 555.684 36.184C554.844 34.792 554.424 33.124 554.424 31.18C554.424 29.212 554.844 27.544 555.684 26.176C556.524 24.784 557.616 23.728 558.96 23.008C560.304 22.264 561.756 21.892 563.316 21.892C564.876 21.892 566.328 22.264 567.672 23.008C569.016 23.728 570.108 24.784 570.948 26.176C571.788 27.544 572.208 29.212 572.208 31.18C572.208 33.124 571.788 34.792 570.948 36.184C570.108 37.552 569.016 38.608 567.672 39.352C566.328 40.072 564.876 40.432 563.316 40.432ZM563.316 37.048C564.276 37.048 565.104 36.808 565.8 36.328C566.496 35.848 567.024 35.164 567.384 34.276C567.744 33.388 567.924 32.356 567.924 31.18C567.924 30.004 567.744 28.972 567.384 28.084C567.024 27.196 566.496 26.512 565.8 26.032C565.104 25.528 564.276 25.276 563.316 25.276C562.356 25.276 561.528 25.528 560.832 26.032C560.16 26.512 559.632 27.196 559.248 28.084C558.888 28.972 558.708 30.004 558.708 31.18C558.708 32.356 558.888 33.388 559.248 34.276C559.632 35.164 560.16 35.848 560.832 36.328C561.528 36.808 562.356 37.048 563.316 37.048ZM578.782 40V22.324H582.202L582.562 26.32H582.67C583.558 24.88 584.65 23.788 585.946 23.044C587.266 22.276 588.682 21.892 590.194 21.892C590.914 21.892 591.538 21.952 592.066 22.072C592.594 22.192 593.11 22.372 593.614 22.612L592.75 26.104C592.174 25.912 591.658 25.78 591.202 25.708C590.77 25.612 590.218 25.564 589.546 25.564C588.346 25.564 587.17 25.912 586.018 26.608C584.89 27.304 583.87 28.516 582.958 30.244V40H578.782ZM605.156 40.432C602.9 40.432 601.076 39.616 599.684 37.984C598.292 36.352 597.596 34.084 597.596 31.18C597.596 29.26 597.968 27.604 598.712 26.212C599.456 24.82 600.428 23.752 601.628 23.008C602.828 22.264 604.088 21.892 605.408 21.892C606.416 21.892 607.304 22.072 608.072 22.432C608.864 22.792 609.596 23.308 610.268 23.98H610.376L610.16 20.992V14.584H614.336V40H610.916L610.592 37.948H610.484C609.812 38.62 609.008 39.208 608.072 39.712C607.136 40.192 606.164 40.432 605.156 40.432ZM606.164 37.012C606.884 37.012 607.58 36.844 608.252 36.508C608.924 36.148 609.56 35.608 610.16 34.888V26.932C609.536 26.332 608.912 25.912 608.288 25.672C607.664 25.432 607.028 25.312 606.38 25.312C605.564 25.312 604.808 25.54 604.112 25.996C603.44 26.452 602.9 27.112 602.492 27.976C602.084 28.84 601.88 29.896 601.88 31.144C601.88 33.04 602.252 34.492 602.996 35.5C603.764 36.508 604.82 37.012 606.164 37.012ZM627.965 40V25.6H620.297V22.324H632.105V40H627.965ZM629.729 19.084C628.889 19.084 628.181 18.832 627.605 18.328C627.053 17.824 626.777 17.152 626.777 16.312C626.777 15.472 627.053 14.8 627.605 14.296C628.181 13.768 628.889 13.504 629.729 13.504C630.593 13.504 631.301 13.768 631.853 14.296C632.405 14.8 632.681 15.472 632.681 16.312C632.681 17.152 632.405 17.824 631.853 18.328C631.301 18.832 630.593 19.084 629.729 19.084ZM641.811 40V22.324H645.231L645.555 24.988H645.699C646.539 24.124 647.463 23.392 648.471 22.792C649.503 22.192 650.703 21.892 652.071 21.892C654.111 21.892 655.611 22.516 656.571 23.764C657.531 25.012 658.011 26.776 658.011 29.056V40H653.835V29.596C653.835 28.18 653.583 27.136 653.079 26.464C652.575 25.792 651.723 25.456 650.523 25.456C649.659 25.456 648.891 25.66 648.219 26.068C647.547 26.476 646.803 27.1 645.987 27.94V40H641.811ZM668.905 40.432C667.753 40.432 666.733 40.216 665.845 39.784C664.957 39.328 664.261 38.716 663.757 37.948C663.253 37.18 663.001 36.28 663.001 35.248C663.001 33.28 663.937 31.78 665.809 30.748C667.705 29.692 670.837 29.008 675.205 28.696C675.157 28.048 674.977 27.46 674.665 26.932C674.377 26.404 673.933 25.996 673.333 25.708C672.733 25.396 671.953 25.24 670.993 25.24C670.321 25.24 669.661 25.324 669.013 25.492C668.365 25.66 667.717 25.888 667.069 26.176C666.445 26.464 665.821 26.776 665.197 27.112L663.685 24.34C664.405 23.908 665.197 23.512 666.061 23.152C666.925 22.768 667.837 22.468 668.797 22.252C669.757 22.012 670.741 21.892 671.749 21.892C673.405 21.892 674.785 22.192 675.889 22.792C677.017 23.368 677.869 24.232 678.445 25.384C679.045 26.512 679.345 27.892 679.345 29.524V40H675.961L675.637 37.804H675.529C674.593 38.524 673.549 39.148 672.397 39.676C671.269 40.18 670.105 40.432 668.905 40.432ZM670.165 37.192C671.053 37.192 671.905 37 672.721 36.616C673.561 36.208 674.389 35.68 675.205 35.032V31.288C673.093 31.432 671.437 31.672 670.237 32.008C669.037 32.32 668.197 32.728 667.717 33.232C667.237 33.736 666.997 34.3 666.997 34.924C666.997 35.452 667.141 35.884 667.429 36.22C667.717 36.556 668.089 36.808 668.545 36.976C669.025 37.12 669.565 37.192 670.165 37.192ZM696.107 40.432C694.307 40.432 692.879 40.12 691.823 39.496C690.767 38.848 690.011 37.96 689.555 36.832C689.099 35.704 688.871 34.396 688.871 32.908V25.6H684.155V22.504L689.051 22.324L689.591 16.78H693.011V22.324H701.075V25.6H693.011V32.872C693.011 33.832 693.143 34.636 693.407 35.284C693.671 35.908 694.103 36.376 694.703 36.688C695.303 36.976 696.095 37.12 697.079 37.12C697.847 37.12 698.543 37.06 699.167 36.94C699.791 36.82 700.391 36.652 700.967 36.436L701.759 39.424C700.967 39.688 700.115 39.916 699.203 40.108C698.291 40.324 697.259 40.432 696.107 40.432ZM715.497 40.432C713.697 40.432 712.065 40.072 710.601 39.352C709.137 38.608 707.973 37.552 707.109 36.184C706.245 34.792 705.813 33.112 705.813 31.144C705.813 29.224 706.245 27.58 707.109 26.212C707.973 24.82 709.101 23.752 710.493 23.008C711.885 22.264 713.373 21.892 714.957 21.892C716.709 21.892 718.185 22.252 719.385 22.972C720.609 23.692 721.533 24.688 722.157 25.96C722.805 27.208 723.129 28.648 723.129 30.28C723.129 30.688 723.105 31.084 723.057 31.468C723.033 31.828 722.997 32.128 722.949 32.368H708.801V29.416H720.285L719.493 30.352C719.493 28.6 719.097 27.292 718.305 26.428C717.537 25.54 716.457 25.096 715.065 25.096C714.081 25.096 713.193 25.324 712.401 25.78C711.633 26.236 711.021 26.92 710.565 27.832C710.109 28.72 709.881 29.824 709.881 31.144C709.881 32.512 710.133 33.64 710.637 34.528C711.165 35.416 711.885 36.088 712.797 36.544C713.733 37 714.813 37.228 716.037 37.228C716.973 37.228 717.837 37.096 718.629 36.832C719.421 36.568 720.213 36.208 721.005 35.752L722.409 38.344C721.473 38.944 720.417 39.448 719.241 39.856C718.065 40.24 716.817 40.432 715.497 40.432ZM736.111 40.432C734.455 40.432 732.871 40.168 731.359 39.64C729.847 39.088 728.539 38.44 727.435 37.696L729.235 35.068C730.291 35.764 731.431 36.316 732.655 36.724C733.879 37.108 735.211 37.3 736.651 37.3C737.875 37.3 738.775 37.096 739.351 36.688C739.951 36.256 740.251 35.752 740.251 35.176C740.251 34.888 740.179 34.624 740.035 34.384C739.915 34.144 739.687 33.928 739.351 33.736C739.015 33.52 738.523 33.316 737.875 33.124C737.227 32.932 736.387 32.728 735.355 32.512C733.003 32.008 731.275 31.324 730.171 30.46C729.067 29.596 728.515 28.504 728.515 27.184C728.515 25.624 729.187 24.352 730.531 23.368C731.899 22.384 733.819 21.892 736.291 21.892C737.755 21.892 739.123 22.132 740.395 22.612C741.691 23.092 742.783 23.632 743.671 24.232L741.763 26.788C740.923 26.212 739.999 25.78 738.991 25.492C737.983 25.18 736.963 25.024 735.931 25.024C735.139 25.024 734.503 25.108 734.023 25.276C733.567 25.444 733.219 25.684 732.979 25.996C732.763 26.284 732.655 26.608 732.655 26.968C732.655 27.592 733.015 28.06 733.735 28.372C734.455 28.684 735.631 29.02 737.263 29.38C739.159 29.788 740.623 30.256 741.655 30.784C742.687 31.288 743.395 31.876 743.779 32.548C744.187 33.196 744.391 34 744.391 34.96C744.391 35.968 744.067 36.892 743.419 37.732C742.795 38.548 741.871 39.208 740.647 39.712C739.423 40.192 737.911 40.432 736.111 40.432Z" fill="black"/>
<path d="M750.16 327V300.76H753.52V311.76H764.48V300.76H767.84V327H764.48V314.64H753.52V327H750.16Z" fill="black"/>
<path d="M641.72 261V232.52H645V240.28L644.8 244.88H644.92C645.907 243.813 646.987 242.92 648.16 242.2C649.333 241.453 650.68 241.08 652.2 241.08C654.493 241.08 656.187 241.747 657.28 243.08C658.373 244.413 658.92 246.36 658.92 248.92V261H655.64V249.36C655.64 247.52 655.293 246.16 654.6 245.28C653.907 244.373 652.76 243.92 651.16 243.92C650.013 243.92 648.987 244.213 648.08 244.8C647.173 245.387 646.147 246.267 645 247.44V261H641.72Z" fill="black"/>
</svg>
