<?xml version="1.0" standalone="no"?>
<svg xmlns="http://www.w3.org/2000/svg" width="500" height="500"><defs><clipPath id="clip-path-dot-color"><rect x="19" y="131" width="14" height="14" transform="rotate(0,26,138)"/><rect x="19" y="173" width="14" height="14" transform="rotate(0,26,180)"/><rect x="19" y="201" width="14" height="14" transform="rotate(0,26,208)"/><rect x="19" y="215" width="14" height="14" transform="rotate(0,26,222)"/><rect x="19" y="243" width="14" height="14" transform="rotate(0,26,250)"/><rect x="19" y="257" width="14" height="14" transform="rotate(0,26,264)"/><rect x="19" y="285" width="14" height="14" transform="rotate(0,26,292)"/><rect x="19" y="299" width="14" height="14" transform="rotate(0,26,306)"/><rect x="19" y="341" width="14" height="14" transform="rotate(0,26,348)"/><rect x="33" y="145" width="14" height="14" transform="rotate(0,40,152)"/><rect x="33" y="159" width="14" height="14" transform="rotate(0,40,166)"/><rect x="33" y="173" width="14" height="14" transform="rotate(0,40,180)"/><rect x="33" y="215" width="14" height="14" transform="rotate(0,40,222)"/><rect x="33" y="243" width="14" height="14" transform="rotate(0,40,250)"/><rect x="33" y="257" width="14" height="14" transform="rotate(0,40,264)"/><rect x="33" y="299" width="14" height="14" transform="rotate(0,40,306)"/><rect x="33" y="327" width="14" height="14" transform="rotate(0,40,334)"/><rect x="47" y="173" width="14" height="14" transform="rotate(0,54,180)"/><rect x="47" y="201" width="14" height="14" transform="rotate(0,54,208)"/><rect x="47" y="215" width="14" height="14" transform="rotate(0,54,222)"/><rect x="47" y="243" width="14" height="14" transform="rotate(0,54,250)"/><rect x="47" y="257" width="14" height="14" transform="rotate(0,54,264)"/><rect x="47" y="271" width="14" height="14" transform="rotate(0,54,278)"/><rect x="61" y="173" width="14" height="14" transform="rotate(0,68,180)"/><rect x="61" y="243" width="14" height="14" transform="rotate(0,68,250)"/><rect x="61" y="299" width="14" height="14" transform="rotate(0,68,306)"/><rect x="61" y="313" width="14" height="14" transform="rotate(0,68,320)"/><rect x="61" y="327" width="14" height="14" transform="rotate(0,68,334)"/><rect x="75" y="131" width="14" height="14" transform="rotate(0,82,138)"/><rect x="75" y="159" width="14" height="14" transform="rotate(0,82,166)"/><rect x="75" y="173" width="14" height="14" transform="rotate(0,82,180)"/><rect x="75" y="201" width="14" height="14" transform="rotate(0,82,208)"/><rect x="75" y="215" width="14" height="14" transform="rotate(0,82,222)"/><rect x="75" y="229" width="14" height="14" transform="rotate(0,82,236)"/><rect x="75" y="271" width="14" height="14" transform="rotate(0,82,278)"/><rect x="75" y="313" width="14" height="14" transform="rotate(0,82,320)"/><rect x="75" y="355" width="14" height="14" transform="rotate(0,82,362)"/><rect x="89" y="131" width="14" height="14" transform="rotate(0,96,138)"/><rect x="89" y="201" width="14" height="14" transform="rotate(0,96,208)"/><rect x="89" y="229" width="14" height="14" transform="rotate(0,96,236)"/><rect x="89" y="243" width="14" height="14" transform="rotate(0,96,250)"/><rect x="89" y="257" width="14" height="14" transform="rotate(0,96,264)"/><rect x="89" y="271" width="14" height="14" transform="rotate(0,96,278)"/><rect x="89" y="299" width="14" height="14" transform="rotate(0,96,306)"/><rect x="103" y="131" width="14" height="14" transform="rotate(0,110,138)"/><rect x="103" y="159" width="14" height="14" transform="rotate(0,110,166)"/><rect x="103" y="187" width="14" height="14" transform="rotate(0,110,194)"/><rect x="103" y="215" width="14" height="14" transform="rotate(0,110,222)"/><rect x="103" y="243" width="14" height="14" transform="rotate(0,110,250)"/><rect x="103" y="271" width="14" height="14" transform="rotate(0,110,278)"/><rect x="103" y="299" width="14" height="14" transform="rotate(0,110,306)"/><rect x="103" y="327" width="14" height="14" transform="rotate(0,110,334)"/><rect x="103" y="355" width="14" height="14" transform="rotate(0,110,362)"/><rect x="117" y="145" width="14" height="14" transform="rotate(0,124,152)"/><rect x="117" y="173" width="14" height="14" transform="rotate(0,124,180)"/><rect x="117" y="187" width="14" height="14" transform="rotate(0,124,194)"/><rect x="117" y="201" width="14" height="14" transform="rotate(0,124,208)"/><rect x="117" y="215" width="14" height="14" transform="rotate(0,124,222)"/><rect x="117" y="243" width="14" height="14" transform="rotate(0,124,250)"/><rect x="117" y="313" width="14" height="14" transform="rotate(0,124,320)"/><rect x="117" y="355" width="14" height="14" transform="rotate(0,124,362)"/><rect x="131" y="33" width="14" height="14" transform="rotate(0,138,40)"/><rect x="131" y="47" width="14" height="14" transform="rotate(0,138,54)"/><rect x="131" y="61" width="14" height="14" transform="rotate(0,138,68)"/><rect x="131" y="75" width="14" height="14" transform="rotate(0,138,82)"/><rect x="131" y="89" width="14" height="14" transform="rotate(0,138,96)"/><rect x="131" y="103" width="14" height="14" transform="rotate(0,138,110)"/><rect x="131" y="117" width="14" height="14" transform="rotate(0,138,124)"/><rect x="131" y="145" width="14" height="14" transform="rotate(0,138,152)"/><rect x="131" y="173" width="14" height="14" transform="rotate(0,138,180)"/><rect x="131" y="229" width="14" height="14" transform="rotate(0,138,236)"/><rect x="131" y="243" width="14" height="14" transform="rotate(0,138,250)"/><rect x="131" y="257" width="14" height="14" transform="rotate(0,138,264)"/><rect x="131" y="271" width="14" height="14" transform="rotate(0,138,278)"/><rect x="131" y="397" width="14" height="14" transform="rotate(0,138,404)"/><rect x="131" y="411" width="14" height="14" transform="rotate(0,138,418)"/><rect x="131" y="467" width="14" height="14" transform="rotate(0,138,474)"/><rect x="145" y="19" width="14" height="14" transform="rotate(0,152,26)"/><rect x="145" y="47" width="14" height="14" transform="rotate(0,152,54)"/><rect x="145" y="61" width="14" height="14" transform="rotate(0,152,68)"/><rect x="145" y="75" width="14" height="14" transform="rotate(0,152,82)"/><rect x="145" y="159" width="14" height="14" transform="rotate(0,152,166)"/><rect x="145" y="173" width="14" height="14" transform="rotate(0,152,180)"/><rect x="145" y="215" width="14" height="14" transform="rotate(0,152,222)"/><rect x="145" y="229" width="14" height="14" transform="rotate(0,152,236)"/><rect x="145" y="243" width="14" height="14" transform="rotate(0,152,250)"/><rect x="145" y="285" width="14" height="14" transform="rotate(0,152,292)"/><rect x="145" y="299" width="14" height="14" transform="rotate(0,152,306)"/><rect x="145" y="313" width="14" height="14" transform="rotate(0,152,320)"/><rect x="145" y="341" width="14" height="14" transform="rotate(0,152,348)"/><rect x="145" y="383" width="14" height="14" transform="rotate(0,152,390)"/><rect x="145" y="397" width="14" height="14" transform="rotate(0,152,404)"/><rect x="145" y="425" width="14" height="14" transform="rotate(0,152,432)"/><rect x="145" y="439" width="14" height="14" transform="rotate(0,152,446)"/><rect x="145" y="467" width="14" height="14" transform="rotate(0,152,474)"/><rect x="159" y="19" width="14" height="14" transform="rotate(0,166,26)"/><rect x="159" y="75" width="14" height="14" transform="rotate(0,166,82)"/><rect x="159" y="89" width="14" height="14" transform="rotate(0,166,96)"/><rect x="159" y="103" width="14" height="14" transform="rotate(0,166,110)"/><rect x="159" y="131" width="14" height="14" transform="rotate(0,166,138)"/><rect x="159" y="145" width="14" height="14" transform="rotate(0,166,152)"/><rect x="159" y="159" width="14" height="14" transform="rotate(0,166,166)"/><rect x="159" y="215" width="14" height="14" transform="rotate(0,166,222)"/><rect x="159" y="271" width="14" height="14" transform="rotate(0,166,278)"/><rect x="159" y="313" width="14" height="14" transform="rotate(0,166,320)"/><rect x="159" y="355" width="14" height="14" transform="rotate(0,166,362)"/><rect x="159" y="411" width="14" height="14" transform="rotate(0,166,418)"/><rect x="159" y="439" width="14" height="14" transform="rotate(0,166,446)"/><rect x="159" y="453" width="14" height="14" transform="rotate(0,166,460)"/><rect x="173" y="19" width="14" height="14" transform="rotate(0,180,26)"/><rect x="173" y="47" width="14" height="14" transform="rotate(0,180,54)"/><rect x="173" y="61" width="14" height="14" transform="rotate(0,180,68)"/><rect x="173" y="75" width="14" height="14" transform="rotate(0,180,82)"/><rect x="173" y="89" width="14" height="14" transform="rotate(0,180,96)"/><rect x="173" y="117" width="14" height="14" transform="rotate(0,180,124)"/><rect x="173" y="159" width="14" height="14" transform="rotate(0,180,166)"/><rect x="173" y="187" width="14" height="14" transform="rotate(0,180,194)"/><rect x="173" y="229" width="14" height="14" transform="rotate(0,180,236)"/><rect x="173" y="285" width="14" height="14" transform="rotate(0,180,292)"/><rect x="173" y="313" width="14" height="14" transform="rotate(0,180,320)"/><rect x="173" y="327" width="14" height="14" transform="rotate(0,180,334)"/><rect x="173" y="355" width="14" height="14" transform="rotate(0,180,362)"/><rect x="173" y="383" width="14" height="14" transform="rotate(0,180,390)"/><rect x="173" y="411" width="14" height="14" transform="rotate(0,180,418)"/><rect x="173" y="425" width="14" height="14" transform="rotate(0,180,432)"/><rect x="173" y="439" width="14" height="14" transform="rotate(0,180,446)"/><rect x="173" y="453" width="14" height="14" transform="rotate(0,180,460)"/><rect x="173" y="467" width="14" height="14" transform="rotate(0,180,474)"/><rect x="187" y="47" width="14" height="14" transform="rotate(0,194,54)"/><rect x="187" y="61" width="14" height="14" transform="rotate(0,194,68)"/><rect x="187" y="89" width="14" height="14" transform="rotate(0,194,96)"/><rect x="187" y="103" width="14" height="14" transform="rotate(0,194,110)"/><rect x="187" y="145" width="14" height="14" transform="rotate(0,194,152)"/><rect x="187" y="173" width="14" height="14" transform="rotate(0,194,180)"/><rect x="187" y="201" width="14" height="14" transform="rotate(0,194,208)"/><rect x="187" y="229" width="14" height="14" transform="rotate(0,194,236)"/><rect x="187" y="271" width="14" height="14" transform="rotate(0,194,278)"/><rect x="187" y="313" width="14" height="14" transform="rotate(0,194,320)"/><rect x="187" y="341" width="14" height="14" transform="rotate(0,194,348)"/><rect x="187" y="355" width="14" height="14" transform="rotate(0,194,362)"/><rect x="187" y="411" width="14" height="14" transform="rotate(0,194,418)"/><rect x="187" y="425" width="14" height="14" transform="rotate(0,194,432)"/><rect x="187" y="453" width="14" height="14" transform="rotate(0,194,460)"/><rect x="187" y="467" width="14" height="14" transform="rotate(0,194,474)"/><rect x="201" y="19" width="14" height="14" transform="rotate(0,208,26)"/><rect x="201" y="47" width="14" height="14" transform="rotate(0,208,54)"/><rect x="201" y="61" width="14" height="14" transform="rotate(0,208,68)"/><rect x="201" y="173" width="14" height="14" transform="rotate(0,208,180)"/><rect x="201" y="201" width="14" height="14" transform="rotate(0,208,208)"/><rect x="201" y="229" width="14" height="14" transform="rotate(0,208,236)"/><rect x="201" y="299" width="14" height="14" transform="rotate(0,208,306)"/><rect x="201" y="327" width="14" height="14" transform="rotate(0,208,334)"/><rect x="201" y="369" width="14" height="14" transform="rotate(0,208,376)"/><rect x="201" y="383" width="14" height="14" transform="rotate(0,208,390)"/><rect x="201" y="397" width="14" height="14" transform="rotate(0,208,404)"/><rect x="201" y="453" width="14" height="14" transform="rotate(0,208,460)"/><rect x="201" y="467" width="14" height="14" transform="rotate(0,208,474)"/><rect x="215" y="19" width="14" height="14" transform="rotate(0,222,26)"/><rect x="215" y="33" width="14" height="14" transform="rotate(0,222,40)"/><rect x="215" y="47" width="14" height="14" transform="rotate(0,222,54)"/><rect x="215" y="61" width="14" height="14" transform="rotate(0,222,68)"/><rect x="215" y="89" width="14" height="14" transform="rotate(0,222,96)"/><rect x="215" y="103" width="14" height="14" transform="rotate(0,222,110)"/><rect x="215" y="173" width="14" height="14" transform="rotate(0,222,180)"/><rect x="215" y="187" width="14" height="14" transform="rotate(0,222,194)"/><rect x="215" y="243" width="14" height="14" transform="rotate(0,222,250)"/><rect x="215" y="271" width="14" height="14" transform="rotate(0,222,278)"/><rect x="215" y="285" width="14" height="14" transform="rotate(0,222,292)"/><rect x="215" y="327" width="14" height="14" transform="rotate(0,222,334)"/><rect x="215" y="341" width="14" height="14" transform="rotate(0,222,348)"/><rect x="215" y="355" width="14" height="14" transform="rotate(0,222,362)"/><rect x="215" y="369" width="14" height="14" transform="rotate(0,222,376)"/><rect x="215" y="383" width="14" height="14" transform="rotate(0,222,390)"/><rect x="215" y="411" width="14" height="14" transform="rotate(0,222,418)"/><rect x="215" y="425" width="14" height="14" transform="rotate(0,222,432)"/><rect x="215" y="439" width="14" height="14" transform="rotate(0,222,446)"/><rect x="215" y="453" width="14" height="14" transform="rotate(0,222,460)"/><rect x="229" y="19" width="14" height="14" transform="rotate(0,236,26)"/><rect x="229" y="33" width="14" height="14" transform="rotate(0,236,40)"/><rect x="229" y="75" width="14" height="14" transform="rotate(0,236,82)"/><rect x="229" y="117" width="14" height="14" transform="rotate(0,236,124)"/><rect x="229" y="131" width="14" height="14" transform="rotate(0,236,138)"/><rect x="229" y="173" width="14" height="14" transform="rotate(0,236,180)"/><rect x="229" y="215" width="14" height="14" transform="rotate(0,236,222)"/><rect x="229" y="243" width="14" height="14" transform="rotate(0,236,250)"/><rect x="229" y="285" width="14" height="14" transform="rotate(0,236,292)"/><rect x="229" y="299" width="14" height="14" transform="rotate(0,236,306)"/><rect x="229" y="313" width="14" height="14" transform="rotate(0,236,320)"/><rect x="229" y="341" width="14" height="14" transform="rotate(0,236,348)"/><rect x="229" y="369" width="14" height="14" transform="rotate(0,236,376)"/><rect x="229" y="383" width="14" height="14" transform="rotate(0,236,390)"/><rect x="229" y="397" width="14" height="14" transform="rotate(0,236,404)"/><rect x="229" y="425" width="14" height="14" transform="rotate(0,236,432)"/><rect x="229" y="439" width="14" height="14" transform="rotate(0,236,446)"/><rect x="243" y="19" width="14" height="14" transform="rotate(0,250,26)"/><rect x="243" y="103" width="14" height="14" transform="rotate(0,250,110)"/><rect x="243" y="117" width="14" height="14" transform="rotate(0,250,124)"/><rect x="243" y="131" width="14" height="14" transform="rotate(0,250,138)"/><rect x="243" y="159" width="14" height="14" transform="rotate(0,250,166)"/><rect x="243" y="187" width="14" height="14" transform="rotate(0,250,194)"/><rect x="243" y="215" width="14" height="14" transform="rotate(0,250,222)"/><rect x="243" y="229" width="14" height="14" transform="rotate(0,250,236)"/><rect x="243" y="285" width="14" height="14" transform="rotate(0,250,292)"/><rect x="243" y="299" width="14" height="14" transform="rotate(0,250,306)"/><rect x="243" y="327" width="14" height="14" transform="rotate(0,250,334)"/><rect x="243" y="341" width="14" height="14" transform="rotate(0,250,348)"/><rect x="243" y="355" width="14" height="14" transform="rotate(0,250,362)"/><rect x="243" y="369" width="14" height="14" transform="rotate(0,250,376)"/><rect x="243" y="397" width="14" height="14" transform="rotate(0,250,404)"/><rect x="243" y="411" width="14" height="14" transform="rotate(0,250,418)"/><rect x="243" y="467" width="14" height="14" transform="rotate(0,250,474)"/><rect x="257" y="19" width="14" height="14" transform="rotate(0,264,26)"/><rect x="257" y="33" width="14" height="14" transform="rotate(0,264,40)"/><rect x="257" y="61" width="14" height="14" transform="rotate(0,264,68)"/><rect x="257" y="117" width="14" height="14" transform="rotate(0,264,124)"/><rect x="257" y="159" width="14" height="14" transform="rotate(0,264,166)"/><rect x="257" y="187" width="14" height="14" transform="rotate(0,264,194)"/><rect x="257" y="243" width="14" height="14" transform="rotate(0,264,250)"/><rect x="257" y="257" width="14" height="14" transform="rotate(0,264,264)"/><rect x="257" y="285" width="14" height="14" transform="rotate(0,264,292)"/><rect x="257" y="299" width="14" height="14" transform="rotate(0,264,306)"/><rect x="257" y="341" width="14" height="14" transform="rotate(0,264,348)"/><rect x="257" y="383" width="14" height="14" transform="rotate(0,264,390)"/><rect x="257" y="397" width="14" height="14" transform="rotate(0,264,404)"/><rect x="257" y="425" width="14" height="14" transform="rotate(0,264,432)"/><rect x="257" y="439" width="14" height="14" transform="rotate(0,264,446)"/><rect x="257" y="467" width="14" height="14" transform="rotate(0,264,474)"/><rect x="271" y="75" width="14" height="14" transform="rotate(0,278,82)"/><rect x="271" y="103" width="14" height="14" transform="rotate(0,278,110)"/><rect x="271" y="117" width="14" height="14" transform="rotate(0,278,124)"/><rect x="271" y="159" width="14" height="14" transform="rotate(0,278,166)"/><rect x="271" y="201" width="14" height="14" transform="rotate(0,278,208)"/><rect x="271" y="229" width="14" height="14" transform="rotate(0,278,236)"/><rect x="271" y="299" width="14" height="14" transform="rotate(0,278,306)"/><rect x="271" y="327" width="14" height="14" transform="rotate(0,278,334)"/><rect x="271" y="355" width="14" height="14" transform="rotate(0,278,362)"/><rect x="271" y="397" width="14" height="14" transform="rotate(0,278,404)"/><rect x="271" y="411" width="14" height="14" transform="rotate(0,278,418)"/><rect x="271" y="439" width="14" height="14" transform="rotate(0,278,446)"/><rect x="285" y="33" width="14" height="14" transform="rotate(0,292,40)"/><rect x="285" y="61" width="14" height="14" transform="rotate(0,292,68)"/><rect x="285" y="89" width="14" height="14" transform="rotate(0,292,96)"/><rect x="285" y="131" width="14" height="14" transform="rotate(0,292,138)"/><rect x="285" y="159" width="14" height="14" transform="rotate(0,292,166)"/><rect x="285" y="173" width="14" height="14" transform="rotate(0,292,180)"/><rect x="285" y="201" width="14" height="14" transform="rotate(0,292,208)"/><rect x="285" y="229" width="14" height="14" transform="rotate(0,292,236)"/><rect x="285" y="243" width="14" height="14" transform="rotate(0,292,250)"/><rect x="285" y="271" width="14" height="14" transform="rotate(0,292,278)"/><rect x="285" y="285" width="14" height="14" transform="rotate(0,292,292)"/><rect x="285" y="299" width="14" height="14" transform="rotate(0,292,306)"/><rect x="285" y="397" width="14" height="14" transform="rotate(0,292,404)"/><rect x="285" y="411" width="14" height="14" transform="rotate(0,292,418)"/><rect x="285" y="425" width="14" height="14" transform="rotate(0,292,432)"/><rect x="285" y="439" width="14" height="14" transform="rotate(0,292,446)"/><rect x="285" y="453" width="14" height="14" transform="rotate(0,292,460)"/><rect x="299" y="19" width="14" height="14" transform="rotate(0,306,26)"/><rect x="299" y="33" width="14" height="14" transform="rotate(0,306,40)"/><rect x="299" y="47" width="14" height="14" transform="rotate(0,306,54)"/><rect x="299" y="103" width="14" height="14" transform="rotate(0,306,110)"/><rect x="299" y="187" width="14" height="14" transform="rotate(0,306,194)"/><rect x="299" y="201" width="14" height="14" transform="rotate(0,306,208)"/><rect x="299" y="215" width="14" height="14" transform="rotate(0,306,222)"/><rect x="299" y="271" width="14" height="14" transform="rotate(0,306,278)"/><rect x="299" y="285" width="14" height="14" transform="rotate(0,306,292)"/><rect x="299" y="299" width="14" height="14" transform="rotate(0,306,306)"/><rect x="299" y="313" width="14" height="14" transform="rotate(0,306,320)"/><rect x="299" y="327" width="14" height="14" transform="rotate(0,306,334)"/><rect x="299" y="355" width="14" height="14" transform="rotate(0,306,362)"/><rect x="299" y="397" width="14" height="14" transform="rotate(0,306,404)"/><rect x="299" y="411" width="14" height="14" transform="rotate(0,306,418)"/><rect x="299" y="425" width="14" height="14" transform="rotate(0,306,432)"/><rect x="313" y="19" width="14" height="14" transform="rotate(0,320,26)"/><rect x="313" y="75" width="14" height="14" transform="rotate(0,320,82)"/><rect x="313" y="131" width="14" height="14" transform="rotate(0,320,138)"/><rect x="313" y="159" width="14" height="14" transform="rotate(0,320,166)"/><rect x="313" y="243" width="14" height="14" transform="rotate(0,320,250)"/><rect x="313" y="257" width="14" height="14" transform="rotate(0,320,264)"/><rect x="313" y="271" width="14" height="14" transform="rotate(0,320,278)"/><rect x="313" y="313" width="14" height="14" transform="rotate(0,320,320)"/><rect x="313" y="355" width="14" height="14" transform="rotate(0,320,362)"/><rect x="313" y="369" width="14" height="14" transform="rotate(0,320,376)"/><rect x="313" y="383" width="14" height="14" transform="rotate(0,320,390)"/><rect x="313" y="425" width="14" height="14" transform="rotate(0,320,432)"/><rect x="313" y="467" width="14" height="14" transform="rotate(0,320,474)"/><rect x="327" y="19" width="14" height="14" transform="rotate(0,334,26)"/><rect x="327" y="47" width="14" height="14" transform="rotate(0,334,54)"/><rect x="327" y="75" width="14" height="14" transform="rotate(0,334,82)"/><rect x="327" y="89" width="14" height="14" transform="rotate(0,334,96)"/><rect x="327" y="103" width="14" height="14" transform="rotate(0,334,110)"/><rect x="327" y="117" width="14" height="14" transform="rotate(0,334,124)"/><rect x="327" y="131" width="14" height="14" transform="rotate(0,334,138)"/><rect x="327" y="145" width="14" height="14" transform="rotate(0,334,152)"/><rect x="327" y="215" width="14" height="14" transform="rotate(0,334,222)"/><rect x="327" y="229" width="14" height="14" transform="rotate(0,334,236)"/><rect x="327" y="257" width="14" height="14" transform="rotate(0,334,264)"/><rect x="327" y="271" width="14" height="14" transform="rotate(0,334,278)"/><rect x="327" y="299" width="14" height="14" transform="rotate(0,334,306)"/><rect x="327" y="355" width="14" height="14" transform="rotate(0,334,362)"/><rect x="327" y="369" width="14" height="14" transform="rotate(0,334,376)"/><rect x="327" y="397" width="14" height="14" transform="rotate(0,334,404)"/><rect x="327" y="425" width="14" height="14" transform="rotate(0,334,432)"/><rect x="327" y="453" width="14" height="14" transform="rotate(0,334,460)"/><rect x="341" y="19" width="14" height="14" transform="rotate(0,348,26)"/><rect x="341" y="61" width="14" height="14" transform="rotate(0,348,68)"/><rect x="341" y="75" width="14" height="14" transform="rotate(0,348,82)"/><rect x="341" y="145" width="14" height="14" transform="rotate(0,348,152)"/><rect x="341" y="173" width="14" height="14" transform="rotate(0,348,180)"/><rect x="341" y="187" width="14" height="14" transform="rotate(0,348,194)"/><rect x="341" y="201" width="14" height="14" transform="rotate(0,348,208)"/><rect x="341" y="215" width="14" height="14" transform="rotate(0,348,222)"/><rect x="341" y="229" width="14" height="14" transform="rotate(0,348,236)"/><rect x="341" y="243" width="14" height="14" transform="rotate(0,348,250)"/><rect x="341" y="257" width="14" height="14" transform="rotate(0,348,264)"/><rect x="341" y="271" width="14" height="14" transform="rotate(0,348,278)"/><rect x="341" y="313" width="14" height="14" transform="rotate(0,348,320)"/><rect x="341" y="327" width="14" height="14" transform="rotate(0,348,334)"/><rect x="341" y="369" width="14" height="14" transform="rotate(0,348,376)"/><rect x="341" y="383" width="14" height="14" transform="rotate(0,348,390)"/><rect x="341" y="425" width="14" height="14" transform="rotate(0,348,432)"/><rect x="341" y="439" width="14" height="14" transform="rotate(0,348,446)"/><rect x="341" y="467" width="14" height="14" transform="rotate(0,348,474)"/><rect x="355" y="19" width="14" height="14" transform="rotate(0,362,26)"/><rect x="355" y="75" width="14" height="14" transform="rotate(0,362,82)"/><rect x="355" y="103" width="14" height="14" transform="rotate(0,362,110)"/><rect x="355" y="145" width="14" height="14" transform="rotate(0,362,152)"/><rect x="355" y="159" width="14" height="14" transform="rotate(0,362,166)"/><rect x="355" y="173" width="14" height="14" transform="rotate(0,362,180)"/><rect x="355" y="187" width="14" height="14" transform="rotate(0,362,194)"/><rect x="355" y="215" width="14" height="14" transform="rotate(0,362,222)"/><rect x="355" y="271" width="14" height="14" transform="rotate(0,362,278)"/><rect x="355" y="327" width="14" height="14" transform="rotate(0,362,334)"/><rect x="355" y="355" width="14" height="14" transform="rotate(0,362,362)"/><rect x="355" y="369" width="14" height="14" transform="rotate(0,362,376)"/><rect x="355" y="383" width="14" height="14" transform="rotate(0,362,390)"/><rect x="355" y="397" width="14" height="14" transform="rotate(0,362,404)"/><rect x="355" y="411" width="14" height="14" transform="rotate(0,362,418)"/><rect x="355" y="425" width="14" height="14" transform="rotate(0,362,432)"/><rect x="369" y="131" width="14" height="14" transform="rotate(0,376,138)"/><rect x="369" y="173" width="14" height="14" transform="rotate(0,376,180)"/><rect x="369" y="201" width="14" height="14" transform="rotate(0,376,208)"/><rect x="369" y="215" width="14" height="14" transform="rotate(0,376,222)"/><rect x="369" y="229" width="14" height="14" transform="rotate(0,376,236)"/><rect x="369" y="257" width="14" height="14" transform="rotate(0,376,264)"/><rect x="369" y="271" width="14" height="14" transform="rotate(0,376,278)"/><rect x="369" y="285" width="14" height="14" transform="rotate(0,376,292)"/><rect x="369" y="313" width="14" height="14" transform="rotate(0,376,320)"/><rect x="369" y="341" width="14" height="14" transform="rotate(0,376,348)"/><rect x="369" y="355" width="14" height="14" transform="rotate(0,376,362)"/><rect x="369" y="411" width="14" height="14" transform="rotate(0,376,418)"/><rect x="369" y="439" width="14" height="14" transform="rotate(0,376,446)"/><rect x="369" y="453" width="14" height="14" transform="rotate(0,376,460)"/><rect x="369" y="467" width="14" height="14" transform="rotate(0,376,474)"/><rect x="383" y="131" width="14" height="14" transform="rotate(0,390,138)"/><rect x="383" y="173" width="14" height="14" transform="rotate(0,390,180)"/><rect x="383" y="215" width="14" height="14" transform="rotate(0,390,222)"/><rect x="383" y="243" width="14" height="14" transform="rotate(0,390,250)"/><rect x="383" y="299" width="14" height="14" transform="rotate(0,390,306)"/><rect x="383" y="313" width="14" height="14" transform="rotate(0,390,320)"/><rect x="383" y="341" width="14" height="14" transform="rotate(0,390,348)"/><rect x="383" y="355" width="14" height="14" transform="rotate(0,390,362)"/><rect x="383" y="383" width="14" height="14" transform="rotate(0,390,390)"/><rect x="383" y="411" width="14" height="14" transform="rotate(0,390,418)"/><rect x="383" y="439" width="14" height="14" transform="rotate(0,390,446)"/><rect x="383" y="453" width="14" height="14" transform="rotate(0,390,460)"/><rect x="397" y="131" width="14" height="14" transform="rotate(0,404,138)"/><rect x="397" y="145" width="14" height="14" transform="rotate(0,404,152)"/><rect x="397" y="159" width="14" height="14" transform="rotate(0,404,166)"/><rect x="397" y="173" width="14" height="14" transform="rotate(0,404,180)"/><rect x="397" y="187" width="14" height="14" transform="rotate(0,404,194)"/><rect x="397" y="201" width="14" height="14" transform="rotate(0,404,208)"/><rect x="397" y="215" width="14" height="14" transform="rotate(0,404,222)"/><rect x="397" y="243" width="14" height="14" transform="rotate(0,404,250)"/><rect x="397" y="257" width="14" height="14" transform="rotate(0,404,264)"/><rect x="397" y="299" width="14" height="14" transform="rotate(0,404,306)"/><rect x="397" y="313" width="14" height="14" transform="rotate(0,404,320)"/><rect x="397" y="327" width="14" height="14" transform="rotate(0,404,334)"/><rect x="397" y="341" width="14" height="14" transform="rotate(0,404,348)"/><rect x="397" y="355" width="14" height="14" transform="rotate(0,404,362)"/><rect x="397" y="411" width="14" height="14" transform="rotate(0,404,418)"/><rect x="397" y="425" width="14" height="14" transform="rotate(0,404,432)"/><rect x="397" y="439" width="14" height="14" transform="rotate(0,404,446)"/><rect x="411" y="131" width="14" height="14" transform="rotate(0,418,138)"/><rect x="411" y="145" width="14" height="14" transform="rotate(0,418,152)"/><rect x="411" y="187" width="14" height="14" transform="rotate(0,418,194)"/><rect x="411" y="215" width="14" height="14" transform="rotate(0,418,222)"/><rect x="411" y="285" width="14" height="14" transform="rotate(0,418,292)"/><rect x="411" y="313" width="14" height="14" transform="rotate(0,418,320)"/><rect x="411" y="355" width="14" height="14" transform="rotate(0,418,362)"/><rect x="411" y="369" width="14" height="14" transform="rotate(0,418,376)"/><rect x="411" y="383" width="14" height="14" transform="rotate(0,418,390)"/><rect x="411" y="397" width="14" height="14" transform="rotate(0,418,404)"/><rect x="411" y="411" width="14" height="14" transform="rotate(0,418,418)"/><rect x="411" y="425" width="14" height="14" transform="rotate(0,418,432)"/><rect x="425" y="131" width="14" height="14" transform="rotate(0,432,138)"/><rect x="425" y="145" width="14" height="14" transform="rotate(0,432,152)"/><rect x="425" y="159" width="14" height="14" transform="rotate(0,432,166)"/><rect x="425" y="187" width="14" height="14" transform="rotate(0,432,194)"/><rect x="425" y="201" width="14" height="14" transform="rotate(0,432,208)"/><rect x="425" y="215" width="14" height="14" transform="rotate(0,432,222)"/><rect x="425" y="229" width="14" height="14" transform="rotate(0,432,236)"/><rect x="425" y="243" width="14" height="14" transform="rotate(0,432,250)"/><rect x="425" y="257" width="14" height="14" transform="rotate(0,432,264)"/><rect x="425" y="299" width="14" height="14" transform="rotate(0,432,306)"/><rect x="425" y="327" width="14" height="14" transform="rotate(0,432,334)"/><rect x="425" y="341" width="14" height="14" transform="rotate(0,432,348)"/><rect x="425" y="355" width="14" height="14" transform="rotate(0,432,362)"/><rect x="425" y="369" width="14" height="14" transform="rotate(0,432,376)"/><rect x="425" y="411" width="14" height="14" transform="rotate(0,432,418)"/><rect x="425" y="439" width="14" height="14" transform="rotate(0,432,446)"/><rect x="425" y="467" width="14" height="14" transform="rotate(0,432,474)"/><rect x="439" y="131" width="14" height="14" transform="rotate(0,446,138)"/><rect x="439" y="145" width="14" height="14" transform="rotate(0,446,152)"/><rect x="439" y="173" width="14" height="14" transform="rotate(0,446,180)"/><rect x="439" y="187" width="14" height="14" transform="rotate(0,446,194)"/><rect x="439" y="243" width="14" height="14" transform="rotate(0,446,250)"/><rect x="439" y="257" width="14" height="14" transform="rotate(0,446,264)"/><rect x="439" y="271" width="14" height="14" transform="rotate(0,446,278)"/><rect x="439" y="285" width="14" height="14" transform="rotate(0,446,292)"/><rect x="439" y="327" width="14" height="14" transform="rotate(0,446,334)"/><rect x="439" y="383" width="14" height="14" transform="rotate(0,446,390)"/><rect x="439" y="397" width="14" height="14" transform="rotate(0,446,404)"/><rect x="439" y="425" width="14" height="14" transform="rotate(0,446,432)"/><rect x="453" y="131" width="14" height="14" transform="rotate(0,460,138)"/><rect x="453" y="159" width="14" height="14" transform="rotate(0,460,166)"/><rect x="453" y="187" width="14" height="14" transform="rotate(0,460,194)"/><rect x="453" y="201" width="14" height="14" transform="rotate(0,460,208)"/><rect x="453" y="229" width="14" height="14" transform="rotate(0,460,236)"/><rect x="453" y="243" width="14" height="14" transform="rotate(0,460,250)"/><rect x="453" y="285" width="14" height="14" transform="rotate(0,460,292)"/><rect x="453" y="299" width="14" height="14" transform="rotate(0,460,306)"/><rect x="453" y="313" width="14" height="14" transform="rotate(0,460,320)"/><rect x="453" y="327" width="14" height="14" transform="rotate(0,460,334)"/><rect x="453" y="341" width="14" height="14" transform="rotate(0,460,348)"/><rect x="453" y="411" width="14" height="14" transform="rotate(0,460,418)"/><rect x="453" y="425" width="14" height="14" transform="rotate(0,460,432)"/><rect x="453" y="439" width="14" height="14" transform="rotate(0,460,446)"/><rect x="467" y="145" width="14" height="14" transform="rotate(0,474,152)"/><rect x="467" y="173" width="14" height="14" transform="rotate(0,474,180)"/><rect x="467" y="187" width="14" height="14" transform="rotate(0,474,194)"/><rect x="467" y="257" width="14" height="14" transform="rotate(0,474,264)"/><rect x="467" y="271" width="14" height="14" transform="rotate(0,474,278)"/><rect x="467" y="285" width="14" height="14" transform="rotate(0,474,292)"/><rect x="467" y="327" width="14" height="14" transform="rotate(0,474,334)"/><rect x="467" y="355" width="14" height="14" transform="rotate(0,474,362)"/><rect x="467" y="383" width="14" height="14" transform="rotate(0,474,390)"/><rect x="467" y="397" width="14" height="14" transform="rotate(0,474,404)"/><rect x="467" y="453" width="14" height="14" transform="rotate(0,474,460)"/></clipPath><clipPath id="clip-path-corners-square-color-0-0"><path clip-rule="evenodd" d="M 19 19v 98h 98v -98zM 33 33h 70v 70h -70z" transform="rotate(0,68,68)"/></clipPath><clipPath id="clip-path-corners-dot-color-0-0"><rect x="47" y="47" width="42" height="42" transform="rotate(0,68,68)"/></clipPath><clipPath id="clip-path-corners-square-color-1-0"><path clip-rule="evenodd" d="M 383 19v 98h 98v -98zM 397 33h 70v 70h -70z" transform="rotate(90,432,68)"/></clipPath><clipPath id="clip-path-corners-dot-color-1-0"><rect x="411" y="47" width="42" height="42" transform="rotate(90,432,68)"/></clipPath><clipPath id="clip-path-corners-square-color-0-1"><path clip-rule="evenodd" d="M 19 383v 98h 98v -98zM 33 397h 70v 70h -70z" transform="rotate(-90,68,432)"/></clipPath><clipPath id="clip-path-corners-dot-color-0-1"><rect x="47" y="411" width="42" height="42" transform="rotate(-90,68,432)"/></clipPath></defs><rect x="0" y="0" height="500" width="500" clip-path="url('#clip-path-background-color')" fill="#fff"/><rect x="0" y="0" height="500" width="500" clip-path="url('#clip-path-dot-color')" fill="#000000"/><rect x="19" y="19" height="98" width="98" clip-path="url('#clip-path-corners-square-color-0-0')" fill="#000000"/><rect x="47" y="47" height="42" width="42" clip-path="url('#clip-path-corners-dot-color-0-0')" fill="#000000"/><rect x="383" y="19" height="98" width="98" clip-path="url('#clip-path-corners-square-color-1-0')" fill="#000000"/><rect x="411" y="47" height="42" width="42" clip-path="url('#clip-path-corners-dot-color-1-0')" fill="#000000"/><rect x="19" y="383" height="98" width="98" clip-path="url('#clip-path-corners-square-color-0-1')" fill="#000000"/><rect x="47" y="411" height="42" width="42" clip-path="url('#clip-path-corners-dot-color-0-1')" fill="#000000"/></svg>